SplineFontDB: 3.0
FontName: Shabnam-Light
FullName: Shabnam Light
FamilyName: Shabnam
Weight: Light
Copyright: Copyright (c) 2003 by Bitstream, Inc. All Rights Reserved.\nDejaVu changes are in public domain\nCopyright (c) 2015 by Saber Rastikerdar. All Rights Reserved.\nNon-Arabic(Latin) glyphs and data are imported from Roboto font under the Apache License, Version 2.0.
Version: 2.4.0
ItalicAngle: 0
UnderlinePosition: -500
UnderlineWidth: 100
Ascent: 1638
Descent: 410
InvalidEm: 0
LayerCount: 2
Layer: 0 1 "Back" 1
Layer: 1 1 "Fore" 0
XUID: [1021 502 1027637223 9111233]
UniqueID: 4026452
UseUniqueID: 1
FSType: 0
OS2Version: 1
OS2_WeightWidthSlopeOnly: 0
OS2_UseTypoMetrics: 1
CreationTime: 1431850356
ModificationTime: 1518139313
PfmFamily: 33
TTFWeight: 300
TTFWidth: 5
LineGap: 0
VLineGap: 0
Panose: 2 11 6 3 3 8 4 2 2 4
OS2TypoAscent: 1900
OS2TypoAOffset: 0
OS2TypoDescent: -900
OS2TypoDOffset: 0
OS2TypoLinegap: 0
OS2WinAscent: 1900
OS2WinAOffset: 0
OS2WinDescent: 900
OS2WinDOffset: 0
HheadAscent: 1900
HheadAOffset: 0
HheadDescent: -900
HheadDOffset: 0
OS2SubXSize: 1331
OS2SubYSize: 1433
OS2SubXOff: 0
OS2SubYOff: 286
OS2SupXSize: 1331
OS2SupYSize: 1433
OS2SupXOff: 0
OS2SupYOff: 983
OS2StrikeYSize: 102
OS2StrikeYPos: 530
OS2Vendor: 'PfEd'
OS2CodePages: 00000041.20080000
OS2UnicodeRanges: 80002003.80000000.00000008.00000000
Lookup: 1 9 0 "'fina' Terminal Forms in Arabic lookup 9" { "'fina' Terminal Forms in Arabic lookup 9 subtable"  } ['fina' ('arab' <'KUR ' 'SND ' 'URD ' 'dflt' > ) ]
Lookup: 1 9 0 "'medi' Medial Forms in Arabic lookup 11" { "'medi' Medial Forms in Arabic lookup 11 subtable"  } ['medi' ('arab' <'KUR ' 'SND ' 'URD ' 'dflt' > ) ]
Lookup: 1 9 0 "'init' Initial Forms in Arabic lookup 13" { "'init' Initial Forms in Arabic lookup 13 subtable"  } ['init' ('arab' <'KUR ' 'SND ' 'URD ' 'dflt' > ) ]
Lookup: 4 1 1 "'rlig' Required Ligatures in Arabic lookup 14" { "'rlig' Required Ligatures in Arabic lookup 14 subtable"  } ['rlig' ('arab' <'KUR ' 'dflt' > ) ]

StartChar: exclam
Encoding: 33 33 1
Width: 568
VWidth: 2391
GlyphClass: 2
Flags: W
LayerCount: 2
Fore
SplineSet
165.919921875 132.381835938 m 128,-1,1
 165.919921875 156.60129835 165.919921875 156.60129835 174.212194603 176.677238154 c 128,-1,2
 182.504467331 196.753177958 182.504467331 196.753177958 199.526523593 213.77523422 c 0,3,4
 233.19001788 247.438728508 233.19001788 247.438728508 281.421161596 247.881216065 c 0,5,6
 330.65084901 247.437705367 330.65084901 247.437705367 364.313320157 213.77523422 c 128,-1,7
 397.919921875 180.168632502 397.919921875 180.168632502 397.919921875 132.381835938 c 128,-1,8
 397.919921875 84.5950393731 397.919921875 84.5950393731 364.313320157 50.9884376553 c 128,-1,9
 330.64982587 17.3249433676 330.64982587 17.3249433676 282.418682154 16.8824558106 c 0,10,11
 257.552733671 17.1064733645 257.552733671 17.1064733645 237.024762477 25.5623216647 c 128,-1,12
 216.496791283 34.0181699648 216.496791283 34.0181699648 199.526523593 50.9884376553 c 128,-1,13
 182.504248296 68.0107129521 182.504248296 68.0107129521 174.212085086 88.0866656474 c 128,-1,0
 165.919921875 108.162618343 165.919921875 108.162618343 165.919921875 132.381835938 c 128,-1,1
191.890768751 1350.35449219 m 1,14,-1
 363.929001374 1350.35449219 l 1,15,-1
 342.977777398 457.609375 l 1,16,-1
 213.888845316 457.609375 l 1,17,-1
 191.890768751 1350.35449219 l 1,14,-1
EndSplineSet
EndChar

StartChar: period
Encoding: 46 46 2
Width: 572
VWidth: 2391
GlyphClass: 2
Flags: W
LayerCount: 2
Fore
SplineSet
171.255859375 129.43359375 m 128,-1,1
 171.255859375 153.653056162 171.255859375 153.653056162 179.548132103 173.728995966 c 128,-1,2
 187.840404831 193.80493577 187.840404831 193.80493577 204.862461093 210.826992032 c 0,3,4
 238.52595538 244.49048632 238.52595538 244.49048632 286.757099096 244.932973877 c 0,5,6
 335.98678651 244.489463179 335.98678651 244.489463179 369.649257657 210.826992032 c 128,-1,7
 403.255859375 177.220390314 403.255859375 177.220390314 403.255859375 129.43359375 c 128,-1,8
 403.255859375 81.6467971856 403.255859375 81.6467971856 369.649257657 48.0401954678 c 0,9,10
 352.65225466 31.0431924707 352.65225466 31.0431924707 332.375826645 22.600376345 c 128,-1,11
 312.09939863 14.1575602192 312.09939863 14.1575602192 287.754619654 13.9342136231 c 0,12,13
 262.888671171 14.158231177 262.888671171 14.158231177 242.360699977 22.6140794772 c 128,-1,14
 221.832728783 31.0699277773 221.832728783 31.0699277773 204.862461093 48.0401954678 c 128,-1,15
 187.840185796 65.0624707646 187.840185796 65.0624707646 179.548022586 85.1384234598 c 128,-1,0
 171.255859375 105.214376155 171.255859375 105.214376155 171.255859375 129.43359375 c 128,-1,1
EndSplineSet
EndChar

StartChar: colon
Encoding: 58 58 3
Width: 579
VWidth: 2391
GlyphClass: 2
Flags: W
LayerCount: 2
Fore
SplineSet
173.203125 834.43359375 m 0,0,1
 173.203125 882.220390314 173.203125 882.220390314 206.809726718 915.826992032 c 128,-1,2
 240.473221005 949.49048632 240.473221005 949.49048632 288.704364721 949.932973877 c 0,3,4
 313.570313204 949.708956323 313.570313204 949.708956323 334.098284398 941.253108023 c 128,-1,5
 354.626255592 932.797259723 354.626255592 932.797259723 371.596523282 915.826992032 c 0,6,7
 405.203125 882.220390314 405.203125 882.220390314 405.203125 834.43359375 c 128,-1,8
 405.203125 786.646797186 405.203125 786.646797186 371.596523282 753.040195468 c 0,9,10
 354.599520285 736.043192471 354.599520285 736.043192471 334.32309227 727.600376345 c 128,-1,11
 314.046664255 719.157560219 314.046664255 719.157560219 289.701885279 718.934213623 c 0,12,13
 240.472197865 719.377724321 240.472197865 719.377724321 206.809726718 753.040195468 c 0,14,15
 189.787451421 770.062470765 189.787451421 770.062470765 181.495288211 790.13842346 c 128,-1,16
 173.203125 810.214376155 173.203125 810.214376155 173.203125 834.43359375 c 0,0,1
173.203125 129.43359375 m 128,-1,18
 173.203125 153.653056162 173.203125 153.653056162 181.495397728 173.728995966 c 128,-1,19
 189.787670456 193.80493577 189.787670456 193.80493577 206.809726718 210.826992032 c 0,20,21
 240.473221005 244.49048632 240.473221005 244.49048632 288.704364721 244.932973877 c 0,22,23
 337.934052135 244.489463179 337.934052135 244.489463179 371.596523282 210.826992032 c 128,-1,24
 405.203125 177.220390314 405.203125 177.220390314 405.203125 129.43359375 c 128,-1,25
 405.203125 81.6467971856 405.203125 81.6467971856 371.596523282 48.0401954678 c 0,26,27
 354.599520285 31.0431924707 354.599520285 31.0431924707 334.32309227 22.600376345 c 128,-1,28
 314.046664255 14.1575602192 314.046664255 14.1575602192 289.701885279 13.9342136231 c 0,29,30
 264.835936796 14.158231177 264.835936796 14.158231177 244.307965602 22.6140794772 c 128,-1,31
 223.779994408 31.0699277773 223.779994408 31.0699277773 206.809726718 48.0401954678 c 128,-1,32
 189.787451421 65.0624707646 189.787451421 65.0624707646 181.495288211 85.1384234598 c 128,-1,17
 173.203125 105.214376155 173.203125 105.214376155 173.203125 129.43359375 c 128,-1,18
EndSplineSet
EndChar

StartChar: afii57388
Encoding: 1548 1548 5
Width: 627
VWidth: 2398
GlyphClass: 2
Flags: W
LayerCount: 2
Fore
SplineSet
322.662401576 13.9335955676 m 0,0,1
 262.283622104 13.9645184667 262.283622104 13.9645184667 227.86137752 40.6374970642 c 128,-1,2
 193.439132936 67.3104756617 193.439132936 67.3104756617 181.267529415 123.059330557 c 0,3,4
 175.393769741 148.336732751 175.393769741 148.336732751 177.9190164 186.488608167 c 128,-1,5
 180.444263059 224.640483582 180.444263059 224.640483582 191.608989148 272.791211051 c 0,6,7
 230.63989065 443.961229587 230.63989065 443.961229587 412.071756322 622.104511011 c 1,8,-1
 452.946919661 592.201429528 l 1,9,10
 376.228462125 509.266019785 376.228462125 509.266019785 334.743983829 430.123365229 c 128,-1,11
 293.259505533 350.980710673 293.259505533 350.980710673 287.406523772 274.923381085 c 2,12,-1
 286.145995107 258.543278087 l 1,13,-1
 302.572909061 258.773939484 l 2,14,15
 323.963711473 259.074302193 323.963711473 259.074302193 341.914203146 256.743737525 c 128,-1,16
 359.864694818 254.413172857 359.864694818 254.413172857 374.665676981 249.427079553 c 128,-1,17
 389.466659144 244.440986249 389.466659144 244.440986249 401.070475524 236.661142968 c 128,-1,18
 412.674291904 228.881299686 412.674291904 228.881299686 421.2933468 218.409462831 c 128,-1,19
 429.912401696 207.937625975 429.912401696 207.937625975 435.582662228 194.500792698 c 128,-1,20
 441.25292276 181.063959421 441.25292276 181.063959421 444.103169834 164.898667631 c 128,-1,21
 446.953416908 148.733375841 446.953416908 148.733375841 447.098014574 129.440265031 c 0,22,23
 447.764918134 32.9579412264 447.764918134 32.9579412264 364.384898108 17.3972807924 c 0,24,25
 345.216759088 14.0242488557 345.216759088 14.0242488557 322.662401576 13.9335955676 c 0,0,1
EndSplineSet
EndChar

StartChar: uni0615
Encoding: 1557 1557 6
Width: 11
VWidth: 2553
GlyphClass: 4
Flags: W
AnchorPoint: "Anchor-10" 648 1490.29 mark 0
AnchorPoint: "Anchor-9" 648 1490.29 mark 0
AnchorPoint: "Anchor-1" 648 2306.6 basemark 0
AnchorPoint: "Anchor-1" 648 1490.29 mark 0
LayerCount: 2
Fore
SplineSet
791 1869.37722657 m 0,0,1
 716.466917586 1875.04050543 716.466917586 1875.04050543 570 1728 c 6,2,-1
 530.350585938 1688.1953125 l 1,3,-1
 653.0234375 1688.1953125 l 2,4,5
 843 1688 843 1688 849 1778 c 0,6,7
 855 1864 855 1864 791 1869.37722657 c 0,0,1
930.134765625 1836.81933594 m 0,8,9
 951.033502215 1612.640625 951.033502215 1612.640625 631.908203125 1612.640625 c 2,10,-1
 347.12109375 1612.640625 l 1,11,-1
 347.12109375 1688.1953125 l 1,12,-1
 448.844726562 1688.1953125 l 1,13,-1
 448.844726562 2189.28320312 l 1,14,-1
 525.655273438 2189.28320312 l 1,15,-1
 526 1784 l 1,16,-1
 560.297851562 1819.453125 l 2,17,18
 690 1954 690 1954 784 1954.69824219 c 0,19,20
 919 1956 919 1956 930.134765625 1836.81933594 c 0,8,9
EndSplineSet
EndChar

StartChar: uni061B
Encoding: 1563 1563 7
Width: 627
VWidth: 2398
GlyphClass: 2
Flags: W
LayerCount: 2
Fore
SplineSet
322.744432826 457.862306506 m 0,0,1
 262.365653354 457.893229405 262.365653354 457.893229405 227.94340877 484.566208002 c 128,-1,2
 193.521164186 511.239186599 193.521164186 511.239186599 181.349560665 566.988041494 c 0,3,4
 169.461040068 620.847464757 169.461040068 620.847464757 191.691020398 716.719921989 c 0,5,6
 230.7219219 887.889940525 230.7219219 887.889940525 412.153787571 1066.03322195 c 1,7,-1
 453.028950911 1036.13014046 l 1,8,9
 376.310493375 953.19473072 376.310493375 953.19473072 334.826015079 874.052076165 c 128,-1,10
 293.341536783 794.909421611 293.341536783 794.909421611 287.488555022 718.852092022 c 2,11,-1
 286.228026357 702.471989024 l 1,12,-1
 302.654940311 702.702650421 l 2,13,14
 377.043811829 703.747194827 377.043811829 703.747194827 411.858988916 672.306885537 c 128,-1,15
 446.674166003 640.866576247 446.674166003 640.866576247 447.180045824 573.368975969 c 0,16,17
 447.591962716 513.776103375 447.591962716 513.776103375 417.77032432 485.834631886 c 128,-1,18
 387.948685924 457.893160396 387.948685924 457.893160396 322.744432826 457.862306506 c 0,0,1
199.907226562 129.43359375 m 128,-1,20
 199.907226562 153.653056162 199.907226562 153.653056162 208.19949929 173.728995966 c 128,-1,21
 216.491772018 193.80493577 216.491772018 193.80493577 233.51382828 210.826992032 c 0,22,23
 267.177322567 244.49048632 267.177322567 244.49048632 315.408466283 244.932973877 c 0,24,25
 364.638153697 244.489463179 364.638153697 244.489463179 398.300624844 210.826992032 c 128,-1,26
 431.907226562 177.220390314 431.907226562 177.220390314 431.907226562 129.43359375 c 128,-1,27
 431.907226562 81.6467971856 431.907226562 81.6467971856 398.300624844 48.0401954678 c 0,28,29
 386.956426369 36.6959969925 386.956426369 36.6959969925 374.192059375 29.1842293888 c 128,-1,30
 361.427692381 21.6724617851 361.427692381 21.6724617851 347.040146174 17.8778634524 c 128,-1,31
 332.652599967 14.0832651197 332.652599967 14.0832651197 316.405986841 13.9342136231 c 0,32,33
 267.176299427 14.3777243206 267.176299427 14.3777243206 233.51382828 48.0401954678 c 0,34,35
 216.491552983 65.0624707646 216.491552983 65.0624707646 208.199389773 85.1384234598 c 128,-1,19
 199.907226562 105.214376155 199.907226562 105.214376155 199.907226562 129.43359375 c 128,-1,20
EndSplineSet
EndChar

StartChar: uni061F
Encoding: 1567 1567 8
Width: 971
VWidth: 2398
GlyphClass: 2
Flags: W
LayerCount: 2
Fore
SplineSet
450.284179688 129.43359375 m 0,0,1
 450.284179688 153.653056162 450.284179688 153.653056162 458.576452415 173.728995966 c 128,-1,2
 466.868725143 193.80493577 466.868725143 193.80493577 483.890781405 210.826992032 c 0,3,4
 517.554275693 244.49048632 517.554275693 244.49048632 565.785419408 244.932973877 c 0,5,6
 615.015106822 244.489463179 615.015106822 244.489463179 648.67757797 210.826992032 c 128,-1,7
 682.284179688 177.220390314 682.284179688 177.220390314 682.284179688 129.43359375 c 128,-1,8
 682.284179688 81.6467971856 682.284179688 81.6467971856 648.67757797 48.0401954678 c 0,9,10
 641.870155555 41.2327730532 641.870155555 41.2327730532 634.569109346 35.8166293059 c 128,-1,11
 627.268063137 30.4004855585 627.268063137 30.4004855585 619.409025339 26.3301313582 c 128,-1,12
 611.549987541 22.2597771579 611.549987541 22.2597771579 603.09913397 19.538976183 c 128,-1,13
 594.648280399 16.8181752081 594.648280399 16.8181752081 585.589836172 15.4209120853 c 128,-1,14
 576.531391946 14.0236489624 576.531391946 14.0236489624 566.782939967 13.9342136231 c 0,15,16
 541.916991484 14.158231177 541.916991484 14.158231177 521.38902029 22.6140794772 c 128,-1,17
 500.861049096 31.0699277773 500.861049096 31.0699277773 483.890781405 48.0401954678 c 0,18,19
 450.284179688 81.6467971856 450.284179688 81.6467971856 450.284179688 129.43359375 c 0,0,1
482.807958155 446.693359375 m 1,20,21
 472.715955322 561.093953835 472.715955322 561.093953835 339.870671988 642.769202107 c 0,22,23
 226.542836909 712.622134936 226.542836909 712.622134936 171.809275262 799.045775193 c 128,-1,24
 117.075713614 885.469415449 117.075713614 885.469415449 118.997637196 989.733769754 c 0,25,26
 121.879487216 1152.07798757 121.879487216 1152.07798757 239.72502142 1254.95628832 c 0,27,28
 291.211047155 1300.00491852 291.211047155 1300.00491852 355.819679839 1322.61709915 c 128,-1,29
 420.428312523 1345.22927979 420.428312523 1345.22927979 499.028789956 1345.44534013 c 0,30,31
 567.60431983 1345.57695947 567.60431983 1345.57695947 623.218465921 1328.70136708 c 128,-1,32
 678.832612013 1311.8257747 678.832612013 1311.8257747 721.957679309 1277.68620378 c 128,-1,33
 765.082746605 1243.54663286 765.082746605 1243.54663286 795.808564958 1192.27468928 c 128,-1,34
 826.534383311 1141.00274571 826.534383311 1141.00274571 845.352821614 1072.09040492 c 1,35,-1
 730.268621908 1016.63503514 l 1,36,37
 664.024758908 1183.02553672 664.024758908 1183.02553672 503.917531697 1181.69801549 c 0,38,39
 368.290711812 1180.9523433 368.290711812 1180.9523433 309.993416863 1079.47186691 c 0,40,41
 295.453645861 1054.16189516 295.453645861 1054.16189516 288.928636795 1026.97014158 c 128,-1,42
 282.403627729 999.778387987 282.403627729 999.778387987 284.026881425 971.100906022 c 0,43,44
 285.721285628 944.414039826 285.721285628 944.414039826 292.28188007 919.55105244 c 128,-1,45
 298.842474511 894.688065054 298.842474511 894.688065054 310.141656162 871.911724775 c 128,-1,46
 321.440837812 849.135384497 321.440837812 849.135384497 337.443575588 828.317172611 c 128,-1,47
 353.446313364 807.498960726 353.446313364 807.498960726 374.018587357 788.802816796 c 128,-1,48
 394.590861349 770.106672867 394.590861349 770.106672867 419.704057355 753.502906913 c 0,49,50
 529.582137714 680.562564206 529.582137714 680.562564206 587.689289094 603.527663416 c 128,-1,51
 645.796440474 526.492762626 645.796440474 526.492762626 653.520672976 446.693359375 c 1,52,-1
 482.807958155 446.693359375 l 1,20,21
EndSplineSet
EndChar

StartChar: uni0621
Encoding: 1569 1569 9
Width: 807
VWidth: 2553
GlyphClass: 2
Flags: W
AnchorPoint: "Anchor-7" 470.143 -66.166 basechar 0
AnchorPoint: "Anchor-10" 322.188 1091.55 basechar 0
LayerCount: 2
Fore
SplineSet
444.829508645 685.458234761 m 0,0,1
 397.369764434 685.216238001 397.369764434 685.216238001 358.716214962 671.654743482 c 128,-1,2
 320.062665489 658.093248963 320.062665489 658.093248963 290.725278912 630.929002133 c 0,3,4
 241.973472421 584.393186846 241.973472421 584.393186846 242.300819608 506.033922611 c 0,5,6
 241.973536837 361.315431879 241.973536837 361.315431879 422.026583052 315.980193016 c 0,7,8
 457.128933144 306.995343861 457.128933144 306.995343861 497.701958692 307.097669214 c 0,9,10
 568.918506118 307.004038382 568.918506118 307.004038382 659.035044465 350.883164638 c 1,11,-1
 696.97105902 223.042232276 l 1,12,-1
 175.143703935 23.181593161 l 1,13,-1
 126.029344408 138.691625319 l 1,14,-1
 324.126457934 208.537145778 l 1,15,-1
 370.403119287 224.853473864 l 1,16,-1
 322.913200606 237.200925904 l 2,17,18
 213.185154544 265.730386971 213.185154544 265.730386971 159.774147637 334.542581192 c 128,-1,19
 106.363140729 403.354775412 106.363140729 403.354775412 106.699196416 515.67528695 c 0,20,21
 106.985567535 681.623631766 106.985567535 681.623631766 239.257564252 763.284277282 c 0,22,23
 320.341010071 814.021730257 320.341010071 814.021730257 436.369361541 814.607565542 c 0,24,25
 516.991434644 814.960428104 516.991434644 814.960428104 582.30078125 786.096050815 c 1,26,-1
 582.30078125 664.605666715 l 1,27,28
 548.346835242 674.820166697 548.346835242 674.820166697 513.963704081 680.036085106 c 128,-1,29
 479.58057292 685.252003515 479.58057292 685.252003515 444.829508645 685.458234761 c 0,0,1
EndSplineSet
EndChar

StartChar: uni0627
Encoding: 1575 1575 15
Width: 481
VWidth: 2553
GlyphClass: 2
Flags: W
AnchorPoint: "Anchor-10" 239.338 1495.41 basechar 0
AnchorPoint: "Anchor-7" 243.805 -254.859 basechar 0
LayerCount: 2
Fore
SplineSet
177.299804688 1352.72753906 m 1,0,-1
 317.393554688 1352.72753906 l 1,1,-1
 317.393554688 15.6943359375 l 1,2,-1
 177.299804688 15.6943359375 l 1,3,-1
 177.299804688 1352.72753906 l 1,0,-1
EndSplineSet
Substitution2: "'fina' Terminal Forms in Arabic lookup 9 subtable" uniFE8E
EndChar

StartChar: uni062D
Encoding: 1581 1581 21
Width: 1319
VWidth: 2553
GlyphClass: 2
Flags: W
AnchorPoint: "Anchor-7" 471.334 -833.653 basechar 0
AnchorPoint: "Anchor-10" 552.649 1171.29 basechar 0
LayerCount: 2
Fore
SplineSet
1075.42236143 320.238210894 m 0,0,1
 671.077433741 259.268644975 671.077433741 259.268644975 466.226267958 135.784925907 c 128,-1,2
 261.375102175 12.3012068387 261.375102175 12.3012068387 260.687687803 -177.700330317 c 0,3,4
 259.80362627 -354.368362917 259.80362627 -354.368362917 397.734124865 -442.353068531 c 128,-1,5
 535.664623461 -530.337774145 535.664623461 -530.337774145 804.484788673 -530.172848739 c 2,6,-1
 1203.33007812 -529.928150871 l 1,7,-1
 1203.33007812 -680.443138904 l 1,8,-1
 792.470602281 -679.582047916 l 2,9,10
 599.604971894 -679.294548033 599.604971894 -679.294548033 464.322832616 -641.318635659 c 128,-1,11
 329.040693338 -603.342723285 329.040693338 -603.342723285 251.463772214 -529.033477191 c 0,12,13
 112.091415507 -394.7121307 112.091415507 -394.7121307 115.108440356 -183.82076713 c 0,14,15
 120.853167652 330.763751807 120.853167652 330.763751807 979.324929302 439.649493531 c 2,16,-1
 992.722653271 441.348816884 l 1,17,-1
 992.434075127 454.850795629 l 2,18,19
 991.791040374 484.937071175 991.791040374 484.937071175 948.316403815 505.078989948 c 2,20,-1
 730.32613731 606.074476164 l 2,21,22
 644.353085896 645.980746726 644.353085896 645.980746726 568.990647318 646.419179702 c 0,23,24
 485.453420495 645.970420386 485.453420495 645.970420386 419.961738119 596.431840126 c 2,25,-1
 275.006813076 486.786448106 l 1,26,-1
 177.172467116 596.693833878 l 1,27,-1
 310.311973309 701.700695801 l 2,28,29
 437.224404874 802.009705104 437.224404874 802.009705104 560.796076405 802.236378525 c 0,30,31
 582.622647834 802.179797266 582.622647834 802.179797266 605.593798456 799.040553575 c 128,-1,32
 628.564949078 795.901309883 628.564949078 795.901309883 652.782085759 789.651796369 c 128,-1,33
 676.999222441 783.402282855 676.999222441 783.402282855 702.491577117 773.956607661 c 128,-1,34
 727.983931794 764.510932467 727.983931794 764.510932467 754.591262538 751.911822582 c 2,35,-1
 1075.55007993 599.931400067 l 2,36,37
 1139.32593194 569.49455371 1139.32593194 569.49455371 1169.7381674 535.922408392 c 128,-1,38
 1200.15040286 502.350263074 1200.15040286 502.350263074 1200.26367392 466.458021166 c 2,39,-1
 1200.19657396 337.845959855 l 1,40,41
 1128.75654221 330.852603688 1128.75654221 330.852603688 1075.42236143 320.238210894 c 0,0,1
EndSplineSet
Substitution2: "'fina' Terminal Forms in Arabic lookup 9 subtable" uniFEA2
Substitution2: "'medi' Medial Forms in Arabic lookup 11 subtable" uniFEA4
Substitution2: "'init' Initial Forms in Arabic lookup 13 subtable" uniFEA3
EndChar

StartChar: uni062F
Encoding: 1583 1583 23
Width: 1011
VWidth: 2553
GlyphClass: 2
Flags: W
AnchorPoint: "Anchor-10" 403.659 1300.16 basechar 0
AnchorPoint: "Anchor-7" 428.382 -242.53 basechar 0
LayerCount: 2
Fore
SplineSet
467.978515625 15 m 2,0,-1
 116.899414062 15 l 1,1,-1
 116.899414062 169 l 1,2,-1
 468.911132812 169 l 2,3,4
 495.064817377 169 495.064817377 169 518.67160755 170.18319233 c 0,5,6
 751.127632153 181.834085284 751.127632153 181.834085284 744.70360813 309.774815766 c 0,7,8
 743.664625819 329.862080467 743.664625819 329.862080467 736.400847086 352.044286297 c 128,-1,9
 729.137068353 374.226492127 729.137068353 374.226492127 715.687483202 398.500519415 c 128,-1,10
 702.237898052 422.774546703 702.237898052 422.774546703 683.321274753 448.817656175 c 128,-1,11
 664.404651454 474.860765647 664.404651454 474.860765647 639.341534344 503.816801858 c 2,12,-1
 373.158049317 811.343548428 l 1,13,-1
 476.46978688 926.899458556 l 1,14,-1
 765.621454627 590.226121282 l 2,15,16
 895.973061457 438.473504375 895.973061457 438.473504375 895.288227007 297.065054234 c 0,17,18
 894.676380859 155.988825758 894.676380859 155.988825758 789.722799278 85.4944128792 c 128,-1,19
 684.769217697 15 684.769217697 15 467.978515625 15 c 2,0,-1
EndSplineSet
Substitution2: "'fina' Terminal Forms in Arabic lookup 9 subtable" uniFEAA
EndChar

StartChar: uni0631
Encoding: 1585 1585 25
Width: 755
VWidth: 2553
GlyphClass: 2
Flags: W
AnchorPoint: "Anchor-7" 297.433 -667.366 basechar 0
AnchorPoint: "Anchor-10" 450.527 955.269 basechar 0
LayerCount: 2
Fore
SplineSet
124.189880325 -285.440426141 m 2,0,1
 215.311348153 -285.503087272 215.311348153 -285.503087272 284.709688038 -264.793302875 c 128,-1,2
 354.108027922 -244.083518479 354.108027922 -244.083518479 400.919011629 -203.069257487 c 128,-1,3
 447.729995336 -162.054996495 447.729995336 -162.054996495 471.556333813 -100.400302165 c 128,-1,4
 495.382672291 -38.7456078352 495.382672291 -38.7456078352 495.3828125 42.5312241238 c 2,5,-1
 495.383763336 593.713962777 l 1,6,-1
 647.180664062 594.597052839 l 1,7,-1
 647.180665069 45.0318637713 l 2,8,9
 647.092344058 -195.993312061 647.092344058 -195.993312061 518.168665778 -315.463245483 c 128,-1,10
 389.244987497 -434.933178906 389.244987497 -434.933178906 126.351150955 -436.412346799 c 2,11,-1
 36.9494620669 -436.915363947 l 1,12,-1
 36.9519063232 -285.380435558 l 1,13,-1
 124.189880325 -285.440426141 l 2,0,1
EndSplineSet
PairPos2: "'kern' Horizontal Kerning lookup 15-1" uniFEFB dx=-100 dy=0 dh=-100 dv=0 dx=0 dy=0 dh=0 dv=0
PairPos2: "'kern' Horizontal Kerning lookup 15-1" uniFEDF dx=-100 dy=0 dh=-100 dv=0 dx=0 dy=0 dh=0 dv=0
PairPos2: "'kern' Horizontal Kerning lookup 15-1" uni062F dx=-100 dy=0 dh=-100 dv=0 dx=0 dy=0 dh=0 dv=0
PairPos2: "'kern' Horizontal Kerning lookup 15-2" uniFB90 dx=-142 dy=0 dh=-142 dv=0 dx=0 dy=0 dh=0 dv=0
PairPos2: "'kern' Horizontal Kerning lookup 15-2" uniFB8E dx=-142 dy=0 dh=-142 dv=0 dx=0 dy=0 dh=0 dv=0
PairPos2: "'kern' Horizontal Kerning lookup 15-2" uni06A9 dx=-142 dy=0 dh=-142 dv=0 dx=0 dy=0 dh=0 dv=0
PairPos2: "'kern' Horizontal Kerning lookup 15-2" uniFEEB dx=-100 dy=0 dh=-100 dv=0 dx=0 dy=0 dh=0 dv=0
PairPos2: "'kern' Horizontal Kerning lookup 15-2" uni0647 dx=-100 dy=0 dh=-100 dv=0 dx=0 dy=0 dh=0 dv=0
PairPos2: "'kern' Horizontal Kerning lookup 15-2" uniFEE7 dx=-100 dy=0 dh=-100 dv=0 dx=0 dy=0 dh=0 dv=0
PairPos2: "'kern' Horizontal Kerning lookup 15-2" uniFEE3 dx=-100 dy=0 dh=-100 dv=0 dx=0 dy=0 dh=0 dv=0
PairPos2: "'kern' Horizontal Kerning lookup 15-2" uni0645 dx=-100 dy=0 dh=-100 dv=0 dx=0 dy=0 dh=0 dv=0
PairPos2: "'kern' Horizontal Kerning lookup 15-2" uniFEDB dx=-100 dy=0 dh=-100 dv=0 dx=0 dy=0 dh=0 dv=0
PairPos2: "'kern' Horizontal Kerning lookup 15-2" uni0643 dx=-100 dy=0 dh=-100 dv=0 dx=0 dy=0 dh=0 dv=0
PairPos2: "'kern' Horizontal Kerning lookup 15-2" uniFED7 dx=-100 dy=0 dh=-100 dv=0 dx=0 dy=0 dh=0 dv=0
PairPos2: "'kern' Horizontal Kerning lookup 15-2" uniFED3 dx=-100 dy=0 dh=-100 dv=0 dx=0 dy=0 dh=0 dv=0
PairPos2: "'kern' Horizontal Kerning lookup 15-2" uni0641 dx=-100 dy=0 dh=-100 dv=0 dx=0 dy=0 dh=0 dv=0
PairPos2: "'kern' Horizontal Kerning lookup 15-2" uniFECF dx=-100 dy=0 dh=-100 dv=0 dx=0 dy=0 dh=0 dv=0
PairPos2: "'kern' Horizontal Kerning lookup 15-2" uniFECB dx=-100 dy=0 dh=-100 dv=0 dx=0 dy=0 dh=0 dv=0
PairPos2: "'kern' Horizontal Kerning lookup 15-2" uniFEC7 dx=-100 dy=0 dh=-100 dv=0 dx=0 dy=0 dh=0 dv=0
PairPos2: "'kern' Horizontal Kerning lookup 15-2" uni0638 dx=-100 dy=0 dh=-100 dv=0 dx=0 dy=0 dh=0 dv=0
PairPos2: "'kern' Horizontal Kerning lookup 15-2" uniFEC3 dx=-100 dy=0 dh=-100 dv=0 dx=0 dy=0 dh=0 dv=0
PairPos2: "'kern' Horizontal Kerning lookup 15-2" uni0637 dx=-100 dy=0 dh=-100 dv=0 dx=0 dy=0 dh=0 dv=0
PairPos2: "'kern' Horizontal Kerning lookup 15-2" uniFEBF dx=-100 dy=0 dh=-100 dv=0 dx=0 dy=0 dh=0 dv=0
PairPos2: "'kern' Horizontal Kerning lookup 15-2" uni0636 dx=-100 dy=0 dh=-100 dv=0 dx=0 dy=0 dh=0 dv=0
PairPos2: "'kern' Horizontal Kerning lookup 15-2" uniFEBB dx=-100 dy=0 dh=-100 dv=0 dx=0 dy=0 dh=0 dv=0
PairPos2: "'kern' Horizontal Kerning lookup 15-2" uni0635 dx=-100 dy=0 dh=-100 dv=0 dx=0 dy=0 dh=0 dv=0
PairPos2: "'kern' Horizontal Kerning lookup 15-2" uniFEB7 dx=-100 dy=0 dh=-100 dv=0 dx=0 dy=0 dh=0 dv=0
PairPos2: "'kern' Horizontal Kerning lookup 15-2" uni0634 dx=-100 dy=0 dh=-100 dv=0 dx=0 dy=0 dh=0 dv=0
PairPos2: "'kern' Horizontal Kerning lookup 15-2" uniFEB3 dx=-100 dy=0 dh=-100 dv=0 dx=0 dy=0 dh=0 dv=0
PairPos2: "'kern' Horizontal Kerning lookup 15-2" uni0633 dx=-100 dy=0 dh=-100 dv=0 dx=0 dy=0 dh=0 dv=0
PairPos2: "'kern' Horizontal Kerning lookup 15-2" uniFEA7 dx=-100 dy=0 dh=-100 dv=0 dx=0 dy=0 dh=0 dv=0
PairPos2: "'kern' Horizontal Kerning lookup 15-2" uniFEA3 dx=-100 dy=0 dh=-100 dv=0 dx=0 dy=0 dh=0 dv=0
PairPos2: "'kern' Horizontal Kerning lookup 15-2" uniFE9F dx=-100 dy=0 dh=-100 dv=0 dx=0 dy=0 dh=0 dv=0
PairPos2: "'kern' Horizontal Kerning lookup 15-2" uniFE9B dx=-100 dy=0 dh=-100 dv=0 dx=0 dy=0 dh=0 dv=0
PairPos2: "'kern' Horizontal Kerning lookup 15-2" uni062B dx=-100 dy=0 dh=-100 dv=0 dx=0 dy=0 dh=0 dv=0
PairPos2: "'kern' Horizontal Kerning lookup 15-2" uniFE97 dx=-100 dy=0 dh=-100 dv=0 dx=0 dy=0 dh=0 dv=0
PairPos2: "'kern' Horizontal Kerning lookup 15-2" uni062A dx=-100 dy=0 dh=-100 dv=0 dx=0 dy=0 dh=0 dv=0
PairPos2: "'kern' Horizontal Kerning lookup 15-2" uni0629 dx=-100 dy=0 dh=-100 dv=0 dx=0 dy=0 dh=0 dv=0
PairPos2: "'kern' Horizontal Kerning lookup 15-2" uniFE91 dx=-47 dy=0 dh=-47 dv=0 dx=0 dy=0 dh=0 dv=0
PairPos2: "'kern' Horizontal Kerning lookup 15-2" uni0628 dx=-100 dy=0 dh=-100 dv=0 dx=0 dy=0 dh=0 dv=0
PairPos2: "'kern' Horizontal Kerning lookup 15-2" uni0627 dx=-100 dy=0 dh=-100 dv=0 dx=0 dy=0 dh=0 dv=0
PairPos2: "'kern' Horizontal Kerning lookup 15-2" uni0622 dx=-100 dy=0 dh=-100 dv=0 dx=0 dy=0 dh=0 dv=0
PairPos2: "'kern' Horizontal Kerning lookup 15-2" uni0621 dx=-100 dy=0 dh=-100 dv=0 dx=0 dy=0 dh=0 dv=0
PairPos2: "'kern' Horizontal Kerning lookup 15-2" uniFB94 dx=-142 dy=0 dh=-142 dv=0 dx=0 dy=0 dh=0 dv=0
PairPos2: "'kern' Horizontal Kerning lookup 15-2" uniFB92 dx=-142 dy=0 dh=-142 dv=0 dx=0 dy=0 dh=0 dv=0
PairPos2: "'kern' Horizontal Kerning lookup 15-2" afii57509 dx=-142 dy=0 dh=-142 dv=0 dx=0 dy=0 dh=0 dv=0
PairPos2: "'kern' Horizontal Kerning lookup 15-2" uniFB7C dx=-100 dy=0 dh=-100 dv=0 dx=0 dy=0 dh=0 dv=0
PairPos2: "'kern' Horizontal Kerning lookup 15-2" afii57506 dx=-100 dy=0 dh=-100 dv=0 dx=0 dy=0 dh=0 dv=0
PairPos2: "'kern' Horizontal Kerning lookup 15-2" afii57440 dx=-94 dy=0 dh=-94 dv=0 dx=0 dy=0 dh=0 dv=0
Substitution2: "'fina' Terminal Forms in Arabic lookup 9 subtable" uniFEAE
EndChar

StartChar: uni0633
Encoding: 1587 1587 27
Width: 2484
VWidth: 2553
GlyphClass: 2
Flags: W
AnchorPoint: "Anchor-7" 691 -665.5 basechar 0
AnchorPoint: "Anchor-10" 1778.4 1065.57 basechar 0
LayerCount: 2
Fore
SplineSet
1533.48457352 13.9331004047 m 0,0,1
 1389 15 1389 15 1314.57128906 119 c 5,2,-1
 1314.57128906 82.068359375 l 1,3,-1
 1314.57129447 53.8505438179 l 2,4,5
 1315 -193 1315 -193 1174.77405492 -314.234504448 c 0,6,7
 1035.06838094 -435.940429292 1035.06838094 -435.940429292 748.819335938 -435.940429688 c 2,8,-1
 694.10005592 -435.940429764 l 2,9,10
 403 -436 403 -436 259.447721522 -302.097629155 c 0,11,12
 116.217015819 -168.202870471 116.217015819 -168.202870471 116.121092814 103.281667103 c 2,13,-1
 116.005299879 431.002754217 l 1,14,-1
 266.877929688 431.030449375 l 1,15,-1
 266.877930502 104.444275955 l 2,16,17
 267 -86 267 -86 375.656671649 -183.554352198 c 0,18,19
 483.599375304 -280.639672016 483.599375304 -280.639672016 696.272460938 -280.639648438 c 2,20,-1
 747.37270532 -280.639642773 l 2,21,22
 959 -281 959 -281 1068.10692309 -198.156850727 c 0,23,24
 1177.25736137 -114.803464446 1177.25736137 -114.803464446 1177.16210683 48.5663630979 c 2,25,-1
 1176.82319708 629.826073594 l 1,26,-1
 1327.26757812 629.903419123 l 1,27,-1
 1327.2675897 399.313564529 l 2,28,29
 1327 287 1327 287 1379.32041305 227.721420146 c 0,30,31
 1432 168 1432 168 1532.89554296 167.933839726 c 0,32,33
 1621 167 1621 167 1666.08899697 222.937812037 c 0,34,35
 1711.3224345 278.395314021 1711.3224345 278.395314021 1711.61322399 383.633357455 c 2,36,-1
 1712.29845362 631.62109375 l 1,37,-1
 1869.53456139 631.62109375 l 1,38,-1
 1870.80983177 385.53057694 l 2,39,40
 1871 280 1871 280 1918.18813383 224.385040322 c 0,41,42
 1965 169 1965 169 2055.36534028 167.93388606 c 0,43,44
 2137 167 2137 167 2178.32280814 220.069636613 c 0,45,46
 2219.94824219 272.934267169 2219.94824219 272.934267169 2219.94824219 371.92578125 c 2,47,-1
 2219.94824219 674.295898438 l 1,48,-1
 2368.70605469 674.295898438 l 1,49,-1
 2368.70605955 363.950809456 l 2,50,51
 2369 186 2369 186 2291.60433813 100.111537808 c 0,52,53
 2214 14 2214 14 2056.42779685 13.9335929348 c 0,54,55
 1845 14 1845 14 1797.96546457 194.423671938 c 1,56,57
 1758 12 1758 12 1533.48457352 13.9331004047 c 0,0,1
EndSplineSet
Substitution2: "'fina' Terminal Forms in Arabic lookup 9 subtable" uniFEB2
Substitution2: "'medi' Medial Forms in Arabic lookup 11 subtable" uniFEB4
Substitution2: "'init' Initial Forms in Arabic lookup 13 subtable" uniFEB3
EndChar

StartChar: uni0635
Encoding: 1589 1589 29
Width: 2515
VWidth: 2553
GlyphClass: 2
Flags: W
AnchorPoint: "Anchor-10" 2006.4 1269.57 basechar 0
AnchorPoint: "Anchor-7" 691 -665.5 basechar 0
LayerCount: 2
Fore
SplineSet
1327.26757812 419.294921875 m 2,0,1
 1327.26757812 224.33448905 1327.26757812 224.33448905 1434.22005544 196.484077049 c 2,2,-1
 1446.9422436 193.171220808 l 1,3,-1
 1451.89486512 205.349095349 l 2,4,5
 1679.09268021 764 1679.09268021 764 2017.5 764 c 0,6,7
 2216.51845268 764 2216.51845268 764 2319.06974235 627.814979735 c 0,8,9
 2358.98035094 575.446862959 2358.98035094 575.446862959 2379.13441046 508.52683102 c 0,10,11
 2399.28846998 441.606799082 2399.28846998 441.606799082 2399.56304603 359.340763563 c 0,12,13
 2400.93666531 198.358555814 2400.93666531 198.358555814 2270.9082987 98.8037202613 c 0,14,15
 2160.93605238 15 2160.93605238 15 1961.26464844 15 c 2,16,-1
 1621.32421875 15 l 2,17,18
 1392.96977113 15 1392.96977113 15 1342.00173121 90.4638407764 c 2,19,-1
 1314.57128906 131.077655278 l 1,20,-1
 1314.57128906 82.068359375 l 1,21,-1
 1314.57128906 53.86328125 l 2,22,23
 1314.57128906 -192.553383368 1314.57128906 -192.553383368 1174.56211584 -314.261561012 c 0,24,25
 1034.55294262 -435.969738655 1034.55294262 -435.969738655 748.819335938 -435.940429688 c 2,26,-1
 694.1015625 -435.940429688 l 2,27,28
 402.517686272 -435.940429688 402.517686272 -435.940429688 259.289730728 -302.070599372 c 0,29,30
 116.061775185 -168.200769056 116.061775185 -168.200769056 116.121092814 103.281667103 c 2,31,-1
 116.005299879 431.002754217 l 1,32,-1
 266.877929688 431.030449375 l 1,33,-1
 266.877929688 104.44921875 l 2,34,35
 266.877929688 -86.642602159 266.877929688 -86.642602159 375.599308152 -183.733280415 c 0,36,37
 484.320686617 -280.823958672 484.320686617 -280.823958672 696.272460938 -280.639648438 c 2,38,-1
 747.385742188 -280.639648438 l 2,39,40
 852.649667923 -280.639648438 852.649667923 -280.639648438 932.781327053 -260.049060482 c 0,41,42
 1012.91298618 -239.458472526 1012.91298618 -239.458472526 1067.29690244 -198.499021666 c 0,43,44
 1121.68081869 -157.539570805 1121.68081869 -157.539570805 1149.40028883 -95.5255077376 c 0,45,46
 1177.11975897 -33.5114446697 1177.11975897 -33.5114446697 1177.16210683 48.5663630979 c 2,47,-1
 1176.82319708 629.826073594 l 1,48,-1
 1327.26757812 629.903419123 l 1,49,-1
 1327.26757812 419.294921875 l 2,0,1
2239.20917531 427.048674253 m 0,50,51
 2234.56568327 446.789760082 2234.56568327 446.789760082 2228.00092129 464.458337136 c 0,52,53
 2221.43615931 482.126914189 2221.43615931 482.126914189 2213.00620338 497.5978036 c 0,54,55
 2204.57624745 513.06869301 2204.57624745 513.06869301 2194.29664562 526.420166047 c 0,56,57
 2184.0170438 539.771639084 2184.0170438 539.771639084 2171.915696 550.907515067 c 0,58,59
 2159.8143482 562.043391051 2159.8143482 562.043391051 2145.93685696 571.011009851 c 0,60,61
 2132.05936571 579.978628652 2132.05936571 579.978628652 2116.40357647 586.712740989 c 0,62,63
 2100.74778723 593.446853326 2100.74778723 593.446853326 2083.38935698 597.963867671 c 0,64,65
 2066.03092673 602.480882016 2066.03092673 602.480882016 2046.93764647 604.746480487 c 0,66,67
 2027.84436621 607.012078959 2027.84436621 607.012078959 2007.12006898 607.01367184 c 0,68,69
 1797.31465178 606.999338351 1797.31465178 606.999338351 1609.33304755 190.700480916 c 2,70,-1
 1599.77222311 169.52734375 l 1,71,-1
 1623.00390625 169.52734375 l 1,72,-1
 1981.30972548 169.527423729 l 2,73,74
 2134.05378373 170.026220219 2134.05378373 170.026220219 2196.94961271 225.774795912 c 0,75,76
 2221.5322105 247.563916677 2221.5322105 247.563916677 2233.76610525 278.704280199 c 0,77,78
 2246 309.844643721 2246 309.844643721 2246 349 c 0,79,80
 2246 358.247761469 2246 358.247761469 2245.73720707 366.860545393 c 0,81,82
 2245.47441414 375.473329316 2245.47441414 375.473329316 2244.93875445 383.581840909 c 0,83,84
 2244.40309476 391.690352502 2244.40309476 391.690352502 2243.59400381 399.188157681 c 0,85,86
 2242.78491287 406.685962859 2242.78491287 406.685962859 2241.68769021 413.669011752 c 0,87,88
 2240.59046755 420.652060644 2240.59046755 420.652060644 2239.20917531 427.048674253 c 0,50,51
EndSplineSet
Substitution2: "'fina' Terminal Forms in Arabic lookup 9 subtable" uniFEBA
Substitution2: "'medi' Medial Forms in Arabic lookup 11 subtable" uniFEBC
Substitution2: "'init' Initial Forms in Arabic lookup 13 subtable" uniFEBB
EndChar

StartChar: uni0637
Encoding: 1591 1591 31
Width: 1339
VWidth: 2553
GlyphClass: 2
Flags: W
AnchorPoint: "Anchor-7" 579.72 -236 basechar 0
AnchorPoint: "Anchor-10" 441.723 1526.59 basechar 0
LayerCount: 2
Fore
SplineSet
784.940429688 15 m 2
 116.770507812 15 l 1
 116.770507812 169.180325396 l 1
 252.980143245 169.000013143 l 1
 263.806615375 168.985681223 l 1
 267.230249471 179.25658351 l 2
 279.836865509 217.076431626 279.836865509 217.076431626 374.159720204 395.096346243 c 2
 375.905273438 398.390810121 l 1
 375.905273438 402.119140625 l 1
 375.905273438 1353.64355469 l 1
 516 1353.64355469 l 1
 516 632.859375 l 1
 516 596.967454954 l 1
 541.539342772 622.185938163 l 2
 685.157731923 764 685.157731923 764 842.17578125 764 c 0
 1038.58820089 764 1038.58820089 764 1142.79114485 627.755427959 c 0
 1222.03710843 524.845660803 1222.03710843 524.845660803 1223.23910134 359.311899923 c 0
 1224.92223112 198.358415812 1224.92223112 198.358415812 1094.56770122 98.7912211558 c 0
 984.924574044 15 984.924574044 15 784.940429688 15 c 2
830.796939745 607.013671914 m 0
 723.536920591 607.013671914 723.536920591 607.013671914 624.752379137 502.16876109 c 0
 525.967837684 397.323850265 525.967837684 397.323850265 433.000332517 190.68163065 c 2
 423.483103751 169.52734375 l 1
 446.6796875 169.52734375 l 1
 804.985062654 169.527422285 l 2
 956.639017675 170.018169126 956.639017675 170.018169126 1020.58443898 225.73862788 c 0
 1070.0301496 269.244926892 1070.0301496 269.244926892 1069.67602124 348.979274058 c 0
 1070.01209971 395.625346326 1070.01209971 395.625346326 1062.85970259 427.15592825 c 0
 1042.16393471 515.867523236 1042.16393471 515.867523236 983.269327533 561.440597575 c 0
 924.37472036 607.013671914 924.37472036 607.013671914 830.796939745 607.013671914 c 0
EndSplineSet
Substitution2: "'fina' Terminal Forms in Arabic lookup 9 subtable" uniFEC2
Substitution2: "'medi' Medial Forms in Arabic lookup 11 subtable" uniFEC4
Substitution2: "'init' Initial Forms in Arabic lookup 13 subtable" uniFEC3
EndChar

StartChar: uni0639
Encoding: 1593 1593 33
Width: 1249
VWidth: 2553
GlyphClass: 2
Flags: W
AnchorPoint: "Anchor-7" 471.334 -833.653 basechar 0
AnchorPoint: "Anchor-10" 711.349 1353.99 basechar 0
LayerCount: 2
Fore
SplineSet
115.107948139 -175.860211073 m 0,0,1
 119.853747447 168.290788414 119.853747447 168.290788414 502.298400139 301.536264478 c 2,2,-1
 526.683154854 310.03202518 l 1,3,-1
 507.222991637 327.005423778 l 2,4,5
 371.001036752 445.81992252 371.001036752 445.81992252 371.030985388 604.819106102 c 0,6,7
 371.963724187 761.848315594 371.963724187 761.848315594 486.340439358 878.827583129 c 0,8,9
 592.299378388 986.995250043 592.299378388 986.995250043 762.996082461 986.866214778 c 0,10,11
 938.01723419 986.991423769 938.01723419 986.991423769 1053.6633791 849.007424132 c 1,12,-1
 993.486527193 738.800488648 l 1,13,14
 892.538563462 828.985373938 892.538563462 828.985373938 767.241123552 828.451064606 c 0,15,16
 640.470378429 827.971631037 640.470378429 827.971631037 570.960393374 735.11870939 c 0,17,18
 529.05368812 679.058647081 529.05368812 679.058647081 528.263818229 605.824927795 c 0,19,20
 527.984256066 451.311955748 527.984256066 451.311955748 693.03901918 356.824907329 c 2,21,-1
 697.066700724 354.519225664 l 1,22,-1
 701.692734726 354.890972857 l 2,23,24
 735.692837687 357.623214524 735.692837687 357.623214524 773.616903081 359.446556801 c 128,-1,25
 811.540968476 361.269899078 811.540968476 361.269899078 853.451674655 362.18381703 c 128,-1,26
 895.362380833 363.097734982 895.362380833 363.097734982 941.158834041 363.096679691 c 2,27,-1
 1095.67871094 363.09311908 l 1,28,-1
 1095.67871094 207.69233865 l 1,29,-1
 924.986364133 207.591790677 l 2,30,31
 258.93145607 206.986308015 258.93145607 206.986308015 260.687612939 -177.833598547 c 0,32,33
 261.372978872 -354.448931858 261.372978872 -354.448931858 399.265128938 -442.409589264 c 128,-1,34
 537.157279004 -530.370246671 537.157279004 -530.370246671 804.486662114 -530.172847473 c 2,35,-1
 1133.33007812 -529.93002558 l 1,36,-1
 1133.33007812 -680.436941081 l 1,37,-1
 792.470602281 -679.582047916 l 2,38,39
 599.604971894 -679.294548033 599.604971894 -679.294548033 464.322832616 -641.318635659 c 128,-1,40
 329.040693338 -603.342723285 329.040693338 -603.342723285 251.463772214 -529.033477191 c 0,41,42
 112.088231378 -394.709061968 112.088231378 -394.709061968 115.107948139 -175.860211073 c 0,0,1
EndSplineSet
Substitution2: "'fina' Terminal Forms in Arabic lookup 9 subtable" uniFECA
Substitution2: "'medi' Medial Forms in Arabic lookup 11 subtable" uniFECC
Substitution2: "'init' Initial Forms in Arabic lookup 13 subtable" uniFECB
EndChar

StartChar: afii57440
Encoding: 1600 1600 35
Width: 250
VWidth: 2553
GlyphClass: 2
Flags: W
AnchorPoint: "Anchor-10" 125.758 1503.26 basechar 0
AnchorPoint: "Anchor-7" 129.758 -170.351 basechar 0
LayerCount: 2
Fore
SplineSet
254.445880603 169 m 1,0,1
 264.9765625 158.122738699 264.9765625 158.122738699 264.9765625 99 c 2,2,-1
 264.976563032 87.9960049717 l 2,3,4
 264.992912736 26.6083162216 264.992912736 26.6083162216 254.301059889 15 c 1,5,-1
 -5.0234375 15 l 2,6,7
 -36.3961230631 15 -36.3961230631 15 -50.7097802816 31.7910490901 c 128,-1,8
 -65.0234375 48.5820981801 -65.0234375 48.5820981801 -65.0234375 88 c 2,9,-1
 -65.0234380702 98.9958639707 l 2,10,11
 -65.0164117246 124.478077363 -65.0164117246 124.478077363 -58.547182337 139.891505003 c 128,-1,12
 -52.0779529495 155.304932643 -52.0779529495 155.304932643 -39.0941279913 162.152466321 c 128,-1,13
 -26.1103030331 169 -26.1103030331 169 -5.0234375 169 c 2,14,-1
 254.445880603 169 l 1,0,1
EndSplineSet
EndChar

StartChar: uni0643
Encoding: 1603 1603 38
Width: 1889
VWidth: 2553
GlyphClass: 2
Flags: W
AnchorPoint: "Anchor-7" 849.692 -230.794 basechar 0
AnchorPoint: "Anchor-10" 927.382 1479.15 basechar 0
LayerCount: 2
Fore
SplineSet
701.639167861 728.761264118 m 2,0,1
 767.260672729 720.491210938 767.260672729 720.491210938 832.82421875 720.491210938 c 0,2,3
 855.223489513 720.491210938 855.223489513 720.491210938 876.641288043 722.994863839 c 128,-1,4
 898.059086574 725.49851674 898.059086574 725.49851674 918.548970873 730.531391971 c 128,-1,5
 939.038855173 735.564267203 939.038855173 735.564267203 958.462316865 743.113607814 c 0,6,7
 1003.36961669 760.567583911 1003.36961669 760.567583911 1027.7145935 785.128033109 c 128,-1,8
 1052.05957031 809.688482307 1052.05957031 809.688482307 1052.05957031 841.939453125 c 0,9,10
 1052.05957031 875.50018468 1052.05957031 875.50018468 1024.64019109 895.556386886 c 128,-1,11
 997.220811875 915.612589092 997.220811875 915.612589092 948.519830492 923.317668874 c 0,12,13
 926.737245921 926.763972227 926.737245921 926.763972227 908.387358385 932.1356539 c 128,-1,14
 890.037470849 937.507335574 890.037470849 937.507335574 875.533662757 944.609445516 c 128,-1,15
 861.029854666 951.711555459 861.029854666 951.711555459 849.999007571 960.320401282 c 128,-1,16
 838.968160476 968.929247105 838.968160476 968.929247105 831.139637388 979.168535635 c 0,17,18
 805.697682119 1012.44360633 805.697682119 1012.44360633 798.88622258 1045.89160599 c 128,-1,19
 792.074763041 1079.33960565 792.074763041 1079.33960565 803.286196616 1113.9679549 c 0,20,21
 847.379908865 1252.56110486 847.379908865 1252.56110486 1101.55678879 1271.45139225 c 2,22,-1
 1114.71484375 1272.42907103 l 1,23,-1
 1114.71484375 1201.98744869 l 1,24,-1
 1103.45870621 1201.07171596 l 2,25,26
 873.592773438 1182.37419231 873.592773438 1182.37419231 873.592773438 1073.37695312 c 0,27,28
 873.592773438 1013.8442331 873.592773438 1013.8442331 937.938570993 993.141601241 c 0,29,30
 966.963473434 983.804278619 966.963473434 983.804278619 1019.59755515 976.06200208 c 0,31,32
 1066.21987477 969.204788689 1066.21987477 969.204788689 1096.46088993 939.91159748 c 0,33,34
 1110.99641192 925.831244786 1110.99641192 925.831244786 1118.30289346 906.377996139 c 128,-1,35
 1125.609375 886.924747493 1125.609375 886.924747493 1125.609375 860.932617188 c 0,36,37
 1125.609375 808.163671888 1125.609375 808.163671888 1104.61491695 774.808714568 c 0,38,39
 1077.96181203 732.463672367 1077.96181203 732.463672367 1039.83964705 703.550847781 c 128,-1,40
 1001.71748206 674.638023195 1001.71748206 674.638023195 951.079087075 658.764054576 c 128,-1,41
 900.440692086 642.890085956 900.440692086 642.890085956 837.486609115 641.008747107 c 128,-1,42
 774.532526144 639.127408258 774.532526144 639.127408258 698.215585255 650.84533753 c 2,43,-1
 687.857421875 652.464870662 l 1,44,-1
 687.857421875 730.497975713 l 1,45,-1
 701.639167861 728.761264118 l 2,0,1
537.549804688 169 m 2,46,-1
 1351.84667969 169 l 2,47,48
 1470.58872423 169 1470.58872423 169 1531.39481416 240.824677724 c 128,-1,49
 1592.20090408 312.649355448 1592.20090408 312.649355448 1592.41601562 450.396484375 c 2,50,-1
 1592.41601562 1352.18847656 l 1,51,-1
 1733.17382812 1352.18847656 l 1,52,-1
 1733.17382812 447.391601562 l 2,53,54
 1733.17382812 337.682201382 1733.17382812 337.682201382 1709.29009627 256.441437372 c 128,-1,55
 1685.40636442 175.200673361 1685.40636442 175.200673361 1637.13133072 121.527875929 c 128,-1,56
 1588.85629703 67.8550784969 1588.85629703 67.8550784969 1516.49198924 41.4275058108 c 128,-1,57
 1444.12768146 14.9999331246 1444.12768146 14.9999331246 1346.62988281 15 c 2,58,-1
 534.767578125 15 l 2,59,60
 322.780752389 15 322.780752389 15 218.948589153 121.086009648 c 128,-1,61
 115.116425918 227.172019297 115.116425918 227.172019297 115.227539062 443.977607937 c 2,62,-1
 115.226631375 641.66015625 l 1,63,-1
 263.984375 641.66015625 l 1,64,-1
 263.984375 444.541015625 l 2,65,66
 263.984375 376.918863543 263.984375 376.918863543 281.506815195 325.291703845 c 128,-1,67
 299.029255389 273.664544147 299.029255389 273.664544147 333.42267024 239.000921126 c 128,-1,68
 367.816085092 204.337298105 367.816085092 204.337298105 419.092187488 186.668649053 c 128,-1,69
 470.368289885 169 470.368289885 169 537.549804688 169 c 2,46,-1
EndSplineSet
Substitution2: "'fina' Terminal Forms in Arabic lookup 9 subtable" uniFEDA
Substitution2: "'medi' Medial Forms in Arabic lookup 11 subtable" uniFEDC
Substitution2: "'init' Initial Forms in Arabic lookup 13 subtable" uniFEDB
EndChar

StartChar: uni0644
Encoding: 1604 1604 39
Width: 1397
VWidth: 2553
GlyphClass: 2
Flags: W
AnchorPoint: "Anchor-10" 604.754 1191.62 basechar 0
AnchorPoint: "Anchor-7" 691 -665.5 basechar 0
LayerCount: 2
Fore
SplineSet
264.877929688 104.44921875 m 2,0,1
 264.877929688 -84.2044230648 264.877929688 -84.2044230648 368.529946032 -180.362646898 c 128,-1,2
 472.181962377 -276.52087073 472.181962377 -276.52087073 674.355892602 -276.528320302 c 2,3,-1
 727.342713048 -276.530260644 l 2,4,5
 850.600550402 -276.691248993 850.600550402 -276.691248993 934.161493437 -235.697972063 c 128,-1,6
 1017.72243647 -194.704695133 1017.72243647 -194.704695133 1060.04328401 -113.290241259 c 128,-1,7
 1102.36413154 -31.8757873849 1102.36413154 -31.8757873849 1102.36523438 88.4158781049 c 2,8,-1
 1102.3768156 1351.63671875 l 1,9,-1
 1241.28661471 1351.63671875 l 1,10,-1
 1240.25488454 83.9925518396 l 2,11,12
 1240.19239863 -46.1814096441 1240.19239863 -46.1814096441 1208.11966028 -142.909858832 c 128,-1,13
 1176.04692193 -239.638308021 1176.04692193 -239.638308021 1111.28516335 -303.921581408 c 128,-1,14
 1046.52340476 -368.204854796 1046.52340476 -368.204854796 949.057683323 -400.01746646 c 128,-1,15
 851.591961881 -431.830078125 851.591961881 -431.830078125 720.430664062 -431.830078125 c 2,16,-1
 674.182076669 -431.830078784 l 2,17,18
 392.844533015 -431.913481657 392.844533015 -431.913481657 254.53044931 -299.138047872 c 128,-1,19
 116.216365605 -166.362614087 116.216365605 -166.362614087 116.121092814 103.281667103 c 2,20,-1
 116.005299868 431.002785009 l 1,21,-1
 264.877929688 431.030418583 l 1,22,-1
 264.877929688 104.44921875 l 2,0,1
EndSplineSet
Substitution2: "'fina' Terminal Forms in Arabic lookup 9 subtable" uniFEDE
Substitution2: "'medi' Medial Forms in Arabic lookup 11 subtable" uniFEE0
Substitution2: "'init' Initial Forms in Arabic lookup 13 subtable" uniFEDF
EndChar

StartChar: uni0645
Encoding: 1605 1605 40
Width: 1310
VWidth: 2553
GlyphClass: 2
Flags: W
AnchorPoint: "Anchor-10" 675.565 1150.03 basechar 0
AnchorPoint: "Anchor-7" 722.389 -323.648 basechar 0
LayerCount: 2
Fore
SplineSet
842.857225453 584.490234375 m 2,0,-1
 685.830078125 584.490234375 l 1,1,-1
 670.830078125 584.490234375 l 1,2,-1
 670.830078125 569.490234375 l 1,3,-1
 670.830082323 370.104988369 l 2,4,5
 670.873904686 311.532370619 670.873904686 311.532370619 683.369112657 266.466976462 c 128,-1,6
 695.864320628 221.401582306 695.864320628 221.401582306 720.495190943 190.565677646 c 128,-1,7
 745.126061258 159.729772985 745.126061258 159.729772985 782.438798657 143.824864175 c 128,-1,8
 819.751536057 127.919955365 819.751536057 127.919955365 868.750216844 127.890628322 c 0,9,10
 957.953979603 127.949993255 957.953979603 127.949993255 1003.0221643 190.253403108 c 128,-1,11
 1048.09034899 252.556812961 1048.09034899 252.556812961 1048.08984375 370 c 2,12,-1
 1048.0898413 411.830839715 l 2,13,14
 1048.04133259 496.694723847 1048.04133259 496.694723847 995.206235065 540.464206605 c 128,-1,15
 942.371137543 584.233689364 942.371137543 584.233689364 842.857225453 584.490234375 c 2,0,-1
858.191177971 729.539062519 m 2,16,17
 1028.97175202 729.539062519 1028.97175202 729.539062519 1111.87064164 651.363686751 c 128,-1,18
 1194.76953125 573.188310984 1194.76953125 573.188310984 1194.76953125 413 c 2,19,-1
 1194.76953387 368.996995327 l 2,20,21
 1194.88200493 178.670231129 1194.88200493 178.670231129 1114.14366758 86.4708108078 c 128,-1,22
 1033.40533024 -5.72860951359 1033.40533024 -5.72860951359 868.760058612 -5.47559903752 c 0,23,24
 694.507446844 -5.24530382592 694.507446844 -5.24530382592 609.198309695 86.9177843735 c 128,-1,25
 523.889172546 179.080872573 523.889172546 179.080872573 523.889648438 368.30859375 c 2,26,-1
 523.889648438 553.943359375 l 1,27,-1
 523.889648438 570.486783525 l 1,28,-1
 507.425250249 568.871706167 l 2,29,30
 260.010742188 544.601546671 260.010742188 544.601546671 260.010742188 161.032226562 c 2,31,-1
 260.010742188 -481.416992188 l 1,32,-1
 115.94921875 -481.416992188 l 1,33,-1
 115.949213783 153.577636724 l 1,34,-1
 115.954081647 159.614286533 l 2,35,36
 115.484743946 447.636158238 115.484743946 447.636158238 231.705960675 588.574830013 c 128,-1,37
 347.927177405 729.513501788 347.927177405 729.513501788 583.256605291 729.525390644 c 2,38,-1
 858.191177971 729.539062519 l 2,16,17
EndSplineSet
Substitution2: "'init' Initial Forms in Arabic lookup 13 subtable" uniFEE3
Substitution2: "'medi' Medial Forms in Arabic lookup 11 subtable" uniFEE4
Substitution2: "'fina' Terminal Forms in Arabic lookup 9 subtable" uniFEE2
EndChar

StartChar: uni0647
Encoding: 1607 1607 42
Width: 924
VWidth: 2330
GlyphClass: 2
Flags: W
AnchorPoint: "Anchor-10" 421.833 1141.93 basechar 0
AnchorPoint: "Anchor-7" 439.418 -196.202 basechar 0
LayerCount: 2
Fore
SplineSet
448.029025353 635.989771624 m 2,0,1
 385.017773039 582.878569134 385.017773039 582.878569134 342.899265499 533.247171877 c 128,-1,2
 300.780757959 483.61577462 300.780757959 483.61577462 278.804516406 435.293827025 c 128,-1,3
 256.828274852 386.97187943 256.828274852 386.97187943 256.731466353 341.312766715 c 0,4,5
 256.876534527 254.701264034 256.876534527 254.701264034 312.207505926 210.335217024 c 128,-1,6
 367.538477325 165.969170014 367.538477325 165.969170014 471.721038225 165.935547783 c 0,7,8
 510.435315425 165.949014967 510.435315425 165.949014967 542.129638689 173.219050397 c 128,-1,9
 573.823961952 180.489085828 573.823961952 180.489085828 598.032870935 194.988335141 c 128,-1,10
 622.241779917 209.487584453 622.241779917 209.487584453 638.732740958 230.878691908 c 128,-1,11
 655.223701998 252.269799364 655.223701998 252.269799364 663.673194371 280.860299928 c 128,-1,12
 672.122686743 309.450800493 672.122686743 309.450800493 672.156237167 344.568449096 c 0,13,14
 671.990612285 471.186601354 671.990612285 471.186601354 467.105176199 636.202666981 c 2,15,-1
 457.479390747 643.955337322 l 1,16,-1
 448.029025353 635.989771624 l 2,0,1
115.951172147 324.148754369 m 0,17,18
 115.998410436 521.361995989 115.998410436 521.361995989 348.254856224 732.456402097 c 2,19,-1
 360.363779474 743.462021138 l 1,20,-1
 348.349118945 754.570468605 l 1,21,-1
 320.191006604 780.604738233 l 1,22,-1
 407.584709814 882.332367451 l 1,23,24
 814.978041641 587.620555146 814.978041641 587.620555146 814.499039683 339.090435582 c 0,25,26
 814.257744121 175.138837094 814.257744121 175.138837094 729.42203335 95.3206186839 c 128,-1,27
 644.586322578 15.5024002737 644.586322578 15.5024002737 470.181196008 15.9774815224 c 0,28,29
 166.181406985 16.8195149116 166.181406985 16.8195149116 123.347853618 240.126430921 c 0,30,31
 116.044512204 279.274641091 116.044512204 279.274641091 115.951172147 324.148754369 c 0,17,18
EndSplineSet
Substitution2: "'fina' Terminal Forms in Arabic lookup 9 subtable" uniFEEA
Substitution2: "'medi' Medial Forms in Arabic lookup 11 subtable" uniFEEC
Substitution2: "'init' Initial Forms in Arabic lookup 13 subtable" uniFEEB
EndChar

StartChar: uni0648
Encoding: 1608 1608 43
Width: 877
VWidth: 2553
GlyphClass: 2
Flags: W
AnchorPoint: "Anchor-10" 438.019 1061.88 basechar 0
AnchorPoint: "Anchor-7" 367.433 -667.366 basechar 0
LayerCount: 2
Fore
SplineSet
769.660156268 -0.0409120386206 m 2,0,1
 769.660156268 -219.134654338 769.660156268 -219.134654338 639.953428814 -327.337137672 c 128,-1,2
 510.246701359 -435.539621006 510.246701359 -435.539621006 244.761110594 -435.412111105 c 2,3,-1
 154.015046657 -435.36852671 l 1,4,-1
 153.929303924 -282.205872913 l 1,5,-1
 238.854186472 -282.26559579 l 2,6,7
 428.562455672 -282.639986925 428.562455672 -282.639986925 527.232690367 -217.120838102 c 128,-1,8
 625.902925061 -151.601689279 625.902925061 -151.601689279 625.900390622 -20.1530311001 c 2,9,-1
 625.899999997 0.106734524878 l 1,10,-1
 625.89971079 15.1064453095 l 1,11,-1
 610.9 15.1064453125 l 1,12,-1
 421.034089025 15.106444488 l 2,13,14
 266.467342774 15.0551955668 266.467342774 15.0551955668 191.009648095 100.798958972 c 128,-1,15
 115.551953416 186.542722377 115.551953416 186.542722377 116.075962688 363.649297183 c 0,16,17
 116.700624137 481.927198624 116.700624137 481.927198624 153.539814529 559.4228278 c 128,-1,18
 190.37900492 636.918456977 190.37900492 636.918456977 264.004991032 675.158883044 c 128,-1,19
 337.630977143 713.39930911 337.630977143 713.39930911 449.588654167 713.589854964 c 0,20,21
 611.302319661 713.787594987 611.302319661 713.787594987 690.481120167 625.979720997 c 128,-1,22
 769.659920672 538.171847007 769.659920672 538.171847007 769.66 356.949993434 c 2,23,-1
 769.660156268 -0.0409120386206 l 2,0,1
445.567760417 568.373962283 m 0,24,25
 353.078387807 568.174706861 353.078387807 568.174706861 305.005890039 516.108307082 c 128,-1,26
 256.93339227 464.041907304 256.93339227 464.041907304 256.859379569 365.213878371 c 0,27,28
 256.908276137 302.566508535 256.908276137 302.566508535 275.076165776 259.129169558 c 128,-1,29
 293.244055415 215.691830581 293.244055415 215.691830581 329.829583131 192.855638089 c 128,-1,30
 366.415110847 170.019445598 366.415110847 170.019445598 419.994574935 170.000000981 c 2,31,-1
 611.704535873 169.930665043 l 1,32,-1
 626.750782597 169.925223252 l 1,33,-1
 626.709905582 184.971415433 l 1,34,-1
 626.258776873 351.019122329 l 2,35,36
 626.16924758 421.247926885 626.16924758 421.247926885 606.057331349 469.680224532 c 128,-1,37
 585.945415117 518.11252218 585.945415117 518.11252218 545.465613902 543.355688046 c 128,-1,38
 504.985812687 568.598853911 504.985812687 568.598853911 445.567760417 568.373962283 c 0,24,25
EndSplineSet
Substitution2: "'fina' Terminal Forms in Arabic lookup 9 subtable" uniFEEE
EndChar

StartChar: uni0649
Encoding: 1609 1609 44
Width: 1446
VWidth: 2553
GlyphClass: 2
Flags: W
AnchorPoint: "Anchor-7" 641 -665.5 basechar 0
AnchorPoint: "Anchor-10" 604 1221.43 basechar 0
LayerCount: 2
Fore
SplineSet
1120.77441406 218.370117188 m 2,0,1
 1192.24432011 218.370117188 1192.24432011 218.370117188 1238.52497905 195.909244629 c 128,-1,2
 1284.805638 173.44837207 1284.805638 173.44837207 1307.46678384 127.705087547 c 128,-1,3
 1330.12792969 81.9618030249 1330.12792969 81.9618030249 1330.12792969 11.36328125 c 2,4,-1
 1330.12793035 -17.9730869853 l 2,5,6
 1330.06593476 -226.849480419 1330.06593476 -226.849480419 1193.08981 -330.564876928 c 128,-1,7
 1056.11368523 -434.280273436 1056.11368523 -434.280273436 775.421875 -434.280273438 c 2,8,-1
 690.948532553 -434.280275131 l 2,9,10
 400.78565827 -434.142422548 400.78565827 -434.142422548 258.114709733 -300.008283524 c 128,-1,11
 115.443761196 -165.874144499 115.443761196 -165.874144499 115.267574976 106.042922238 c 2,12,-1
 115.009722264 504 l 1,13,-1
 264.022460938 504 l 1,14,-1
 264.022460965 107.206962308 l 2,15,16
 264.010876953 -84.2389896735 264.010876953 -84.2389896735 372.643949733 -181.609729212 c 128,-1,17
 481.277022514 -278.98046875 481.277022514 -278.98046875 693.11328125 -278.98046875 c 2,18,-1
 784.019746814 -278.980468731 l 2,19,20
 979.801754701 -278.990401383 979.801754701 -278.990401383 1081.76025235 -218.482186318 c 128,-1,21
 1183.71875 -157.973971253 1183.71875 -157.973971253 1183.71875 -35.583984375 c 2,22,-1
 1183.71865458 -23.9021368875 l 2,23,24
 1183.87778155 20.7092196983 1183.87778155 20.7092196983 1159.41881548 45.2246130279 c 128,-1,25
 1134.9598494 69.7400063575 1134.9598494 69.7400063575 1090.29011563 69.7402343748 c 2,26,-1
 898.999003873 69.7411941503 l 2,27,28
 817.493370936 69.8631341752 817.493370936 69.8631341752 779.129497968 106.818842425 c 128,-1,29
 740.765625 143.774550675 740.765625 143.774550675 740.765625 221.583007812 c 2,30,-1
 740.765623156 287.370491134 l 2,31,32
 740.880369357 518.758597157 740.880369357 518.758597157 842.006580509 631.778422337 c 128,-1,33
 943.132791661 744.798247517 943.132791661 744.798247517 1148.54073361 744.901369078 c 2,34,-1
 1330.07048334 744.992503 l 1,35,-1
 1330.82082109 585.604492188 l 1,36,-1
 1107.31229823 585.604462044 l 2,37,38
 1001.60045893 585.816391213 1001.60045893 585.816391213 946.952472419 511.241257973 c 128,-1,39
 892.304485908 436.666124732 892.304485908 436.666124732 889.525318049 294.29568412 c 2,40,-1
 888.341724299 233.66287162 l 1,41,-1
 888.043199328 218.370117188 l 1,42,-1
 903.338867188 218.370117188 l 1,43,-1
 1120.77441406 218.370117188 l 2,0,1
EndSplineSet
Substitution2: "'fina' Terminal Forms in Arabic lookup 9 subtable" uniFEF0
Substitution2: "'medi' Medial Forms in Arabic lookup 11 subtable" uniFBE9
Substitution2: "'init' Initial Forms in Arabic lookup 13 subtable" uniFBE8
EndChar

StartChar: uni064B
Encoding: 1611 1611 46
Width: 0
VWidth: 2186
GlyphClass: 4
Flags: W
AnchorPoint: "Anchor-10" 544.872 1090.61 mark 0
AnchorPoint: "Anchor-9" 544.872 1090.61 mark 0
AnchorPoint: "Anchor-1" 544.872 1518.61 basemark 0
AnchorPoint: "Anchor-1" 544.872 1090.61 mark 0
LayerCount: 2
Fore
SplineSet
335.400390625 1051.80664062 m 5,0,-1
 335.400390625 1153.46289062 l 5,1,-1
 730.599609375 1315.06347656 l 5,2,-1
 730.599609375 1213.40722656 l 5,3,-1
 335.400390625 1051.80664062 l 5,0,-1
335.400390625 1259.00683594 m 5,4,-1
 335.400390625 1360.66308594 l 5,5,-1
 730.599609375 1522.26367188 l 5,6,-1
 730.599609375 1420.60742188 l 5,7,-1
 335.400390625 1259.00683594 l 5,4,-1
EndSplineSet
EndChar

StartChar: uni064C
Encoding: 1612 1612 47
Width: 0
VWidth: 2186
GlyphClass: 4
Flags: W
AnchorPoint: "Anchor-10" 552.791 1211.53 mark 0
AnchorPoint: "Anchor-9" 552.791 1211.53 mark 0
AnchorPoint: "Anchor-1" 546.391 1735.93 basemark 0
AnchorPoint: "Anchor-1" 552.791 1211.53 mark 0
LayerCount: 2
Fore
SplineSet
563.057617188 1326.15722656 m 0,0,1
 595.995117188 1358.20507812 595.995117188 1358.20507812 614.7578125 1395.73339844 c 2,2,-1
 620.7734375 1407.76464844 l 1,3,-1
 607.612304688 1410.55664062 l 2,4,5
 580.928710938 1416.21289062 580.928710938 1416.21289062 562.5078125 1426.62890625 c 0,6,7
 475.470703125 1472.56542969 475.470703125 1472.56542969 475.470703125 1546.75683594 c 0,8,9
 475.470703125 1616.04492188 475.470703125 1616.04492188 530.374023438 1657.42089844 c 0,10,11
 551.5703125 1673.31738281 551.5703125 1673.31738281 602.03125 1673.31738281 c 0,12,13
 660.2890625 1673.31738281 660.2890625 1673.31738281 691.47265625 1642.90917969 c 0,14,15
 735.438476562 1599.74902344 735.438476562 1599.74902344 735.438476562 1536.48535156 c 0,16,17
 735.438476562 1504.70117188 735.438476562 1504.70117188 725.650390625 1473.70117188 c 2,18,-1
 721.603515625 1460.89257812 l 1,19,-1
 735.022460938 1460.18945312 l 2,20,21
 751.080078125 1459.34082031 751.080078125 1459.34082031 763.526367188 1459.31738281 c 0,22,23
 774.24609375 1458.74121094 774.24609375 1458.74121094 785.942382812 1458.54101562 c 1,24,-1
 785.942382812 1385.1328125 l 1,25,26
 754.267578125 1385.33300781 754.267578125 1385.33300781 739.986328125 1386.76464844 c 2,27,-1
 687.8984375 1391.7734375 l 1,28,-1
 684.911132812 1384.7734375 l 2,29,30
 663.403320312 1334.30859375 663.403320312 1334.30859375 600.578125 1268.97265625 c 1,31,32
 530.916015625 1198.49316406 530.916015625 1198.49316406 454.798828125 1198.49316406 c 0,33,34
 347.681640625 1198.38085938 347.681640625 1198.38085938 319.045898438 1323.49316406 c 0,35,36
 307.463867188 1370.50878906 307.463867188 1370.50878906 306.876953125 1441.34082031 c 1,37,-1
 363.12109375 1441.34082031 l 1,38,39
 363.697265625 1376.05859375 363.697265625 1376.05859375 374.327148438 1342.05273438 c 4,40,41
 396.482421875 1271.18066406 396.482421875 1271.18066406 454.798828125 1271.85253906 c 0,42,43
 506.942382812 1271.85253906 506.942382812 1271.85253906 563.057617188 1326.15722656 c 0,0,1
644.715820312 1473.29296875 m 1,44,-1
 653.53515625 1493.86914062 l 2,45,46
 662.079101562 1513.8046875 662.079101562 1513.8046875 662.079101562 1536.48535156 c 0,47,48
 662.079101562 1570.50097656 662.079101562 1570.50097656 643.73828125 1585.59667969 c 0,49,50
 626.305664062 1599.95703125 626.305664062 1599.95703125 605.456054688 1599.95703125 c 0,51,52
 582.711914062 1599.95703125 582.711914062 1599.95703125 569.982421875 1590.08496094 c 0,53,54
 550.54296875 1575.453125 550.54296875 1575.453125 550.54296875 1546.75683594 c 0,55,56
 550.54296875 1508.04492188 550.54296875 1508.04492188 595.600585938 1490.02050781 c 0,57,58
 613.124023438 1483.01269531 613.124023438 1483.01269531 635.780273438 1476.04492188 c 2,59,-1
 644.715820312 1473.29296875 l 1,44,-1
EndSplineSet
EndChar

StartChar: uni064D
Encoding: 1613 1613 48
Width: 0
VWidth: 2186
GlyphClass: 4
Flags: W
AnchorPoint: "Anchor-7" 533.072 19.8066 mark 0
AnchorPoint: "Anchor-6" 533.072 19.8066 mark 0
AnchorPoint: "Anchor-0" 545.872 -392.193 basemark 0
AnchorPoint: "Anchor-0" 533.072 19.8066 mark 0
LayerCount: 2
Fore
SplineSet
340.400390625 -438.193359375 m 5,0,-1
 340.400390625 -336.537109375 l 5,1,-1
 735.599609375 -174.936523438 l 5,2,-1
 735.599609375 -276.592773438 l 5,3,-1
 340.400390625 -438.193359375 l 5,0,-1
340.400390625 -230.993164062 m 5,4,-1
 340.400390625 -129.336914062 l 5,5,-1
 735.599609375 32.263671875 l 5,6,-1
 735.599609375 -69.392578125 l 5,7,-1
 340.400390625 -230.993164062 l 5,4,-1
EndSplineSet
EndChar

StartChar: uni064E
Encoding: 1614 1614 49
Width: 0
VWidth: 2186
GlyphClass: 4
Flags: W
AnchorPoint: "Anchor-10" 515.072 1306.71 mark 0
AnchorPoint: "Anchor-9" 515.072 1306.71 mark 0
AnchorPoint: "Anchor-1" 515.072 1563.51 basemark 0
AnchorPoint: "Anchor-1" 515.072 1306.71 mark 0
LayerCount: 2
Fore
SplineSet
306.400390625 1283.90722656 m 1,0,-1
 306.400390625 1385.56347656 l 1,1,-1
 701.599609375 1547.16308594 l 5,2,-1
 701.599609375 1445.50683594 l 5,3,-1
 306.400390625 1283.90722656 l 1,0,-1
EndSplineSet
EndChar

StartChar: uni064F
Encoding: 1615 1615 50
Width: 0
VWidth: 2186
GlyphClass: 4
Flags: W
AnchorPoint: "Anchor-10" 535.04 1254.31 mark 0
AnchorPoint: "Anchor-9" 535.04 1254.31 mark 0
AnchorPoint: "Anchor-1" 547.84 1749.91 basemark 0
AnchorPoint: "Anchor-1" 535.04 1254.31 mark 0
LayerCount: 2
Fore
SplineSet
563.754882812 1440.70898438 m 4,0,1
 476.767578125 1477.90917969 476.767578125 1477.90917969 476.919921875 1560.73339844 c 0,2,3
 476.919921875 1630.02148438 476.919921875 1630.02148438 531.823242188 1671.39746094 c 0,4,5
 553.01953125 1687.29296875 553.01953125 1687.29296875 603.48046875 1687.29296875 c 0,6,7
 661.737304688 1687.29296875 661.737304688 1687.29296875 692.921875 1656.88476562 c 0,8,9
 736.887695312 1613.72460938 736.887695312 1613.72460938 736.887695312 1550.4609375 c 0,10,11
 736.887695312 1524.65332031 736.887695312 1524.65332031 725.374023438 1487.63671875 c 2,12,-1
 721.424804688 1474.94921875 l 1,13,-1
 734.693359375 1474.16503906 l 2,14,15
 749.416015625 1473.30078125 749.416015625 1473.30078125 764.975585938 1472.86914062 c 0,16,17
 775.3515625 1472.58105469 775.3515625 1472.58105469 787.391601562 1472.4765625 c 1,18,-1
 787.391601562 1399.1328125 l 1,19,20
 763.19140625 1399.38867188 763.19140625 1399.38867188 741.131835938 1400.76464844 c 0,21,22
 715.6484375 1402.46875 715.6484375 1402.46875 691.900390625 1405.01269531 c 2,23,-1
 685.817382812 1405.66113281 l 1,24,-1
 682.291992188 1400.66113281 l 2,25,26
 646.727539062 1350.20507812 646.727539062 1350.20507812 589.471679688 1315.35742188 c 0,27,28
 428.203125 1216.18945312 428.203125 1216.18945312 308.288085938 1211.796875 c 1,29,-1
 308.288085938 1285.1171875 l 1,30,31
 436.504882812 1288.82910156 436.504882812 1288.82910156 553.392578125 1380.48535156 c 0,32,33
 573.681640625 1396.36523438 573.681640625 1396.36523438 590.475585938 1414.03710938 c 2,34,-1
 603.137695312 1427.37304688 l 1,35,36
 586.23046875 1431.12597656 586.23046875 1431.12597656 563.754882812 1440.70898438 c 4,0,1
646.165039062 1487.26855469 m 1,37,-1
 654.984375 1507.84472656 l 2,38,39
 663.528320312 1527.78125 663.528320312 1527.78125 663.528320312 1550.4609375 c 0,40,41
 663.528320312 1584.4765625 663.528320312 1584.4765625 645.1875 1599.57324219 c 0,42,43
 627.754882812 1613.93261719 627.754882812 1613.93261719 606.904296875 1613.93261719 c 0,44,45
 584.161132812 1613.93261719 584.161132812 1613.93261719 571.431640625 1604.06054688 c 0,46,47
 551.9921875 1589.42871094 551.9921875 1589.42871094 551.9921875 1560.73339844 c 0,48,49
 551.9921875 1522.02148438 551.9921875 1522.02148438 597.049804688 1503.99707031 c 0,50,51
 614.573242188 1496.98925781 614.573242188 1496.98925781 637.229492188 1490.02148438 c 2,52,-1
 646.165039062 1487.26855469 l 1,37,-1
EndSplineSet
EndChar

StartChar: uni0650
Encoding: 1616 1616 51
Width: 0
VWidth: 2186
GlyphClass: 4
Flags: W
AnchorPoint: "Anchor-7" 517.472 -45.6934 mark 0
AnchorPoint: "Anchor-6" 517.472 -45.6934 mark 0
AnchorPoint: "Anchor-0" 555.072 -284.893 basemark 0
AnchorPoint: "Anchor-0" 517.472 -45.6934 mark 0
LayerCount: 2
Fore
SplineSet
350.400390625 -310.092773438 m 1,0,-1
 350.400390625 -208.436523438 l 1,1,-1
 745.599609375 -46.8369140625 l 1,2,-1
 745.599609375 -148.493164062 l 1,3,-1
 350.400390625 -310.092773438 l 1,0,-1
EndSplineSet
EndChar

StartChar: uni0651
Encoding: 1617 1617 52
Width: 0
VWidth: 2186
GlyphClass: 4
Flags: W
AnchorPoint: "Anchor-10" 548.269 1355.65 mark 0
AnchorPoint: "Anchor-9" 548.269 1355.65 mark 0
AnchorPoint: "Anchor-1" 538.668 1757.25 basemark 0
AnchorPoint: "Anchor-1" 548.269 1355.65 mark 0
LayerCount: 2
Fore
SplineSet
437.03515625 1333.9609375 m 0,0,1
 301.217773438 1333.63964844 301.217773438 1333.63964844 300.396484375 1487.28417969 c 6,2,-1
 299.752929688 1607.69726562 l 5,3,-1
 370.541992188 1607.69726562 l 5,4,-1
 371.708007812 1486.40039062 l 6,5,6
 372.357421875 1421.60742188 372.357421875 1421.60742188 437.091796875 1420.92089844 c 4,7,8
 509.741210938 1420.85253906 509.741210938 1420.85253906 511.009765625 1517.33300781 c 6,9,-1
 512.768554688 1651.11328125 l 5,10,-1
 582.78515625 1651.11328125 l 5,11,-1
 584.66796875 1524.55078125 l 6,12,13
 585.919921875 1460.05273438 585.919921875 1460.05273438 662.672851562 1460.12109375 c 4,14,15
 722.827148438 1460.05371094 722.827148438 1460.05371094 724.028320312 1557.74609375 c 6,16,-1
 725.662109375 1690.52832031 l 5,17,-1
 800.211914062 1690.52832031 l 5,18,-1
 798.540039062 1559.09765625 l 6,19,20
 796.348632812 1375.24511719 796.348632812 1375.24511719 663.6015625 1375.35546875 c 4,21,22
 588.079101562 1375.25488281 588.079101562 1375.25488281 555.716796875 1420.96191406 c 5,23,24
 534.0234375 1334.4375 534.0234375 1334.4375 437.03515625 1333.9609375 c 0,0,1
EndSplineSet
EndChar

StartChar: uni0652
Encoding: 1618 1618 53
Width: 0
VWidth: 2186
GlyphClass: 4
Flags: W
AnchorPoint: "Anchor-10" 566.159 1179.48 mark 0
AnchorPoint: "Anchor-9" 566.159 1179.48 mark 0
AnchorPoint: "Anchor-1" 554.959 1638.28 basemark 0
AnchorPoint: "Anchor-1" 566.159 1179.48 mark 0
LayerCount: 2
Fore
SplineSet
663.276367188 1384.35546875 m 4,0,1
 663.276367188 1424.6953125 663.276367188 1424.6953125 635.090820312 1452.87890625 c 132,-1,2
 606.91015625 1481.0625 606.91015625 1481.0625 565.948242188 1481.0625 c 4,3,4
 559.963867188 1481.0625 559.963867188 1481.0625 554.28515625 1480.49609375 c 132,-1,5
 548.606445312 1479.9296875 548.606445312 1479.9296875 543.224609375 1478.79589844 c 132,-1,6
 537.842773438 1477.66113281 537.842773438 1477.66113281 532.750976562 1475.95703125 c 132,-1,7
 527.659179688 1474.25195312 527.659179688 1474.25195312 522.854492188 1471.98046875 c 132,-1,8
 518.05078125 1469.70898438 518.05078125 1469.70898438 513.520507812 1466.86132812 c 132,-1,9
 508.990234375 1464.01367188 508.990234375 1464.01367188 504.737304688 1460.60058594 c 132,-1,10
 500.485351562 1457.18652344 500.485351562 1457.18652344 496.491210938 1453.19335938 c 4,11,12
 482.500976562 1439.20117188 482.500976562 1439.20117188 475.561523438 1422.07910156 c 132,-1,13
 468.62109375 1404.95605469 468.62109375 1404.95605469 468.62109375 1384.35546875 c 4,14,15
 468.62109375 1342.77148438 468.62109375 1342.77148438 496.491210938 1314.90039062 c 132,-1,16
 524.364257812 1287.02929688 524.364257812 1287.02929688 565.948242188 1287.02929688 c 4,17,18
 586.54296875 1287.02929688 586.54296875 1287.02929688 603.7421875 1294.046875 c 132,-1,19
 620.942382812 1301.0625 620.942382812 1301.0625 635.090820312 1315.21484375 c 132,-1,20
 649.244140625 1329.36621094 649.244140625 1329.36621094 656.260742188 1346.56542969 c 132,-1,21
 663.276367188 1363.76464844 663.276367188 1363.76464844 663.276367188 1384.35546875 c 4,0,1
744.818359375 1384.45996094 m 4,22,23
 744.818359375 1309.48730469 744.818359375 1309.48730469 693.0078125 1257.34472656 c 4,24,25
 667.168945312 1231.34472656 667.168945312 1231.34472656 635.392578125 1218.28125 c 132,-1,26
 603.615234375 1205.21972656 603.615234375 1205.21972656 566.2421875 1205.21972656 c 4,27,28
 556.903320312 1205.21972656 556.903320312 1205.21972656 547.905273438 1206.03613281 c 132,-1,29
 538.909179688 1206.85449219 538.909179688 1206.85449219 530.265625 1208.48632812 c 132,-1,30
 521.623046875 1210.11914062 521.623046875 1210.11914062 513.329101562 1212.56835938 c 132,-1,31
 505.03515625 1215.01660156 505.03515625 1215.01660156 497.103515625 1218.27734375 c 132,-1,32
 489.170898438 1221.53710938 489.170898438 1221.53710938 481.596679688 1225.61132812 c 132,-1,33
 474.0234375 1229.68652344 474.0234375 1229.68652344 466.819335938 1234.56933594 c 132,-1,34
 459.615234375 1239.453125 459.615234375 1239.453125 452.77734375 1245.1484375 c 132,-1,35
 445.938476562 1250.84472656 445.938476562 1250.84472656 439.478515625 1257.34472656 c 4,36,37
 413.6328125 1283.35546875 413.6328125 1283.35546875 400.650390625 1315.21777344 c 132,-1,38
 387.666992188 1347.07910156 387.666992188 1347.07910156 387.666992188 1384.45996094 c 4,39,40
 387.666992188 1396.91015625 387.666992188 1396.91015625 389.110351562 1408.75195312 c 132,-1,41
 390.5546875 1420.59375 390.5546875 1420.59375 393.436523438 1431.8046875 c 132,-1,42
 396.318359375 1443.01367188 396.318359375 1443.01367188 400.642578125 1453.59765625 c 132,-1,43
 404.965820312 1464.18066406 404.965820312 1464.18066406 410.719726562 1474.11328125 c 132,-1,44
 416.47265625 1484.04492188 416.47265625 1484.04492188 423.6640625 1493.33203125 c 132,-1,45
 430.85546875 1502.6171875 430.85546875 1502.6171875 439.469726562 1511.23339844 c 4,46,47
 491.270507812 1563.03613281 491.270507812 1563.03613281 566.2421875 1563.03613281 c 132,-1,48
 641.21484375 1563.03613281 641.21484375 1563.03613281 693.016601562 1511.23339844 c 4,49,50
 718.856445312 1485.38671875 718.856445312 1485.38671875 731.837890625 1453.61035156 c 132,-1,51
 744.818359375 1421.83203125 744.818359375 1421.83203125 744.818359375 1384.45996094 c 4,22,23
EndSplineSet
EndChar

StartChar: uni0653
Encoding: 1619 1619 54
Width: 11
VWidth: 2553
GlyphClass: 4
Flags: W
AnchorPoint: "Anchor-10" 397.919 1467.33 mark 0
AnchorPoint: "Anchor-9" 397.919 1467.33 mark 0
AnchorPoint: "Anchor-1" 392.604 1773.32 basemark 0
AnchorPoint: "Anchor-1" 397.919 1467.33 mark 0
LayerCount: 2
Fore
SplineSet
318.897259884 1683.04980469 m 2,0,-1
 657.568359375 1683.04980469 l 5,1,-1
 658.549804688 1555.84960938 l 5,2,-1
 329.014736975 1555.84957664 l 2,3,4
 250.194253511 1555.99963019 250.194253511 1555.99963019 195.126223251 1484.23611714 c 2,5,-1
 189.70298733 1477.16866875 l 1,6,-1
 109.925901864 1560.93924032 l 1,7,-1
 112.544407321 1564.9274689 l 2,8,9
 190 1683 190 1683 318.897259884 1683.04980469 c 2,0,-1
EndSplineSet
EndChar

StartChar: uni0657
Encoding: 1623 1623 57
Width: 11
VWidth: 2553
GlyphClass: 4
Flags: W
AnchorPoint: "Anchor-10" 648 1577.87 mark 0
AnchorPoint: "Anchor-9" 648 1577.87 mark 0
AnchorPoint: "Anchor-1" 648 2230.92 basemark 0
AnchorPoint: "Anchor-1" 648 1577.87 mark 0
LayerCount: 2
Fore
SplineSet
375.146484375 1979.15039062 m 1,0,-1
 490.033203125 1971.13183594 l 1,1,2
 537.745117188 2038.81054688 537.745117188 2038.81054688 603.489257812 2078.82519531 c 0,3,4
 783.21484375 2189.34082031 783.21484375 2189.34082031 920.853515625 2198.73730469 c 1,5,-1
 920.853515625 2129.40039062 l 1,6,7
 770.400390625 2121.10839844 770.400390625 2121.10839844 636.360351562 2016.00390625 c 0,8,9
 612.069335938 1996.98925781 612.069335938 1996.98925781 591.93359375 1975.80273438 c 2,10,-1
 566.963867188 1949.515625 l 1,11,-1
 602.356445312 1941.64257812 l 2,12,13
 608.723632812 1940.22949219 608.723632812 1940.22949219 641.551757812 1923.14160156 c 128,-1,14
 674.379882812 1906.05371094 674.379882812 1906.05371094 698.654296875 1872.73925781 c 128,-1,15
 722.9296875 1839.42480469 722.9296875 1839.42480469 722.9296875 1799.32324219 c 128,-1,16
 722.9296875 1759.22167969 722.9296875 1759.22167969 711.494140625 1736.16503906 c 0,17,18
 672.563476562 1657.66992188 672.563476562 1657.66992188 577.603515625 1657.66992188 c 0,19,20
 482.642578125 1657.66992188 482.642578125 1657.66992188 446.654296875 1744.78320312 c 0,21,22
 434.422851562 1774.39160156 434.422851562 1774.39160156 434.422851562 1806.69433594 c 128,-1,23
 434.422851562 1838.99804688 434.422851562 1838.99804688 447.5625 1881.22851562 c 2,24,-1
 455.349609375 1906.25683594 l 1,25,-1
 429.173828125 1907.80273438 l 2,26,27
 404.779296875 1909.23730469 404.779296875 1909.23730469 375.146484375 1909.70800781 c 1,28,-1
 375.146484375 1979.15039062 l 1,0,-1
527.903320312 1894.26757812 m 1,29,-1
 514.608398438 1863.25195312 l 2,30,31
 503.908203125 1838.29882812 503.908203125 1838.29882812 503.908203125 1802.21191406 c 128,-1,32
 503.908203125 1766.125 503.908203125 1766.125 527.564453125 1746.63964844 c 128,-1,33
 551.220703125 1727.15429688 551.220703125 1727.15429688 578.67578125 1727.15429688 c 0,34,35
 636.00390625 1728.80078125 636.00390625 1728.80078125 648.572265625 1775.10058594 c 0,36,37
 651.435546875 1785.64550781 651.435546875 1785.64550781 651.435546875 1794.97167969 c 0,38,39
 651.435546875 1856.27539062 651.435546875 1856.27539062 545.530273438 1888.83984375 c 2,40,-1
 527.903320312 1894.26757812 l 1,29,-1
EndSplineSet
EndChar

StartChar: uni065A
Encoding: 1626 1626 58
Width: 1295
VWidth: 2553
GlyphClass: 4
Flags: W
AnchorPoint: "Anchor-10" 648 1490.29 mark 0
AnchorPoint: "Anchor-9" 648 1490.29 mark 0
AnchorPoint: "Anchor-1" 645.488 2055.43 basemark 0
AnchorPoint: "Anchor-1" 648 1490.29 mark 0
LayerCount: 2
Fore
SplineSet
569.607421875 1593.80273438 m 1,0,-1
 355.39453125 1951.92480469 l 1,1,-1
 471.013671875 1951.92480469 l 1,2,-1
 648 1686.44140625 l 1,3,-1
 824.983398438 1951.92480469 l 1,4,-1
 940.604492188 1951.92480469 l 1,5,-1
 726.388671875 1593.80273438 l 1,6,-1
 569.607421875 1593.80273438 l 1,0,-1
EndSplineSet
EndChar

StartChar: afii57392
Encoding: 1632 1632 59
Width: 1036
VWidth: 2553
GlyphClass: 2
Flags: W
LayerCount: 2
Fore
SplineSet
243.271725963 502.380859375 m 0,0,1
 245.806983935 617.024498472 245.806983935 617.024498472 324.715914708 695.934351898 c 0,2,3
 403.902665502 775.120176801 403.902665502 775.120176801 518.269531834 776.220009539 c 0,4,5
 632.637322878 775.120176812 632.637322878 775.120176812 711.823085782 695.934413907 c 128,-1,6
 791.009775639 616.74772405 791.009775639 616.74772405 792.108682575 502.380859375 c 0,7,8
 791.009775639 388.0139947 791.009775639 388.0139947 711.823085782 308.827304843 c 0,9,10
 695.917309715 292.921528776 695.917309715 292.921528776 678.692115036 280.198224719 c 128,-1,11
 661.466920357 267.474920662 661.466920357 267.474920662 642.854242325 257.887905998 c 128,-1,12
 624.241564294 248.300891335 624.241564294 248.300891335 604.212555468 241.857437436 c 128,-1,13
 584.183546642 235.413983538 584.183546642 235.413983538 562.716622698 232.088342256 c 128,-1,14
 541.249698755 228.762700973 541.249698755 228.762700973 518.269531834 228.541709211 c 0,15,16
 479.978766888 228.90994031 479.978766888 228.90994031 445.826092496 237.915309627 c 128,-1,17
 411.673418105 246.920678945 411.673418105 246.920678945 381.447604447 264.621239817 c 128,-1,18
 351.221790789 282.32180069 351.221790789 282.32180069 324.716038727 308.827242833 c 0,19,20
 284.979039526 348.564706664 284.979039526 348.564706664 264.760656071 396.745905188 c 128,-1,21
 244.542272617 444.927103711 244.542272617 444.927103711 243.271725963 502.380859375 c 0,0,1
378.27415634 502.023017199 m 0,22,23
 379.087262707 443.628682598 379.087262707 443.628682598 419.664583404 403.712319281 c 0,24,25
 439.429502712 383.620559756 439.429502712 383.620559756 464.394249802 373.269867649 c 128,-1,26
 489.358996892 362.919175541 489.358996892 362.919175541 518.271756464 362.819245404 c 0,27,28
 576.240653898 363.021704268 576.240653898 363.021704268 616.871169958 403.705822592 c 0,29,30
 658.027717214 444.808749247 658.027717214 444.808749247 657.770985879 502.464682585 c 0,31,32
 656.908608015 560.234174951 656.908608015 560.234174951 616.879553357 600.925165269 c 0,33,34
 596.163442264 621.312888603 596.163442264 621.312888603 571.323614345 631.616397348 c 128,-1,35
 546.483786427 641.919906093 546.483786427 641.919906093 518.127223572 641.818917294 c 0,36,37
 489.187577201 641.365299178 489.187577201 641.365299178 464.365042691 631.071113519 c 128,-1,38
 439.542508181 620.776927861 439.542508181 620.776927861 419.658258054 600.919308912 c 0,39,40
 376.840305503 558.047820264 376.840305503 558.047820264 378.27415634 502.023017199 c 0,22,23
EndSplineSet
EndChar

StartChar: afii57393
Encoding: 1633 1633 60
Width: 732
VWidth: 2553
GlyphClass: 2
Flags: W
LayerCount: 2
Fore
SplineSet
444.849609375 18.9091796875 m 1,0,-1
 299.870117188 18.9091796875 l 1,1,-1
 299.870116784 311.996520996 l 2,2,3
 299.998252444 864.463534482 299.998252444 864.463534482 181.576356069 1269.10036302 c 1,4,-1
 318.93040301 1312.12693194 l 1,5,6
 444.996835526 879.774774613 444.996835526 879.774774613 444.849609375 311 c 2,7,-1
 444.849609375 18.9091796875 l 1,0,-1
EndSplineSet
EndChar

StartChar: afii57394
Encoding: 1634 1634 61
Width: 1148
VWidth: 2553
GlyphClass: 2
Flags: W
LayerCount: 2
Fore
SplineSet
443.851562367 311.924782724 m 2,0,-1
 443.863639547 18.9091796882 l 1,1,-1
 299.093822901 18.9091796875 l 1,2,-1
 299.076171736 311.893645134 l 2,3,4
 299.001029779 863.442350088 299.001029779 863.442350088 182.43049928 1269.48005603 c 1,5,-1
 319.927162388 1311.88760423 l 1,6,-1
 360.404649282 1132.08236481 l 2,7,8
 377.678033441 1054.85356262 377.678033441 1054.85356262 415.451043029 1002.31826089 c 128,-1,9
 453.224052618 949.78295915 453.224052618 949.78295915 510.923000347 922.863969654 c 128,-1,10
 568.621948077 895.944980158 568.621948077 895.944980158 645.126622599 895.383206571 c 0,11,12
 695.813831097 895.015785741 695.813831097 895.015785741 734.995484523 910.100419652 c 128,-1,13
 774.17713795 925.185053562 774.17713795 925.185053562 800.862507887 954.903226066 c 128,-1,14
 827.547877823 984.621398571 827.547877823 984.621398571 842.094356423 1028.51611935 c 128,-1,15
 856.640835022 1072.41084013 856.640835022 1072.41084013 858.61529166 1129.69966914 c 0,16,17
 861.781567626 1217.66185713 861.781567626 1217.66185713 859.559362801 1326.6875 c 1,18,-1
 992.82498373 1326.6875 l 1,19,20
 994.671608065 1208.83847262 994.671608065 1208.83847262 991.979188454 1130.7159763 c 128,-1,21
 989.286768843 1052.59347997 989.286768843 1052.59347997 982.148679839 1012.13460857 c 0,22,23
 965.748908141 921.46413997 965.748908141 921.46413997 923.563777084 861.784926969 c 128,-1,24
 881.378646028 802.105713968 881.378646028 802.105713968 812.346150943 772.352379609 c 128,-1,25
 743.313655858 742.599045251 743.313655858 742.599045251 646.307646986 742.407140705 c 4,26,27
 510 742 510 742 420.141399949 813.830983676 c 1,28,-1
 425.170334069 780.745890779 l 2,29,30
 443.999513823 656.869708187 443.999513823 656.869708187 443.851562367 311.924782724 c 2,0,-1
EndSplineSet
EndChar

StartChar: afii57395
Encoding: 1635 1635 62
Width: 1425
VWidth: 2553
GlyphClass: 2
Flags: W
LayerCount: 2
Fore
SplineSet
360.409191709 1132.06212148 m 2,0,1
 413.590396815 895.824257416 413.590396815 895.824257416 578.708107073 898.149324317 c 0,2,3
 645.0339224 899.194870141 645.0339224 899.194870141 678.143881942 950.122743857 c 128,-1,4
 711.253841485 1001.05061757 711.253841485 1001.05061757 711.405253661 1094.40435347 c 2,5,-1
 711.781326342 1326 l 1,6,-1
 849.042923255 1326 l 1,7,-1
 848.414106236 1084.50106645 l 2,8,9
 848.196178647 994.256429592 848.196178647 994.256429592 888.704815644 946.186562107 c 128,-1,10
 929.21345264 898.116694623 929.21345264 898.116694623 1007.706333 898.254918947 c 0,11,12
 1073.01308583 898.1115711 1073.01308583 898.1115711 1105.82770816 945.096125567 c 128,-1,13
 1138.6423305 992.080680034 1138.6423305 992.080680034 1138.4042403 1078.80682272 c 2,14,-1
 1137.72680132 1325.45996094 l 1,15,-1
 1279.1549547 1325.45996094 l 1,16,-1
 1280.0079828 1155.00078881 l 2,17,18
 1280.98622459 949.710995398 1280.98622459 949.710995398 1214.68756522 850.789668913 c 128,-1,19
 1148.38890585 751.868342428 1148.38890585 751.868342428 1014.74946651 751.749982514 c 0,20,21
 860.156730685 751.986035744 860.156730685 751.986035744 802.068360704 864.838520855 c 2,22,-1
 789.117536071 889.999026213 l 1,23,-1
 775.563905135 865.15805246 l 2,24,25
 755.688724271 828.730998446 755.688724271 828.730998446 730.52854543 804.573961209 c 128,-1,26
 705.368366589 780.416923971 705.368366589 780.416923971 674.774877292 768.143531092 c 128,-1,27
 644.181387994 755.870138213 644.181387994 755.870138213 607.356264281 754.909236824 c 4,28,29
 488 752 488 752 418.234945686 831.644700882 c 5,30,-1
 425.553483846 789.621715791 l 2,31,32
 443.835991659 684.643708372 443.835991659 684.643708372 443.851562513 311.921256747 c 2,33,-1
 443.863639547 18.9091796882 l 1,34,-1
 299.093822901 18.9091796875 l 1,35,-1
 299.076171736 311.893645134 l 2,36,37
 299.001029779 863.442350088 299.001029779 863.442350088 182.43049928 1269.48005603 c 1,38,-1
 319.927162388 1311.88760423 l 1,39,-1
 360.409191709 1132.06212148 l 2,0,1
EndSplineSet
EndChar

StartChar: afii57396
Encoding: 1636 1636 63
Width: 1026
VWidth: 2553
GlyphClass: 2
Flags: W
LayerCount: 2
Fore
SplineSet
175.433351217 324.912263265 m 0,0,1
 176.931621302 532.473110508 176.931621302 532.473110508 500.029983611 685.442682354 c 2,2,-1
 527.869506334 698.623188256 l 1,3,-1
 500.326633295 712.412854896 l 2,4,5
 214.983096183 855.273487091 214.983096183 855.273487091 214.670888089 1026.98238026 c 0,6,7
 214.826593357 1159.53700117 214.826593357 1159.53700117 315.274743414 1226.24965347 c 0,8,9
 415.72289347 1292.96230577 415.72289347 1292.96230577 624.055104931 1293.72764028 c 2,10,-1
 748.422935842 1294.18452875 l 1,11,-1
 749.709883638 1145.7549247 l 1,12,-1
 626.922210485 1145.13554048 l 2,13,14
 514.166163028 1144.5507834 514.166163028 1144.5507834 453.583081514 1114.38961532 c 0,15,16
 393 1084.22844724 393 1084.22844724 393 1021 c 0,17,18
 393 961.573907402 393 961.573907402 481.880944575 901.951520876 c 0,19,20
 570.761889149 842.329134349 570.761889149 842.329134349 747.371542374 774.887945724 c 1,21,-1
 738.631000072 628.046835052 l 1,22,23
 546.390782248 563.941023872 546.390782248 563.941023872 448.970442362 491.254809518 c 0,24,25
 351.550102477 418.568595164 351.550102477 418.568595164 352.210171685 332.920486602 c 0,26,27
 353.078328054 169.147300228 353.078328054 169.147300228 640.000184559 169.150390626 c 2,28,-1
 863.053789496 169.153135068 l 1,29,-1
 862.502645908 20.1476453293 l 1,30,-1
 639.995310064 20.1503898918 l 2,31,32
 403.185038794 20.0763482188 403.185038794 20.0763482188 288.967701968 96.2678488908 c 0,33,34
 174.750365141 172.459349563 174.750365141 172.459349563 175.433351217 324.912263265 c 0,0,1
EndSplineSet
EndChar

StartChar: afii57397
Encoding: 1637 1637 64
Width: 1212
VWidth: 2553
GlyphClass: 2
Flags: W
LayerCount: 2
Fore
SplineSet
584.205538026 994.435229246 m 2,0,1
 276.005368513 688.247335325 276.005368513 688.247335325 275.793950267 441.512222656 c 0,2,3
 275.902393637 308.086275666 275.902393637 308.086275666 363.356973772 240.650449593 c 0,4,5
 450.811553907 173.214623519 450.811553907 173.214623519 618.960967287 173.440456478 c 0,6,7
 771.394138714 173.728556696 771.394138714 173.728556696 850.73732665 238.870921121 c 0,8,9
 930.080514586 304.013285545 930.080514586 304.013285545 930.169918821 431.709766584 c 0,10,11
 929.995714006 704.721751362 929.995714006 704.721751362 604.765263284 994.985078561 c 2,12,-1
 594.226502367 1004.39076552 l 1,13,-1
 584.205538026 994.435229246 l 2,0,1
405.869891495 1132.33530521 m 1,14,-1
 498.440421568 1268.61889092 l 1,15,16
 1076.01783154 893.06330138 1076.01783154 893.06330138 1076.62892462 450.066365733 c 0,17,18
 1076.98913606 219.929178 1076.98913606 219.929178 949.238129398 111.388849035 c 0,19,20
 834.471068677 13.0170827034 834.471068677 13.0170827034 622.140925211 13.6708747325 c 0,21,22
 440.696479232 13.9934519958 440.696479232 13.9934519958 311.96547086 81.2846609179 c 0,23,24
 135.014410648 174.064406002 135.014410648 174.064406002 135.440414922 441.128468689 c 0,25,26
 135.00855541 748.913115259 135.00855541 748.913115259 454.258649593 1076.84422928 c 2,27,-1
 466.495378954 1089.41369869 l 1,28,-1
 452.178118116 1099.55002686 l 1,29,-1
 405.869891495 1132.33530521 l 1,14,-1
EndSplineSet
EndChar

StartChar: afii57398
Encoding: 1638 1638 65
Width: 1286
VWidth: 2553
GlyphClass: 2
Flags: W
LayerCount: 2
Fore
SplineSet
126.526367188 1315.13662418 m 1,0,-1
 693.014557728 1315.6865305 l 2,1,2
 848.811798884 1315.83773417 848.811798884 1315.83773417 924.905899442 1233.46237527 c 0,3,4
 1001 1151.08701638 1001 1151.08701638 1001 981 c 2,5,-1
 1001 18.9091796875 l 1,6,-1
 858.570327554 18.9091796875 l 1,7,-1
 858.571231737 976.958529847 l 2,8,9
 858.800696051 1059.95681532 858.800696051 1059.95681532 815.308478454 1103.6883686 c 0,10,11
 771.816260857 1147.41992188 771.816260857 1147.41992188 689 1147.41992188 c 2,12,-1
 126.526367188 1147.41992188 l 1,13,-1
 126.526367188 1315.13662418 l 1,0,-1
EndSplineSet
EndChar

StartChar: afii57399
Encoding: 1639 1639 66
Width: 1261
VWidth: 2553
GlyphClass: 2
Flags: W
LayerCount: 2
Fore
SplineSet
644.554095273 401.513778551 m 2,0,1
 744.910610074 821.488945884 744.910610074 821.488945884 976.706692321 1321.08172229 c 1,2,-1
 1119.02175793 1267.76743472 l 1,3,4
 807.231102458 673.343366853 807.231102458 673.343366853 692.345964067 18.9091796875 c 1,5,-1
 568.619527735 18.9091796875 l 1,6,7
 453.768249488 673.34336123 453.768249488 673.34336123 141.943806917 1267.76770486 c 1,8,-1
 284.258750415 1321.08194668 l 1,9,10
 516.06794149 821.505002884 516.06794149 821.505002884 615.367362133 401.548401755 c 2,11,-1
 629.887900476 340.138215376 l 1,12,-1
 644.554095273 401.513778551 l 2,0,1
EndSplineSet
EndChar

StartChar: afii57400
Encoding: 1640 1640 67
Width: 1261
VWidth: 2553
GlyphClass: 2
Flags: W
LayerCount: 2
Fore
SplineSet
616.410748477 942.395401137 m 2,0,1
 516.054233676 522.420233803 516.054233676 522.420233803 284.258151429 22.8274573985 c 1,2,-1
 141.943085825 76.1417449628 l 1,3,4
 453.733741292 670.565812835 453.733741292 670.565812835 568.618879683 1325 c 1,5,-1
 692.345316015 1325 l 1,6,7
 807.196594262 670.565818458 807.196594262 670.565818458 1119.02103683 76.1414748263 c 1,8,-1
 976.706093335 22.8272330055 l 1,9,10
 744.89690226 522.404176803 744.89690226 522.404176803 645.597481617 942.360777932 c 2,11,-1
 631.076943274 1003.77096431 l 1,12,-1
 616.410748477 942.395401137 l 2,0,1
EndSplineSet
EndChar

StartChar: afii57401
Encoding: 1641 1641 68
Width: 1207
VWidth: 2553
GlyphClass: 2
Flags: W
LayerCount: 2
Fore
SplineSet
511.483770901 599.343686088 m 0,0,1
 325.926369705 599.976467166 325.926369705 599.976467166 236.611145645 704.348767156 c 0,2,3
 155.002228301 800.50467355 155.002228301 800.50467355 155.058592884 939.561737407 c 0,4,5
 155.001985918 1106.15792645 155.001985918 1106.15792645 243.105923362 1202.05842433 c 0,6,7
 298.921630169 1263.09908332 298.921630169 1263.09908332 374.068130593 1293.54954166 c 0,8,9
 449.214631017 1324 449.214631017 1324 545 1324 c 0,10,11
 607.155521113 1324 607.155521113 1324 657.650726746 1310.4216949 c 0,12,13
 708.145932379 1296.8433898 708.145932379 1296.8433898 747.608828784 1269.37276575 c 0,14,15
 787.071725189 1241.9021417 787.071725189 1241.9021417 815.237807007 1200.26412145 c 0,16,17
 843.403888825 1158.6261012 843.403888825 1158.6261012 860.58847879 1102.62881262 c 0,18,19
 877.773068756 1046.63152405 877.773068756 1046.63152405 884.024345026 975.87774818 c 0,20,21
 906.753232813 717.151385947 906.753232813 717.151385947 920.948148139 18.9091796875 c 1,22,-1
 780.082837887 18.9091796875 l 1,23,-1
 765.425583545 645.368436796 l 1,24,-1
 764.821660297 671.180454554 l 1,25,-1
 742.697369612 657.871031361 l 2,26,27
 644.853196062 599.010409281 644.853196062 599.010409281 511.483770901 599.343686088 c 0,0,1
524.000615078 740.966796599 m 0,28,29
 670.5458795 740.966796599 670.5458795 740.966796599 749.082091873 826.219710638 c 2,30,-1
 753.053468402 830.530733688 l 1,31,-1
 753.049801753 836.392195778 l 2,32,33
 753.024472943 876.882533105 753.024472943 876.882533105 749.254893924 922.582079823 c 0,34,35
 745.485314904 968.281626541 745.485314904 968.281626541 737.959253768 1019.54553506 c 0,36,37
 725.600876441 1097.93422414 725.600876441 1097.93422414 676.2277169 1138.41243434 c 0,38,39
 626.854557359 1178.89064454 626.854557359 1178.89064454 544.477101905 1178.76755571 c 0,40,41
 402.156482951 1179.01358127 402.156482951 1179.01358127 336.918076199 1084.90815923 c 0,42,43
 315.457452981 1054.3204365 315.457452981 1054.3204365 304.76825389 1018.255904 c 0,44,45
 294.079054799 982.19137149 294.079054799 982.19137149 294.167143851 941.172781476 c 0,46,47
 294.610737707 842.528532824 294.610737707 842.528532824 353.499814366 791.747664711 c 0,48,49
 412.388891024 740.966796599 412.388891024 740.966796599 524.000615078 740.966796599 c 0,28,29
EndSplineSet
EndChar

StartChar: afii57381
Encoding: 1642 1642 69
Width: 1291
VWidth: 2553
GlyphClass: 2
Flags: W
LayerCount: 2
Fore
SplineSet
810.738604813 178.347117761 m 0,0,1
 810.372832513 234.3401029 810.372832513 234.3401029 851.895557502 274.258492811 c 0,2,3
 872.903319955 294.708432125 872.903319955 294.708432125 897.355239525 304.659375756 c 128,-1,4
 921.807159095 314.610319387 921.807159095 314.610319387 950.893585317 314.545935254 c 0,5,6
 1008.25546653 314.673025615 1008.25546653 314.673025615 1049.88557512 274.199996962 c 0,7,8
 1091.29542463 234.339459714 1091.29542463 234.339459714 1090.98316262 178.34719653 c 0,9,10
 1091.29541166 122.965970011 1091.29541166 122.965970011 1049.79343308 82.405857833 c 128,-1,11
 1008.25556688 41.7312307555 1008.25556688 41.7312307555 950.860402009 42.1498125961 c 0,12,13
 893.412127808 41.7312298499 893.412127808 41.7312298499 851.909969454 82.4227715788 c 128,-1,14
 810.372850714 122.965632054 810.372850714 122.965632054 810.738604813 178.347117761 c 0,0,1
200.407550125 1204.66059432 m 0,15,16
 200.041777825 1260.65357946 200.041777825 1260.65357946 241.564502814 1300.57196937 c 0,17,18
 283.081593189 1340.9866485 283.081593189 1340.9866485 340.56253063 1340.85941182 c 0,19,20
 369.563461221 1340.92366596 369.563461221 1340.92366596 394.014545123 1330.96993991 c 128,-1,21
 418.465629024 1321.01621385 418.465629024 1321.01621385 439.554520431 1300.51347352 c 0,22,23
 480.964369941 1260.65293628 480.964369941 1260.65293628 480.652107926 1204.66067309 c 0,24,25
 480.964356966 1149.27944657 480.964356966 1149.27944657 439.462378388 1108.71933439 c 0,26,27
 418.420144306 1088.11439961 418.420144306 1088.11439961 394.013251 1078.18281534 c 128,-1,28
 369.606357694 1068.25123107 369.606357694 1068.25123107 340.529347322 1068.46328915 c 0,29,30
 311.408263905 1068.25110553 311.408263905 1068.25110553 287.014707334 1078.17805642 c 128,-1,31
 262.621150762 1088.1050073 262.621150762 1088.1050073 241.578914766 1108.73624814 c 128,-1,32
 220.519716235 1129.29136062 220.519716235 1129.29136062 210.371399684 1153.01023367 c 128,-1,33
 200.223083133 1176.72910672 200.223083133 1176.72910672 200.407550125 1204.66059432 c 0,15,16
896.949941292 1340.40731826 m 1,34,-1
 1025.46330106 1275.56115721 l 1,35,-1
 351.240112104 29.1150317458 l 1,36,-1
 224.394102339 96.1844202198 l 1,37,-1
 896.949941292 1340.40731826 l 1,34,-1
EndSplineSet
EndChar

StartChar: uni066B
Encoding: 1643 1643 70
Width: 667
VWidth: 2553
GlyphClass: 2
Flags: W
LayerCount: 2
Fore
SplineSet
55 -211 m 1,0,-1
 454.059570312 575.4765625 l 5,1,-1
 577 517 l 1,2,3
 181.846679688 -271.249023438 l 1,4,-1
 55 -211 l 1,0,-1
EndSplineSet
EndChar

StartChar: uni066C
Encoding: 1644 1644 71
Width: 592
VWidth: 2304
GlyphClass: 2
Flags: W
LayerCount: 2
Fore
SplineSet
299 262 m 0,0,1
 431 259 431 259 441.162109375 146.842773438 c 0,2,3
 450 48 450 48 420 -53 c 0,4,5
 364 -243 364 -243 170 -331 c 1,6,-1
 120 -285 l 1,7,8
 310 -179 310 -179 328.817382812 -0.3359375 c 1,9,10
 298 -1 298 -1 287.9140625 -0.0322265625 c 0,11,12
 153 7 153 7 155.07421875 124 c 4,13,14
 157 265 157 265 299 262 c 0,0,1
EndSplineSet
EndChar

StartChar: afii63167
Encoding: 1645 1645 72
Width: 1411
VWidth: 2553
GlyphClass: 2
Flags: W
LayerCount: 2
Fore
SplineSet
238.72819434 895.817382812 m 1,0,-1
 583.680664062 895.817382812 l 1,1,-1
 594.542243821 895.817382812 l 1,2,-1
 597.931633829 906.136585796 l 1,3,-1
 705.7711424 1234.46049542 l 1,4,-1
 813.605408947 906.136788564 l 1,5,-1
 816.994702888 895.817382812 l 1,6,-1
 827.856445312 895.817382812 l 1,7,-1
 1172.81086816 895.817382812 l 1,8,-1
 894.091068648 692.06542911 l 1,9,-1
 885.315253207 685.650063052 l 1,10,-1
 888.679979095 675.313212564 l 1,11,-1
 995.247024963 347.926181122 l 1,12,-1
 714.556939793 550.755607274 l 1,13,-1
 705.771551828 557.104015335 l 1,14,-1
 696.986117586 550.755671317 l 1,15,-1
 416.291035382 347.925748874 l 1,16,-1
 522.859072359 675.313178628 l 1,17,-1
 526.223831264 685.65004699 l 1,18,-1
 517.447993852 692.06542911 l 1,19,-1
 238.72819434 895.817382812 l 1,0,-1
EndSplineSet
EndChar

StartChar: uni066E
Encoding: 1646 1646 73
Width: 1901
VWidth: 2553
GlyphClass: 2
Flags: W
AnchorPoint: "Anchor-10" 879.751 1229.53 basechar 0
AnchorPoint: "Anchor-7" 879.751 -214.707 basechar 0
LayerCount: 2
Fore
SplineSet
536.515754023 170.200228726 m 2,0,-1
 1373.10742188 169 l 2,1,2
 1502.46016943 169 1502.46016943 169 1569.07139331 239.325618813 c 128,-1,3
 1635.68261719 309.651237626 1635.68261719 309.651237626 1635.68261719 445.366210938 c 2,4,-1
 1635.68261719 638.75 l 1,5,-1
 1784.44042969 638.75 l 1,6,-1
 1784.44043694 447.857525137 l 2,7,8
 1784.22528373 229.082970132 1784.22528373 229.082970132 1680.7458898 122.053722884 c 128,-1,9
 1577.26649587 15.0244756362 1577.26649587 15.0244756362 1366.45919593 14.9999998989 c 2,10,-1
 533.770921379 14.9033199399 l 2,11,12
 322.412400318 14.9504282923 322.412400318 14.9504282923 218.820467452 121.057783068 c 128,-1,13
 115.228534587 227.165137843 115.228534587 227.165137843 115.227539062 443.977607937 c 2,14,-1
 115.226631375 641.66015625 l 1,15,-1
 263.984375 641.66015625 l 1,16,-1
 263.984375027 444.540109096 l 2,17,18
 263.992505671 310.00540486 263.992505671 310.00540486 333.213385573 240.3110076 c 128,-1,19
 402.434265475 170.616610339 402.434265475 170.616610339 536.515754023 170.200228726 c 2,0,-1
EndSplineSet
Substitution2: "'init' Initial Forms in Arabic lookup 13 subtable" uni066E.init
Substitution2: "'medi' Medial Forms in Arabic lookup 11 subtable" uni066E.medi
Substitution2: "'fina' Terminal Forms in Arabic lookup 9 subtable" uni066E.fina
EndChar

StartChar: uni066F
Encoding: 1647 1647 74
Width: 1434
VWidth: 2553
GlyphClass: 2
Flags: W
AnchorPoint: "Anchor-10" 353.676 1161.52 basechar 0
AnchorPoint: "Anchor-7" 425.271 -713.467 basechar 0
LayerCount: 2
Fore
SplineSet
1318.15044898 -64.5047342591 m 2,0,1
 1318.66990289 -250.716528557 1318.66990289 -250.716528557 1178.39855312 -343.858264279 c 0,2,3
 1038.12720334 -437 1038.12720334 -437 749.385742188 -437 c 2,4,-1
 691.184570312 -437 l 2,5,6
 401.258482787 -437 401.258482787 -437 258.737996023 -302.72260887 c 0,7,8
 116.21750926 -168.44521774 116.21750926 -168.44521774 116.12109281 103.924255183 c 2,9,-1
 116.00529081 431.056499694 l 1,10,-1
 264.877929688 431.618111486 l 1,11,-1
 264.877930495 105.087852476 l 2,12,13
 264.919900638 -22.8448653727 264.919900638 -22.8448653727 313.448839276 -108.730002452 c 0,14,15
 361.977777914 -194.615139532 361.977777914 -194.615139532 457.379439862 -236.922091031 c 0,16,17
 552.781101811 -279.229042531 552.781101811 -279.229042531 693.518227 -277.711041593 c 2,18,-1
 747.920598729 -277.124249072 l 2,19,20
 1175.1355918 -272.849295727 1175.1355918 -272.849295727 1173.20996094 -60.9962835341 c 2,21,-1
 1173.20996094 2.98046875 l 1,22,-1
 1173.20996094 17.98046875 l 1,23,-1
 1158.20996094 17.98046875 l 1,24,-1
 967.347591379 17.9804687223 l 2,25,26
 812.616902855 17.9898731567 812.616902855 17.9898731567 737.163335266 103.729852092 c 0,27,28
 661.709767677 189.469831028 661.709767677 189.469831028 662.383641525 366.536010262 c 0,29,30
 662.908414932 484.853547004 662.908414932 484.853547004 699.709999654 562.357722887 c 0,31,32
 736.511584376 639.86189877 736.511584376 639.86189877 810.171890898 678.087959198 c 0,33,34
 883.832197419 716.314019627 883.832197419 716.314019627 995.90192686 716.463886383 c 0,35,36
 1157.60254492 716.722577215 1157.60254492 716.722577215 1237.03183644 628.899503381 c 0,37,38
 1316.46112797 541.076429547 1316.46112797 541.076429547 1316.96685524 359.785304804 c 2,39,-1
 1318.15044898 -64.5047342591 l 2,0,1
991.875062425 571.247998151 m 0,40,41
 899.240596396 571.11588166 899.240596396 571.11588166 851.159873587 519.037877541 c 0,42,43
 803.079150779 466.959873421 803.079150779 466.959873421 803.166998426 368.113289807 c 0,44,45
 803.079495032 272.16965575 803.079495032 272.16965575 844.402497863 221.036411211 c 0,46,47
 885.725500694 169.903166673 885.725500694 169.903166673 966.302192123 169.874024419 c 2,48,-1
 1158.01215306 169.804688481 l 1,49,-1
 1173.05767447 169.799246952 l 1,50,-1
 1173.01752472 184.844715776 l 1,51,-1
 1172.56634793 353.915849997 l 2,52,53
 1172.4686614 388.948431145 1172.4686614 388.948431145 1167.33350066 418.687737865 c 0,54,55
 1162.19833992 448.427044585 1162.19833992 448.427044585 1152.12588979 472.631983722 c 0,56,57
 1142.05343965 496.83692286 1142.05343965 496.83692286 1126.8881701 515.312223153 c 0,58,59
 1111.72290054 533.787523447 1111.72290054 533.787523447 1091.77798991 546.268736211 c 0,60,61
 1071.83307928 558.749948975 1071.83307928 558.749948975 1046.72580443 565.066715514 c 0,62,63
 1021.61852959 571.383482053 1021.61852959 571.383482053 991.875062425 571.247998151 c 0,40,41
EndSplineSet
Substitution2: "'init' Initial Forms in Arabic lookup 13 subtable" uni066F.init
Substitution2: "'medi' Medial Forms in Arabic lookup 11 subtable" uni066F.medi
Substitution2: "'fina' Terminal Forms in Arabic lookup 9 subtable" uni066F.fina
EndChar

StartChar: uni0670
Encoding: 1648 1648 75
Width: 11
VWidth: 2553
GlyphClass: 4
Flags: W
AnchorPoint: "Anchor-10" 648 1490.29 mark 0
AnchorPoint: "Anchor-9" 648 1490.29 mark 0
AnchorPoint: "Anchor-1" 648 2086.6 basemark 0
AnchorPoint: "Anchor-1" 648 1490.29 mark 0
LayerCount: 2
Fore
SplineSet
604.571289062 1557.38378906 m 1,0,-1
 604.571289062 2019.51757812 l 5,1,-1
 691.427734375 2019.51757812 l 5,2,-1
 691.427734375 1557.38378906 l 1,3,-1
 604.571289062 1557.38378906 l 1,0,-1
EndSplineSet
EndChar

StartChar: uni0674
Encoding: 1652 1652 76
Width: 759
VWidth: 2553
GlyphClass: 2
Flags: W
LayerCount: 2
Fore
SplineSet
161.505859375 1776.52950978 m 1,0,-1
 270.56497862 1801.69567833 l 1,1,2
 194 1849 194 1849 194.018554688 1949.76855469 c 0,3,4
 194 2070 194 2070 294.772460938 2127.04492188 c 0,5,6
 348 2157 348 2157 417 2157.36618146 c 0,7,8
 497 2157 497 2157 559.309570312 2118.38476562 c 1,9,-1
 559.309570312 2003.42871094 l 1,10,11
 511 2031 511 2031 441.8203125 2030.87792969 c 4,12,13
 326 2030 326 2030 325.44140625 1944.07421875 c 4,14,15
 325 1872 325 1872 413.85546875 1845.35449219 c 1,16,17
 585.682617188 1873.77048489 l 1,18,-1
 585.682617188 1752.89747923 l 1,19,-1
 161.505859375 1657.66927849 l 1,20,-1
 161.505859375 1776.52950978 l 1,0,-1
EndSplineSet
EndChar

StartChar: uni06A1
Encoding: 1697 1697 80
Width: 1897
VWidth: 2553
GlyphClass: 2
Flags: W
AnchorPoint: "Anchor-10" 504.245 1207.49 basechar 0
AnchorPoint: "Anchor-7" 521.19 -185.02 basechar 0
LayerCount: 2
Fore
SplineSet
1453.3367959 989.389638587 m 0,0,1
 1617.50845705 989.200191668 1617.50845705 989.200191668 1697.07096903 916.628241156 c 0,2,3
 1776.63348101 844.056290644 1776.63348101 844.056290644 1776.86329923 695.634000474 c 2,4,-1
 1777.39260023 353.798467786 l 2,5,6
 1777.58636639 240.929368257 1777.58636639 240.929368257 1723.8904911 166.069151125 c 0,7,8
 1670.19461582 91.2089339935 1670.19461582 91.2089339935 1559.0971089 53.1154699672 c 0,9,10
 1447.99960198 15.0220059409 1447.99960198 15.0220059409 1278.48731051 14.9999998736 c 2,11,-1
 533.770921379 14.9033199399 l 2,12,13
 322.412400318 14.9504282923 322.412400318 14.9504282923 218.820467452 121.057783068 c 0,14,15
 115.228534587 227.165137843 115.228534587 227.165137843 115.227539062 443.977607937 c 2,16,-1
 115.226631375 641.66015625 l 1,17,-1
 263.984375 641.66015625 l 1,18,-1
 263.984375027 444.540109096 l 2,19,20
 263.992517067 309.816834344 263.992517067 309.816834344 333.214223345 240.117485515 c 0,21,22
 402.435929622 170.418136686 402.435929622 170.418136686 536.525426797 170.200215121 c 2,23,-1
 1274.99709138 169.000070158 l 2,24,25
 1616.12059458 167.95674192 1616.12059458 167.95674192 1623.80971953 327.322036371 c 2,26,-1
 1624.91128203 350.153091059 l 1,27,-1
 1625.72398481 366.997220759 l 1,28,-1
 1608.89996765 365.84065789 l 2,29,30
 1538.52105379 361.002476991 1538.52105379 361.002476991 1469.04542339 361.339774974 c 0,31,32
 1257.6399387 361.979961451 1257.6399387 361.979961451 1186.97244671 439.474689168 c 0,33,34
 1125.99859877 506.785366275 1125.99859877 506.785366275 1125.96191397 658.302058362 c 0,35,36
 1125.98037971 825.910817308 1125.98037971 825.910817308 1206.74428699 907.555854754 c 0,37,38
 1287.50819428 989.2008922 1287.50819428 989.2008922 1453.3367959 989.389638587 c 0,0,1
1464 508 m 0,39,40
 1509.9535844 508 1509.9535844 508 1549.4531162 510.177299892 c 0,41,42
 1588.952648 512.354599785 1588.952648 512.354599785 1622.1410854 516.738550641 c 2,43,-1
 1635.19258862 518.462559157 l 1,44,-1
 1635.17674695 531.627424928 l 1,45,-1
 1635 678.5 l 2,46,47
 1635 759.517350925 1635 759.517350925 1588.68953541 801.853000216 c 0,48,49
 1542.37907081 844.188649506 1542.37907081 844.188649506 1454.92848052 844.401327719 c 0,50,51
 1362.57806599 844.189474645 1362.57806599 844.189474645 1313.7503025 799.470396442 c 0,52,53
 1264.92253901 754.751318239 1264.92253901 754.751318239 1264.83301763 668.973076507 c 0,54,55
 1264.92396077 589.467498677 1264.92396077 589.467498677 1316.32642713 548.733749339 c 0,56,57
 1367.7288935 508 1367.7288935 508 1464 508 c 0,39,40
EndSplineSet
Substitution2: "'init' Initial Forms in Arabic lookup 13 subtable" uni06A1.init
Substitution2: "'medi' Medial Forms in Arabic lookup 11 subtable" uni06A1.medi
Substitution2: "'fina' Terminal Forms in Arabic lookup 9 subtable" uni06A1.fina
EndChar

StartChar: uni06A9
Encoding: 1705 1705 81
Width: 1855
VWidth: 2553
GlyphClass: 2
Flags: W
AnchorPoint: "Anchor-10" 599.382 1355.15 basechar 0
AnchorPoint: "Anchor-7" 849.692 -230.794 basechar 0
LayerCount: 2
Fore
SplineSet
536.515077809 170.200230826 m 2,0,-1
 1260.23633422 169.09668083 l 2,1,2
 1344.20209559 169.063915835 1344.20209559 169.063915835 1401.95197549 184.292625226 c 128,-1,3
 1459.70185538 199.521334618 1459.70185538 199.521334618 1491.36090435 232.593039719 c 128,-1,4
 1523.01995332 265.664744821 1523.01995332 265.664744821 1523.03222398 315.874035468 c 0,5,6
 1522.99668825 376.438766698 1522.99668825 376.438766698 1408.24904269 507.303403048 c 2,7,-1
 1087.58397587 873.00717259 l 2,8,9
 1043.06500781 923.587176291 1043.06500781 923.587176291 1043.94572454 1000.37767632 c 0,10,11
 1044.14104078 1022.88973606 1044.14104078 1022.88973606 1048.41593414 1041.94805089 c 128,-1,12
 1052.69082749 1061.00636572 1052.69082749 1061.00636572 1061.15018271 1076.96709735 c 128,-1,13
 1069.60953793 1092.92782898 1069.60953793 1092.92782898 1082.42039622 1105.78370846 c 128,-1,14
 1095.23125451 1118.63958793 1095.23125451 1118.63958793 1112.3766978 1128.56365804 c 128,-1,15
 1129.52214109 1138.48772815 1129.52214109 1138.48772815 1151.29101343 1145.65583885 c 2,16,-1
 1758.82421875 1345.70408908 l 1,17,-1
 1758.82421875 1192.92308438 l 1,18,-1
 1199.87843399 1010.33763731 l 1,19,-1
 1178.2355505 1003.26776459 l 1,20,-1
 1193.27332888 986.17207135 l 1,21,-1
 1513.02547402 622.661953956 l 2,22,23
 1662.06762311 453.263730345 1662.06762311 453.263730345 1663.66390074 319.940335674 c 0,24,25
 1665.26065125 166.752785348 1665.26065125 166.752785348 1565.76349255 90.8902779791 c 128,-1,26
 1466.26633386 15.0277706099 1466.26633386 15.0277706099 1258.74897624 14.9999998666 c 2,27,-1
 533.770923149 14.9033199395 l 2,28,29
 183.902991294 14.9813410487 183.902991294 14.9813410487 126.826089195 310.963429583 c 0,30,31
 115.31420446 371.750697388 115.31420446 371.750697388 115.227539062 443.977607937 c 2,32,-1
 115.226631375 641.66015625 l 1,33,-1
 263.984375 641.66015625 l 1,34,-1
 263.984375027 444.540109096 l 2,35,36
 263.987620944 390.831145553 263.987620944 390.831145553 275.15030229 347.204360777 c 128,-1,37
 286.312983636 303.577576001 286.312983636 303.577576001 308.444540823 270.631501504 c 128,-1,38
 330.57609801 237.685427007 330.57609801 237.685427007 363.331305436 215.36868161 c 128,-1,39
 396.086512861 193.051936214 396.086512861 193.051936214 439.533412828 181.70920794 c 128,-1,40
 482.980312795 170.366479665 482.980312795 170.366479665 536.515077809 170.200230826 c 2,0,-1
EndSplineSet
Substitution2: "'init' Initial Forms in Arabic lookup 13 subtable" uniFB90
Substitution2: "'medi' Medial Forms in Arabic lookup 11 subtable" uniFB91
Substitution2: "'fina' Terminal Forms in Arabic lookup 9 subtable" uniFB8F
EndChar

StartChar: afii57514
Encoding: 1722 1722 83
Width: 1442
VWidth: 2553
GlyphClass: 2
Flags: W
AnchorPoint: "Anchor-10" 597.158 925.159 basechar 0
AnchorPoint: "Anchor-7" 701.132 -706.307 basechar 0
LayerCount: 2
Fore
SplineSet
1314.57474853 54.1854181751 m 2,0,1
 1309.27765607 -192.414389078 1309.27765607 -192.414389078 1169.18654355 -314.192057499 c 128,-1,2
 1029.09543103 -435.96972592 1029.09543103 -435.96972592 748.819335938 -435.940429688 c 2,3,-1
 694.1015625 -435.940429688 l 2,4,5
 402.67939637 -435.940429688 402.67939637 -435.940429688 259.448319652 -302.067999353 c 128,-1,6
 116.217242935 -168.195569017 116.217242935 -168.195569017 116.121092814 103.281667103 c 2,7,-1
 116.005299879 431.002754217 l 1,8,-1
 266.877929688 431.030449375 l 1,9,-1
 266.877930504 104.444271142 l 2,10,11
 266.94090146 -86.4690580748 266.94090146 -86.4690580748 375.656731692 -183.554353256 c 128,-1,12
 484.372561925 -280.639648438 484.372561925 -280.639648438 696.272460938 -280.639648438 c 2,13,-1
 747.372716181 -280.639642782 l 2,14,15
 958.956181178 -280.823382032 958.956181178 -280.823382032 1068.10702033 -198.156697608 c 128,-1,16
 1177.25785947 -115.490013184 1177.25785947 -115.490013184 1177.16210683 48.5663630979 c 2,17,-1
 1176.82319708 629.826073594 l 1,18,-1
 1326.94173373 629.903251602 l 1,19,-1
 1314.57474853 54.1854181751 l 2,0,1
EndSplineSet
Substitution2: "'init' Initial Forms in Arabic lookup 13 subtable" uni06BA.init
Substitution2: "'medi' Medial Forms in Arabic lookup 11 subtable" uni06BA.medi
Substitution2: "'fina' Terminal Forms in Arabic lookup 9 subtable" uniFB9F
EndChar

StartChar: uni06F4
Encoding: 1780 1780 90
Width: 1146
VWidth: 2553
GlyphClass: 2
Flags: W
LayerCount: 2
Fore
SplineSet
419.159614423 765.817580262 m 2,0,1
 430.876401469 686.143796854 430.876401469 686.143796854 437.656047751 568.551910463 c 0,2,3
 443.845309864 463.622532292 443.845309864 463.622532292 443.851562513 311.921256747 c 2,4,-1
 443.863639547 18.9091796882 l 1,5,-1
 299.093822901 18.9091796875 l 1,6,-1
 299.076171735 311.893652471 l 2,7,8
 299 861 299 861 182.412718927 1269.4745721 c 1,9,-1
 319.72863757 1311.82637401 l 1,10,11
 374 1054 374 1054 384.099609375 965.2734375 c 9,12,-1
 413.944335938 965.705078125 l 17,13,14
 429 1141 429 1141 519.255383133 1234.72900391 c 0,15,16
 607 1326 607 1326 769 1326 c 0,17,18
 859 1326 859 1326 949.85546875 1289.66283761 c 1,19,-1
 949.85546875 1165.73643345 l 1,20,21
 921 1174 921 1174 896.083898393 1179.8345944 c 0,22,23
 871 1185 871 1185 848.001749004 1188.00052778 c 128,-1,24
 825 1191 825 1191 803.833548719 1190.49115238 c 0,25,26
 671 1189 671 1189 599.142600163 1115.96011444 c 0,27,28
 561 1077 561 1077 541.333721814 1027.39388489 c 0,29,30
 522 978 522 978 522 918 c 0,31,32
 522 878 522 878 553.664682165 852.952079342 c 0,33,34
 585 828 585 828 640.517497992 817.094323588 c 128,-1,35
 696 806 696 806 776.775027558 806.726623008 c 0,36,37
 868 807 868 807 998.636642819 832.749515582 c 1,38,-1
 1000.68351405 695.6974398 l 1,39,40
 945 681 945 681 888.34668754 673.178689718 c 0,41,42
 832 666 832 666 774.980844367 665.282214331 c 0,43,44
 703 665 703 665 641.978468631 677.908596601 c 128,-1,45
 581 691 581 691 532.021189656 715.793360044 c 0,46,47
 482.688439337 741.160204139 482.688439337 741.160204139 412.658839723 810.022643759 c 5,48,-1
 419.159614423 765.817580262 l 2,0,1
EndSplineSet
EndChar

StartChar: uni06F5
Encoding: 1781 1781 91
Width: 1278
VWidth: 2553
GlyphClass: 2
Flags: W
LayerCount: 2
Fore
SplineSet
427.621015332 172.653419734 m 0,0,1
 559.85371157 171.94715677 559.85371157 171.94715677 585.00187026 403.513671875 c 1,2,-1
 690.071479685 403.513671875 l 1,3,4
 704.807705286 171.146156086 704.807705286 171.146156086 864.808313178 168.570404391 c 0,5,6
 935.535950521 167.150558953 935.535950521 167.150558953 971.609845608 213.458549844 c 128,-1,7
 1007.68374069 259.766540735 1007.68374069 259.766540735 1007.33382819 346.881927873 c 0,8,9
 1006.98843442 422.568609164 1006.98843442 422.568609164 979.66481759 501.086602444 c 0,10,11
 898.156643584 729.76503147 898.156643584 729.76503147 650.914489885 1009.41397625 c 2,12,-1
 639.621373273 1022.18731646 l 1,13,-1
 628.390696488 1009.35904293 l 2,14,15
 374.750807357 719.63813479 374.750807357 719.63813479 298.824095818 495.6530994 c 0,16,17
 267.943203689 404.298674831 267.943203689 404.298674831 269.315664391 344.588969784 c 0,18,19
 271.270074965 261.430533344 271.270074965 261.430533344 311.629352097 217.135834896 c 128,-1,20
 351.988629228 172.841136448 351.988629228 172.841136448 427.621015332 172.653419734 c 0,0,1
403.306043117 14.5927996174 m 0,21,22
 268 15 268 15 201.290501591 89.4751535787 c 0,23,24
 135 164 135 164 135.068359068 318.871196579 c 0,25,26
 134.999912553 651.424869354 134.999912553 651.424869354 532.860805544 1112.72472615 c 2,27,-1
 541.626347091 1122.88793428 l 1,28,-1
 532.496610623 1132.72528301 l 2,29,30
 497 1171 497 1171 491.007948364 1176.98714502 c 1,31,-1
 592.486643949 1294.26989976 l 1,32,33
 607 1278 607 1278 626.589430162 1255.57600973 c 0,34,35
 647 1233 647 1233 674.543976396 1203.68589898 c 0,36,37
 1142 698 1142 698 1142.93268873 345.557188938 c 0,38,39
 1143 233 1143 233 1113.89254416 159.519127336 c 0,40,41
 1085 86 1085 86 1025.73996196 50.56979114 c 0,42,43
 967 15 967 15 877.360547153 15.021484272 c 0,44,45
 693 15 693 15 632.663085938 183.926757812 c 5,46,47
 572 15 572 15 403.306043117 14.5927996174 c 0,21,22
EndSplineSet
EndChar

StartChar: uni06F6
Encoding: 1782 1782 92
Width: 1030
VWidth: 2553
GlyphClass: 2
Flags: W
LayerCount: 2
Fore
SplineSet
290.875342969 971.590923137 m 0,0,1
 291.476938273 884.590946664 291.476938273 884.590946664 344.610327913 832.832310652 c 0,2,3
 397.743717553 781.07367464 397.743717553 781.07367464 498.777657277 766.846272963 c 0,4,5
 530.011812931 762.471091574 530.011812931 762.471091574 558.16261895 764.447304812 c 0,6,7
 586.313424969 766.42351805 586.313424969 766.42351805 611.633229387 775.154458581 c 0,8,9
 636.953033805 783.885399112 636.953033805 783.885399112 658.642085277 799.253449632 c 0,10,11
 731.722974291 850.854283863 731.722974291 850.854283863 805.163246073 902.902138749 c 1,12,-1
 879.698021617 772.05219946 l 1,13,14
 653.791515607 630.824538248 653.791515607 630.824538248 360.916004726 19.9668122451 c 1,15,-1
 229.518744804 82.3389292968 l 1,16,17
 321.163777398 291.474418192 321.163777398 291.474418192 531.569200623 614.530515931 c 2,18,-1
 545.517008794 635.945954805 l 1,19,-1
 520.019008458 637.68214424 l 2,20,21
 331.287893776 650.53307228 331.287893776 650.53307228 239.604147617 732.136526121 c 0,22,23
 147.920401458 813.739979962 147.920401458 813.739979962 147.846672681 966.358548686 c 0,24,25
 147.994392774 1119.191451 147.994392774 1119.191451 242.112003872 1222.64091628 c 0,26,27
 337.885906852 1328.26344424 337.885906852 1328.26344424 506.609252924 1335.01237808 c 0,28,29
 544.57938244 1336.55587928 544.57938244 1336.55587928 579.222855643 1332.21938903 c 0,30,31
 613.866328847 1327.88289879 613.866328847 1327.88289879 644.282338873 1318.01073779 c 0,32,33
 674.698348899 1308.13857679 674.698348899 1308.13857679 701.475398365 1292.78679069 c 1,34,-1
 700.671852341 1160.54461619 l 1,35,36
 684.837818189 1167.59994321 684.837818189 1167.59994321 669.05103683 1173.17326804 c 0,37,38
 653.264255472 1178.74659286 653.264255472 1178.74659286 637.425729551 1182.88558105 c 0,39,40
 621.58720363 1187.02456925 621.58720363 1187.02456925 605.510102897 1189.76359528 c 0,41,42
 589.433002164 1192.50262131 589.433002164 1192.50262131 573.16473077 1193.87651425 c 0,43,44
 556.896459375 1195.25040719 556.896459375 1195.25040719 540.103785564 1195.30637802 c 0,45,46
 470.801534423 1196.03442901 470.801534423 1196.03442901 419.792955835 1172.65549716 c 0,47,48
 387.786476118 1158.10709729 387.786476118 1158.10709729 363.51096594 1137.99836542 c 0,49,50
 339.235455761 1117.88963354 339.235455761 1117.88963354 323.041568964 1092.64140355 c 0,51,52
 306.847682167 1067.39317356 306.847682167 1067.39317356 298.74569341 1037.00491322 c 0,53,54
 290.643704654 1006.61665288 290.643704654 1006.61665288 290.875342969 971.590923137 c 0,0,1
EndSplineSet
EndChar

StartChar: uniFB8F
Encoding: 64399 64399 107
Width: 2022
VWidth: 2553
GlyphClass: 2
Flags: W
AnchorPoint: "Anchor-7" 849.692 -230.794 basechar 0
AnchorPoint: "Anchor-10" 599.382 1355.15 basechar 0
LayerCount: 2
Fore
SplineSet
1259.0857651 15.3837799483 m 2,0,-1
 533.770921379 14.9033199399 l 2,1,2
 322.412400318 14.9504282923 322.412400318 14.9504282923 218.820467452 121.057783068 c 0,3,4
 115.228534587 227.165137843 115.228534587 227.165137843 115.227539062 443.977607937 c 2,5,-1
 115.226631375 641.66015625 l 1,6,-1
 263.984375 641.66015625 l 1,7,-1
 263.984375027 444.540116055 l 2,8,9
 263.992488214 309.255761713 263.992488214 309.255761713 333.207127794 239.294638752 c 0,10,11
 402.421767374 169.333515791 402.421767374 169.333515791 536.534894178 169.200202723 c 2,12,-1
 1260.56645438 168.480497266 l 2,13,14
 1521.84450724 167.971025877 1521.84450724 167.971025877 1523.38476282 316.07761696 c 0,15,16
 1523.57425723 332.659432204 1523.57425723 332.659432204 1516.28689787 352.749378149 c 0,17,18
 1508.99953852 372.839324094 1508.99953852 372.839324094 1494.01105709 396.963989963 c 0,19,20
 1479.02257567 421.088655831 1479.02257567 421.088655831 1458.20123761 447.978304699 c 0,21,22
 1437.37989956 474.867953566 1437.37989956 474.867953566 1408.60255832 507.68719211 c 2,23,-1
 1087.96914074 873.354887342 l 2,24,25
 1044.02038969 923.61032287 1044.02038969 923.61032287 1044.2994239 1000.75919262 c 0,26,27
 1045.84991181 1111.20362574 1045.84991181 1111.20362574 1151.64452905 1146.03962792 c 2,28,-1
 1759.17773438 1346.08787814 l 1,29,-1
 1759.17773438 1193.30687344 l 1,30,-1
 1200.23194962 1010.72142637 l 1,31,-1
 1178.60174481 1003.65569527 l 1,32,-1
 1193.62151143 986.561926618 l 1,33,-1
 1766.82203443 334.211102628 l 2,34,35
 1909.92538286 171.325823707 1909.92538286 171.325823707 2003.93654814 169.483348671 c 2,36,-1
 2028.20799057 169.007665525 l 2,37,38
 2030.36618159 166.778445432 2030.36618159 166.778445432 2032.63617922 159.168678132 c 0,39,40
 2034.90617684 151.558910832 2034.90617684 151.558910832 2036.82613529 135.395644673 c 0,41,42
 2038.74609375 119.232378513 2038.74609375 119.232378513 2038.74609375 99 c 2,43,-1
 2038.74615619 87.9567207057 l 2,44,45
 2038.78699869 27.2886634777 2038.78699869 27.2886634777 2028.15107382 15 c 1,46,-1
 2014.12792969 15 l 2,47,48
 1817.62131925 15 1817.62131925 15 1674.29672844 211.324938617 c 2,49,-1
 1657.1503457 234.811923775 l 1,50,-1
 1647.95184642 207.225250841 l 2,51,52
 1584.18309696 15.9801812904 1584.18309696 15.9801812904 1259.0857651 15.3837799483 c 2,0,-1
EndSplineSet
EndChar

StartChar: uniFB9F
Encoding: 64415 64415 115
Width: 1590
VWidth: 2553
GlyphClass: 2
Flags: W
AnchorPoint: "Anchor-7" 691 -665.5 basechar 0
AnchorPoint: "Anchor-10" 644.402 807.573 basechar 0
LayerCount: 2
Fore
SplineSet
1594.30105989 15 m 1,0,-1
 1557.31738281 15 l 6,1,2
 1379 15 1379 15 1314.57128906 127.140195696 c 5,3,-1
 1314.57128906 82.068359375 l 1,4,-1
 1314.57129447 53.8505423148 l 2,5,6
 1314.78053506 -192.528579857 1314.78053506 -192.528579857 1174.77408 -314.234504773 c 128,-1,7
 1034.76762493 -435.940429688 1034.76762493 -435.940429688 748.819335938 -435.940429688 c 2,8,-1
 694.100055114 -435.940429764 l 2,9,10
 205.535934369 -435.989526751 205.535934369 -435.989526751 130.266213216 -53.8866873248 c 0,11,12
 116.240056925 18.3979221512 116.240056925 18.3979221512 116.121092814 103.281667103 c 2,13,-1
 116.005299879 431.002754217 l 1,14,-1
 266.877929688 431.030449375 l 1,15,-1
 266.877930504 104.444271142 l 2,16,17
 266.94090146 -86.4690580748 266.94090146 -86.4690580748 375.656731692 -183.554353256 c 128,-1,18
 484.372561925 -280.639648438 484.372561925 -280.639648438 696.272460938 -280.639648438 c 2,19,-1
 747.372716181 -280.639642782 l 2,20,21
 958.956181178 -280.823382032 958.956181178 -280.823382032 1068.10702033 -198.156697608 c 128,-1,22
 1177.25785947 -115.490013184 1177.25785947 -115.490013184 1177.16210683 48.5663630979 c 2,23,-1
 1176.82319708 629.826073594 l 1,24,-1
 1327.26757812 629.903419123 l 1,25,-1
 1327.26758782 419.311979911 l 2,26,27
 1327.12803627 296.59727456 1327.12803627 296.59727456 1387.89876974 232.79863728 c 128,-1,28
 1448.6695032 169 1448.6695032 169 1566.40722656 169 c 2,29,-1
 1594.4458806 169 l 2,30,31
 1596.59693791 166.778148406 1596.59693791 166.778148406 1598.86540983 159.169992293 c 128,-1,32
 1601.13388176 151.561836181 1601.13388176 151.561836181 1603.05522213 135.394438101 c 128,-1,33
 1604.9765625 119.227040021 1604.9765625 119.227040021 1604.9765625 99 c 2,34,-1
 1604.97656303 87.9960049717 l 2,35,36
 1604.99291274 26.6083162217 1604.99291274 26.6083162217 1594.30105989 15 c 1,0,-1
EndSplineSet
EndChar

StartChar: uniFBE8
Encoding: 64488 64488 118
Width: 687
VWidth: 2553
GlyphClass: 2
Flags: W
AnchorPoint: "Anchor-10" 379.938 1220.35 basechar 0
AnchorPoint: "Anchor-7" 417.497 -142.32 basechar 0
LayerCount: 2
Fore
SplineSet
-5.01906314079 14.9999993622 m 2,0,1
 -36.3920884815 14.9999993622 -36.3920884815 14.9999993622 -50.7077629907 31.7956176756 c 128,-1,2
 -65.0234375 48.5912359891 -65.0234375 48.5912359891 -65.0234375 88 c 2,3,-1
 -65.0234380702 98.9958639707 l 2,4,5
 -65.0130325484 136.733223103 -65.0130325484 136.733223103 -50.7734914859 152.849529375 c 128,-1,6
 -36.5339504234 168.965835647 -36.5339504234 168.965835647 -5.0071783925 169.000008812 c 2,7,-1
 207.580405808 169.230478669 l 2,8,9
 313.36250267 169.108826062 313.36250267 169.108826062 367.96445446 229.294674315 c 128,-1,10
 422.56640625 289.480522569 422.56640625 289.480522569 422.56640625 404.623046875 c 2,11,-1
 422.56640625 675.689453125 l 1,12,-1
 571.322265625 675.689453125 l 1,13,-1
 571.322270248 410.500057428 l 2,14,15
 571.164774959 209.889240525 571.164774959 209.889240525 484.796732 112.385792428 c 128,-1,16
 398.428689041 14.8823443312 398.428689041 14.8823443312 222.692850922 14.9335931122 c 2,17,-1
 -5.01906314079 14.9999993622 l 2,0,1
EndSplineSet
EndChar

StartChar: uniFBE9
Encoding: 64489 64489 119
Width: 847
VWidth: 2553
GlyphClass: 2
Flags: W
AnchorPoint: "Anchor-10" 379.939 1126.45 basechar 0
AnchorPoint: "Anchor-7" 358.812 -147.016 basechar 0
LayerCount: 2
Fore
SplineSet
851.461189913 15 m 1,0,-1
 831.33203125 15 l 6,1,2
 617 15 617 15 523.5448705 175.469082649 c 5,3,-1
 510.59117428 158.562302734 l 2,4,5
 400.596103204 15 400.596103204 15 166.1484375 15 c 2,6,-1
 -5.0234375 15 l 2,7,8
 -36.3961230631 15 -36.3961230631 15 -50.7097802816 31.7910490901 c 128,-1,9
 -65.0234375 48.5820981801 -65.0234375 48.5820981801 -65.0234375 88 c 2,10,-1
 -65.0234380702 98.9958639707 l 2,11,12
 -65.0164117246 124.478077363 -65.0164117246 124.478077363 -58.547182337 139.891505003 c 128,-1,13
 -52.0779529495 155.304932643 -52.0779529495 155.304932643 -39.0941279913 162.152466321 c 128,-1,14
 -26.1103030331 169 -26.1103030331 169 -5.0234375 169 c 2,15,-1
 171.162109375 169 l 2,16,17
 301.456561859 169 301.456561859 169 369.56421843 226.766149258 c 128,-1,18
 437.671875 284.532298515 437.671875 284.532298515 437.671875 397.358398438 c 2,19,-1
 437.671875 632.372070312 l 1,20,-1
 592.15625 632.372070312 l 1,21,-1
 592.156254022 397.391843253 l 2,22,23
 592.074083127 285.176188264 592.074083127 285.176188264 652.851813081 227.088094132 c 128,-1,24
 713.629543035 169 713.629543035 169 830.405273438 169 c 2,25,-1
 851.695880603 169 l 1,26,27
 862.2265625 158.122738699 862.2265625 158.122738699 862.2265625 99 c 2,28,-1
 862.226612213 88.03861848 l 2,29,30
 862.068425114 26.5965673529 862.068425114 26.5965673529 851.461189913 15 c 1,0,-1
EndSplineSet
EndChar

StartChar: uniFE73
Encoding: 65139 65139 127
Width: 683
VWidth: 2553
GlyphClass: 2
Flags: W
AnchorPoint: "Anchor-10" 252.404 1490.29 basechar 0
AnchorPoint: "Anchor-7" 252.404 -142.32 basechar 0
LayerCount: 2
Fore
SplineSet
327.305673837 398.498046875 m 1,0,1
 327.722427502 355.75061176 327.722427502 355.75061176 345.435491827 317.101651047 c 128,-1,2
 363.148556152 278.452690334 363.148556152 278.452690334 397.59994142 244.001306165 c 0,3,4
 467.901054517 173.700195312 467.901054517 173.700195312 609.067382812 173.700195312 c 2,5,-1
 662.61328125 173.700195312 l 1,6,-1
 662.61328125 23.9091796875 l 1,7,-1
 539.997070312 23.9091796875 l 2,8,9
 378.501289374 23.9091796875 378.501289374 23.9091796875 278.005527499 124.404941562 c 128,-1,10
 177.509765625 224.900703436 177.509765625 224.900703436 177.509765625 385.141601562 c 2,11,-1
 177.509765625 398.498046875 l 1,12,-1
 327.305673837 398.498046875 l 1,0,1
EndSplineSet
EndChar

StartChar: uniFE8E
Encoding: 65166 65166 153
Width: 551
VWidth: 2553
GlyphClass: 2
Flags: W
AnchorPoint: "Anchor-10" 250.923 1543.04 basechar 0
AnchorPoint: "Anchor-7" 277.009 -244.554 basechar 0
LayerCount: 2
Fore
SplineSet
556.252848387 15 m 1,0,-1
 531.231445312 15 l 2,1,2
 352.891687344 15 352.891687344 15 265.291546797 114.170119145 c 0,3,4
 177.69140625 213.34023829 177.69140625 213.34023829 177.69140625 417.251953125 c 2,5,-1
 177.69140625 1352.18847656 l 1,6,-1
 321 1352.18847656 l 1,7,-1
 321 426.139648438 l 2,8,9
 321 342.855272294 321 342.855272294 344.68566662 285.652149737 c 0,10,11
 368.37133324 228.44902718 368.37133324 228.44902718 416.061653878 198.72451359 c 0,12,13
 463.751974516 169 463.751974516 169 534.014648438 169 c 2,14,-1
 556.370685291 169 l 1,15,16
 566.901367188 158.122738699 566.901367188 158.122738699 566.901367188 99 c 2,17,-1
 566.90137661 87.9831875994 l 2,18,19
 566.924810966 67.0751011152 566.924810966 67.0751011152 564.909759268 50.0780426348 c 0,20,21
 562.894707569 33.0809841543 562.894707569 33.0809841543 560.592533357 25.1442773339 c 0,22,23
 558.290359144 17.2075705134 558.290359144 17.2075705134 556.252848387 15 c 1,0,-1
EndSplineSet
EndChar

StartChar: uniFEA2
Encoding: 65186 65186 173
Width: 1359
VWidth: 2553
GlyphClass: 2
Flags: W
AnchorPoint: "Anchor-7" 471.334 -833.653 basechar 0
AnchorPoint: "Anchor-10" 631.761 1275.94 basechar 0
LayerCount: 2
Fore
SplineSet
260.687643704 -177.709142874 m 0,0,1
 260.097121921 -295.717129515 260.097121921 -295.717129515 322.238822919 -374.510517533 c 128,-1,2
 384.380523917 -453.303905551 384.380523917 -453.303905551 505.135464052 -491.793162379 c 128,-1,3
 625.890404186 -530.282419207 625.890404186 -530.282419207 804.484788673 -530.172848739 c 2,4,-1
 1203.33007812 -529.928150871 l 1,5,-1
 1203.33007812 -680.443138904 l 1,6,-1
 792.470602281 -679.582047916 l 2,7,8
 599.604971894 -679.294548033 599.604971894 -679.294548033 464.322832616 -641.318635659 c 128,-1,9
 329.040693338 -603.342723285 329.040693338 -603.342723285 251.463772214 -529.033477191 c 0,10,11
 112.091414522 -394.712129751 112.091414522 -394.712129751 115.108443889 -183.820450427 c 0,12,13
 120.853277895 331.748877456 120.853277895 331.748877456 979.308119934 439.647371132 c 2,14,-1
 992.722981191 441.333474176 l 1,15,-1
 992.434075127 454.850795629 l 2,16,17
 991.791040374 484.937071175 991.791040374 484.937071175 948.316403815 505.078989948 c 2,18,-1
 730.32613731 606.074476164 l 2,19,20
 644.353085896 645.980746726 644.353085896 645.980746726 568.990647318 646.419179702 c 0,21,22
 485.453420495 645.970420386 485.453420495 645.970420386 419.961738119 596.431840126 c 2,23,-1
 275.006813076 486.786448106 l 1,24,-1
 177.172467116 596.693833878 l 1,25,-1
 310.311973309 701.700695801 l 2,26,27
 437.224404874 802.009705104 437.224404874 802.009705104 560.796076405 802.236378525 c 0,28,29
 582.622647834 802.179797266 582.622647834 802.179797266 605.593798456 799.040553575 c 128,-1,30
 628.564949078 795.901309883 628.564949078 795.901309883 652.782085759 789.651796369 c 128,-1,31
 676.999222441 783.402282855 676.999222441 783.402282855 702.491577117 773.956607661 c 128,-1,32
 727.983931794 764.510932467 727.983931794 764.510932467 754.591262538 751.911822582 c 2,33,-1
 1075.55007993 599.931400067 l 2,34,35
 1139.32593194 569.49455371 1139.32593194 569.49455371 1169.7381674 535.922408392 c 128,-1,36
 1200.15040286 502.350263074 1200.15040286 502.350263074 1200.26367392 466.458021166 c 2,37,-1
 1200.19657396 337.845959855 l 1,38,39
 1128.75654221 330.852603688 1128.75654221 330.852603688 1075.07216868 320.168516687 c 2,40,-1
 1062.89831437 317.745716345 l 1,41,-1
 1063.00050839 305.333534969 l 2,42,43
 1063.57386327 235.695552568 1063.57386327 235.695552568 1128.19369231 202.347776284 c 128,-1,44
 1192.81352135 169 1192.81352135 169 1313.16308594 169 c 2,45,-1
 1363.4458806 169 l 1,46,47
 1373.9765625 158.122738699 1373.9765625 158.122738699 1373.9765625 99 c 2,48,-1
 1373.97656303 87.9960049717 l 2,49,50
 1373.99291274 26.6083162217 1373.99291274 26.6083162217 1363.30105989 15 c 1,51,-1
 1311.75683594 15 l 2,52,53
 1138.77209666 15 1138.77209666 15 1046.93081321 77.7773242508 c 128,-1,54
 955.089529764 140.554648502 955.089529764 140.554648502 938.878043326 266.908881031 c 2,55,-1
 936.919381641 282.174920634 l 1,56,-1
 921.708812581 279.823982603 l 2,57,58
 263.06061853 176.931032479 263.06061853 176.931032479 260.687643704 -177.709142874 c 0,0,1
EndSplineSet
EndChar

StartChar: uniFEA3
Encoding: 65187 65187 174
Width: 1256
VWidth: 2553
GlyphClass: 2
Flags: W
AnchorPoint: "Anchor-10" 470.912 1239.39 basechar 0
AnchorPoint: "Anchor-7" 425.185 -249.728 basechar 0
LayerCount: 2
Fore
SplineSet
-5.0234375 15 m 2,0,1
 -36.3961230631 15 -36.3961230631 15 -50.7097802816 31.7910490901 c 0,2,3
 -65.0234375 48.5820981801 -65.0234375 48.5820981801 -65.0234375 88 c 2,4,-1
 -65.0234380702 98.9958639707 l 2,5,6
 -65.0164117246 124.478077363 -65.0164117246 124.478077363 -58.547182337 139.891505003 c 0,7,8
 -52.0779529495 155.304932643 -52.0779529495 155.304932643 -39.0941279913 162.152466321 c 0,9,10
 -26.1103030331 169 -26.1103030331 169 -5.0234375 169 c 2,11,-1
 300 169 l 2,12,13
 506.717748477 169 506.717748477 169 691.771117141 262.615233559 c 2,14,-1
 861.808886721 348.634407547 l 2,15,16
 878.267483755 357.018975848 878.267483755 357.018975848 899.372425126 367.275761416 c 0,17,18
 920.477366496 377.532546985 920.477366496 377.532546985 931.071930852 382.77196264 c 0,19,20
 941.666495208 388.011378295 941.666495208 388.011378295 952.932585119 394.305907193 c 0,21,22
 964.19867503 400.600436091 964.19867503 400.600436091 969.542597883 405.46400094 c 0,23,24
 974.886520737 410.327565788 974.886520737 410.327565788 976.927150363 415.429139855 c 2,25,-1
 981.925971324 427.926192255 l 1,26,-1
 970.041414031 434.244564487 l 1,27,-1
 890.982884526 476.275681439 l 1,28,-1
 669.904757467 591.316317972 l 2,29,30
 585.652314313 635.002769977 585.652314313 635.002769977 511.484032013 634.946285457 c 0,31,32
 429.07211002 635.003420013 429.07211002 635.003420013 358.950995931 581.963090126 c 2,33,-1
 213.996070888 472.317698106 l 1,34,-1
 116.206869621 582.174368201 l 1,35,-1
 249.22114948 686.169091233 l 2,36,37
 381.164493823 789.007286088 381.164493823 789.007286088 501.509644303 789.175801316 c 0,38,39
 605.066169642 789.006414478 605.066169642 789.006414478 697.026621047 740.71948849 c 2,40,-1
 995.996830759 583.735173556 l 2,41,42
 1073.8547514 542.630060173 1073.8547514 542.630060173 1111.47262564 501.037626423 c 0,43,44
 1149.09049987 459.445192673 1149.09049987 459.445192673 1149.16017307 418.959964908 c 0,45,46
 1149.08989169 372.032569562 1149.08989169 372.032569562 1095.49760304 319.627868295 c 0,47,48
 1041.90531439 267.223167029 1041.90531439 267.223167029 932.291796068 212.416407865 c 2,49,-1
 768.291796068 130.416407865 l 2,50,51
 537.458980338 15 537.458980338 15 302 15 c 2,52,-1
 -5.0234375 15 l 2,0,1
EndSplineSet
EndChar

StartChar: uniFEA4
Encoding: 65188 65188 175
Width: 1299
VWidth: 2553
GlyphClass: 2
Flags: W
AnchorPoint: "Anchor-7" 425.185 -249.728 basechar 0
AnchorPoint: "Anchor-10" 470.912 1239.39 basechar 0
LayerCount: 2
Fore
SplineSet
1149.16110294 419.110084289 m 0,0,1
 1148.0026164 344.169251391 1148.0026164 344.169251391 1023.86050578 263.971619265 c 2,2,-1
 1008.43670171 254.007614637 l 1,3,-1
 1021.27796185 240.882175279 l 2,4,5
 1092 169 1092 169 1213.06835938 169 c 6,6,-1
 1303.2421875 169 l 6,7,8
 1306 169 1306 169 1310.44140625 145.264648438 c 4,9,10
 1313.97656119 126.126883703 1313.97656119 126.126883703 1313.9765625 99 c 2,11,-1
 1313.97656303 87.9960049717 l 2,12,13
 1314 27 1314 27 1303.30105989 15 c 1,14,-1
 1216.07324219 15 l 2,15,16
 1112 15 1112 15 1036.06560238 57.3984770826 c 0,17,18
 959.919244239 100.045228307 959.919244239 100.045228307 909.951402377 185.567111501 c 2,19,-1
 902.861722595 197.701371129 l 1,20,-1
 890.291796068 191.416407865 l 1,21,-1
 768.291796068 130.416407865 l 2,22,23
 537 15 537 15 302 15 c 2,24,-1
 -5.0234375 15 l 2,25,26
 -36 15 -36 15 -50.7097802816 31.7910490901 c 0,27,28
 -65.0234354791 49.0282221957 -65.0234354791 49.0282221957 -65.0234375 88 c 2,29,-1
 -65.0234380702 98.9958639707 l 2,30,31
 -65 124 -65 124 -58.547182337 139.891505003 c 0,32,33
 -52 155 -52 155 -39.0941279913 162.152466321 c 0,34,35
 -26 169 -26 169 -5.0234375 169 c 2,36,-1
 300 169 l 2,37,38
 506.717907748 169 506.717907748 169 691.771117141 262.615233559 c 2,39,-1
 861.810811696 348.635388369 l 2,40,41
 897 367 897 367 898.869875991 367.299118841 c 0,42,43
 921 378 921 378 930.209567183 383.073998823 c 0,44,45
 939 388 939 388 950.960191998 394.171474893 c 0,46,47
 963 401 963 401 967.673818833 404.636158778 c 0,48,49
 973.061166043 409.050114499 973.061166043 409.050114499 975.480754415 412.679497057 c 2,50,-1
 984.671957099 426.466301083 l 1,51,-1
 970.041414031 434.244564487 l 1,52,-1
 890.982884526 476.275681439 l 1,53,-1
 669.904757467 591.316317972 l 2,54,55
 586 635 586 635 511.484032013 634.946285458 c 0,56,57
 429.067530507 634.999956023 429.067530507 634.999956023 358.950995931 581.963090126 c 2,58,-1
 213.996070888 472.317698106 l 1,59,-1
 116.206869621 582.1743682 l 1,60,-1
 249.22114948 686.169091233 l 2,61,62
 381 789 381 789 501.509644303 789.175801316 c 0,63,64
 605.078639693 788.999866413 605.078639693 788.999866413 697.026621047 740.71948849 c 2,65,-1
 996.030705505 583.717344609 l 2,66,67
 1150 503 1150 503 1149.16110294 419.110084289 c 0,0,1
EndSplineSet
EndChar

StartChar: uniFEAA
Encoding: 65194 65194 181
Width: 1204
VWidth: 2553
GlyphClass: 2
Flags: W
AnchorPoint: "Anchor-7" 428.382 -242.53 basechar 0
AnchorPoint: "Anchor-10" 403.659 1300.16 basechar 0
LayerCount: 2
Fore
SplineSet
1208.30105989 15 m 1,0,-1
 1193.35644531 15 l 2,1,2
 1103.19783434 15 1103.19783434 15 1025.31916715 56.2979246167 c 128,-1,3
 947.44049996 97.5958492334 947.44049996 97.5958492334 880.732970905 181.345447755 c 2,4,-1
 864.295256084 201.982578772 l 1,5,-1
 854.968518007 177.302594939 l 2,6,7
 793.633235036 15 793.633235036 15 482.64453125 15 c 2,8,-1
 116.899414062 15 l 1,9,-1
 116.899414062 169 l 1,10,-1
 469.596679688 169 l 2,11,12
 488.436448656 169 488.436448656 169 505.934233337 169.630437788 c 0,13,14
 746.218452591 178.287776671 746.218452591 178.287776671 741.501629912 307.522766914 c 0,15,16
 738.818250021 384.471490305 738.818250021 384.471490305 635.453133165 504.017876003 c 2,17,-1
 369.828017104 811.225395222 l 1,18,-1
 475.05014148 926.4376027 l 1,19,-1
 1001.46066556 292.416484955 l 2,20,21
 1103.95910221 169 1103.95910221 169 1200.41015625 169 c 2,22,-1
 1208.4458806 169 l 1,23,24
 1218.9765625 158.122738699 1218.9765625 158.122738699 1218.9765625 99 c 2,25,-1
 1218.97656303 87.9960049717 l 2,26,27
 1218.99291274 26.6083162217 1218.99291274 26.6083162217 1208.30105989 15 c 1,0,-1
EndSplineSet
EndChar

StartChar: uniFEAE
Encoding: 65198 65198 185
Width: 883
VWidth: 2553
GlyphClass: 2
Flags: W
AnchorPoint: "Anchor-10" 450.527 955.269 basechar 0
AnchorPoint: "Anchor-7" 297.433 -667.366 basechar 0
LayerCount: 2
Fore
SplineSet
887.330476945 15 m 1,0,-1
 871.923828125 15 l 6,1,2
 698 15 698 15 649.381835938 116.75 c 1,3,-1
 649.382812501 78.0066822695 l 1,4,-1
 649.383794882 -17.3051459798 l 2,5,6
 649 -228 649 -228 519.77005799 -333.060653316 c 0,7,8
 391.5579747 -437.54528637 391.5579747 -437.54528637 125.361019943 -437.412111252 c 2,9,-1
 36.8977007426 -437.367854123 l 1,10,-1
 36.900150535 -284.206832768 l 1,11,-1
 120.543740564 -284.265594036 l 2,12,13
 304 -284 304 -284 400.729486308 -218.077307861 c 0,14,15
 496.584960938 -152.284870858 496.584960938 -152.284870858 496.584960938 -18.5009765625 c 2,16,-1
 496.584960938 593.713644121 l 1,17,-1
 648.209960938 594.59249257 l 1,18,-1
 648.209969109 385.175812493 l 2,19,20
 648 279 648 279 705.222335482 224.054497441 c 0,21,22
 762 169 762 169 871.923828125 169 c 2,23,-1
 887.491779041 169 l 1,24,25
 898.022458315 157.976488041 898.022458315 157.976488041 898.022460938 99 c 2,26,-1
 898.022461427 88.0038285689 l 2,27,28
 898 27 898 27 887.330476945 15 c 1,0,-1
EndSplineSet
PairPos2: "'kern' Horizontal Kerning lookup 15-1" uniFEFB dx=-100 dy=0 dh=-100 dv=0 dx=0 dy=0 dh=0 dv=0
PairPos2: "'kern' Horizontal Kerning lookup 15-1" uniFEDF dx=-100 dy=0 dh=-100 dv=0 dx=0 dy=0 dh=0 dv=0
PairPos2: "'kern' Horizontal Kerning lookup 15-1" uni062F dx=-100 dy=0 dh=-100 dv=0 dx=0 dy=0 dh=0 dv=0
PairPos2: "'kern' Horizontal Kerning lookup 15-2" uniFB90 dx=-142 dy=0 dh=-142 dv=0 dx=0 dy=0 dh=0 dv=0
PairPos2: "'kern' Horizontal Kerning lookup 15-2" uniFB8E dx=-142 dy=0 dh=-142 dv=0 dx=0 dy=0 dh=0 dv=0
PairPos2: "'kern' Horizontal Kerning lookup 15-2" uni06A9 dx=-142 dy=0 dh=-142 dv=0 dx=0 dy=0 dh=0 dv=0
PairPos2: "'kern' Horizontal Kerning lookup 15-2" uniFEEB dx=-100 dy=0 dh=-100 dv=0 dx=0 dy=0 dh=0 dv=0
PairPos2: "'kern' Horizontal Kerning lookup 15-2" uni0647 dx=-100 dy=0 dh=-100 dv=0 dx=0 dy=0 dh=0 dv=0
PairPos2: "'kern' Horizontal Kerning lookup 15-2" uniFEE7 dx=-100 dy=0 dh=-100 dv=0 dx=0 dy=0 dh=0 dv=0
PairPos2: "'kern' Horizontal Kerning lookup 15-2" uniFEE3 dx=-100 dy=0 dh=-100 dv=0 dx=0 dy=0 dh=0 dv=0
PairPos2: "'kern' Horizontal Kerning lookup 15-2" uni0645 dx=-100 dy=0 dh=-100 dv=0 dx=0 dy=0 dh=0 dv=0
PairPos2: "'kern' Horizontal Kerning lookup 15-2" uniFEDB dx=-142 dy=0 dh=-142 dv=0 dx=0 dy=0 dh=0 dv=0
PairPos2: "'kern' Horizontal Kerning lookup 15-2" uni0643 dx=-100 dy=0 dh=-100 dv=0 dx=0 dy=0 dh=0 dv=0
PairPos2: "'kern' Horizontal Kerning lookup 15-2" uniFED7 dx=-100 dy=0 dh=-100 dv=0 dx=0 dy=0 dh=0 dv=0
PairPos2: "'kern' Horizontal Kerning lookup 15-2" uniFED3 dx=-100 dy=0 dh=-100 dv=0 dx=0 dy=0 dh=0 dv=0
PairPos2: "'kern' Horizontal Kerning lookup 15-2" uni0641 dx=-100 dy=0 dh=-100 dv=0 dx=0 dy=0 dh=0 dv=0
PairPos2: "'kern' Horizontal Kerning lookup 15-2" uniFECF dx=-100 dy=0 dh=-100 dv=0 dx=0 dy=0 dh=0 dv=0
PairPos2: "'kern' Horizontal Kerning lookup 15-2" uniFECB dx=-100 dy=0 dh=-100 dv=0 dx=0 dy=0 dh=0 dv=0
PairPos2: "'kern' Horizontal Kerning lookup 15-2" uniFEC7 dx=-100 dy=0 dh=-100 dv=0 dx=0 dy=0 dh=0 dv=0
PairPos2: "'kern' Horizontal Kerning lookup 15-2" uni0638 dx=-100 dy=0 dh=-100 dv=0 dx=0 dy=0 dh=0 dv=0
PairPos2: "'kern' Horizontal Kerning lookup 15-2" uniFEC3 dx=-100 dy=0 dh=-100 dv=0 dx=0 dy=0 dh=0 dv=0
PairPos2: "'kern' Horizontal Kerning lookup 15-2" uni0637 dx=-100 dy=0 dh=-100 dv=0 dx=0 dy=0 dh=0 dv=0
PairPos2: "'kern' Horizontal Kerning lookup 15-2" uniFEBF dx=-100 dy=0 dh=-100 dv=0 dx=0 dy=0 dh=0 dv=0
PairPos2: "'kern' Horizontal Kerning lookup 15-2" uni0636 dx=-100 dy=0 dh=-100 dv=0 dx=0 dy=0 dh=0 dv=0
PairPos2: "'kern' Horizontal Kerning lookup 15-2" uniFEBB dx=-100 dy=0 dh=-100 dv=0 dx=0 dy=0 dh=0 dv=0
PairPos2: "'kern' Horizontal Kerning lookup 15-2" uni0635 dx=-100 dy=0 dh=-100 dv=0 dx=0 dy=0 dh=0 dv=0
PairPos2: "'kern' Horizontal Kerning lookup 15-2" uniFEB7 dx=-100 dy=0 dh=-100 dv=0 dx=0 dy=0 dh=0 dv=0
PairPos2: "'kern' Horizontal Kerning lookup 15-2" uni0634 dx=-100 dy=0 dh=-100 dv=0 dx=0 dy=0 dh=0 dv=0
PairPos2: "'kern' Horizontal Kerning lookup 15-2" uniFEB3 dx=-100 dy=0 dh=-100 dv=0 dx=0 dy=0 dh=0 dv=0
PairPos2: "'kern' Horizontal Kerning lookup 15-2" uni0633 dx=-100 dy=0 dh=-100 dv=0 dx=0 dy=0 dh=0 dv=0
PairPos2: "'kern' Horizontal Kerning lookup 15-2" uniFEA7 dx=-100 dy=0 dh=-100 dv=0 dx=0 dy=0 dh=0 dv=0
PairPos2: "'kern' Horizontal Kerning lookup 15-2" uniFEA3 dx=-100 dy=0 dh=-100 dv=0 dx=0 dy=0 dh=0 dv=0
PairPos2: "'kern' Horizontal Kerning lookup 15-2" uniFE9F dx=-100 dy=0 dh=-100 dv=0 dx=0 dy=0 dh=0 dv=0
PairPos2: "'kern' Horizontal Kerning lookup 15-2" uniFE9B dx=-100 dy=0 dh=-100 dv=0 dx=0 dy=0 dh=0 dv=0
PairPos2: "'kern' Horizontal Kerning lookup 15-2" uni062B dx=-100 dy=0 dh=-100 dv=0 dx=0 dy=0 dh=0 dv=0
PairPos2: "'kern' Horizontal Kerning lookup 15-2" uniFE97 dx=-100 dy=0 dh=-100 dv=0 dx=0 dy=0 dh=0 dv=0
PairPos2: "'kern' Horizontal Kerning lookup 15-2" uni062A dx=-100 dy=0 dh=-100 dv=0 dx=0 dy=0 dh=0 dv=0
PairPos2: "'kern' Horizontal Kerning lookup 15-2" uni0629 dx=-100 dy=0 dh=-100 dv=0 dx=0 dy=0 dh=0 dv=0
PairPos2: "'kern' Horizontal Kerning lookup 15-2" uniFE91 dx=-47 dy=0 dh=-47 dv=0 dx=0 dy=0 dh=0 dv=0
PairPos2: "'kern' Horizontal Kerning lookup 15-2" uni0628 dx=-100 dy=0 dh=-100 dv=0 dx=0 dy=0 dh=0 dv=0
PairPos2: "'kern' Horizontal Kerning lookup 15-2" uni0627 dx=-100 dy=0 dh=-100 dv=0 dx=0 dy=0 dh=0 dv=0
PairPos2: "'kern' Horizontal Kerning lookup 15-2" uni0622 dx=-100 dy=0 dh=-100 dv=0 dx=0 dy=0 dh=0 dv=0
PairPos2: "'kern' Horizontal Kerning lookup 15-2" uni0621 dx=-100 dy=0 dh=-100 dv=0 dx=0 dy=0 dh=0 dv=0
PairPos2: "'kern' Horizontal Kerning lookup 15-2" uniFB94 dx=-142 dy=0 dh=-142 dv=0 dx=0 dy=0 dh=0 dv=0
PairPos2: "'kern' Horizontal Kerning lookup 15-2" uniFB92 dx=-142 dy=0 dh=-142 dv=0 dx=0 dy=0 dh=0 dv=0
PairPos2: "'kern' Horizontal Kerning lookup 15-2" afii57509 dx=-142 dy=0 dh=-142 dv=0 dx=0 dy=0 dh=0 dv=0
PairPos2: "'kern' Horizontal Kerning lookup 15-2" uniFB7C dx=-100 dy=0 dh=-100 dv=0 dx=0 dy=0 dh=0 dv=0
PairPos2: "'kern' Horizontal Kerning lookup 15-2" afii57506 dx=-100 dy=0 dh=-100 dv=0 dx=0 dy=0 dh=0 dv=0
PairPos2: "'kern' Horizontal Kerning lookup 15-2" afii57440 dx=-100 dy=0 dh=-100 dv=0 dx=0 dy=0 dh=0 dv=0
EndChar

StartChar: uniFEB2
Encoding: 65202 65202 189
Width: 2632
VWidth: 2553
GlyphClass: 2
Flags: W
AnchorPoint: "Anchor-10" 1778.4 1065.57 basechar 0
AnchorPoint: "Anchor-7" 691 -665.5 basechar 0
LayerCount: 2
Fore
SplineSet
1870.80977171 385.54141012 m 2,0,1
 1871.35898156 279.559374186 1871.35898156 279.559374186 1916.22997027 224.483241635 c 0,2,3
 1961 169 1961 169 2048.28650683 167.967075482 c 0,4,5
 2106 168 2106 168 2144.52854412 192.877354151 c 0,6,7
 2183 218 2183 218 2202.5947823 266.428151669 c 0,8,9
 2221.73526132 314.337351048 2221.73526132 314.337351048 2221.66210127 384.69040316 c 2,10,-1
 2221.40427847 632.62109375 l 1,11,-1
 2376.56481172 632.62109375 l 1,12,-1
 2377.53031341 387.444865211 l 2,13,14
 2378 280 2378 280 2437.1193097 224.500295339 c 128,-1,15
 2496.0704509 168.93359375 2496.0704509 168.93359375 2609.88574219 168.93359375 c 2,16,-1
 2636.80992429 168.93359375 l 1,17,18
 2647.31685858 157.660021794 2647.31685858 157.660021794 2647.31738281 98.93359375 c 2,19,-1
 2647.31748052 87.9877335955 l 2,20,21
 2647 28 2647 28 2636.51921548 14.93359375 c 1,22,-1
 2617.31816818 14.9335930163 l 2,23,24
 2393 15 2393 15 2302.86186362 182.041818027 c 1,25,26
 2272 14 2272 14 2056.42777242 13.9335929428 c 0,27,28
 1844 14 1844 14 1798.09151818 194.808001339 c 1,29,30
 1758 12 1758 12 1533.47234466 13.9331901181 c 0,31,32
 1389 15 1389 15 1314.57128906 119 c 5,33,-1
 1314.57128906 82.068359375 l 1,34,-1
 1314.57129447 53.8505438179 l 2,35,36
 1315 -193 1315 -193 1174.77405492 -314.234504448 c 0,37,38
 1035.06838094 -435.94042929 1035.06838094 -435.94042929 748.819335938 -435.940429688 c 2,39,-1
 694.10005592 -435.940429764 l 2,40,41
 403 -436 403 -436 259.447721522 -302.097629155 c 0,42,43
 116.217015819 -168.202870471 116.217015819 -168.202870471 116.121092814 103.281667103 c 2,44,-1
 116.005299879 431.002754217 l 1,45,-1
 266.877929688 431.030449375 l 1,46,-1
 266.877930502 104.444275955 l 2,47,48
 267 -86 267 -86 375.656671649 -183.554352198 c 0,49,50
 483.599375302 -280.639672015 483.599375302 -280.639672015 696.272460938 -280.639648438 c 2,51,-1
 747.37270532 -280.639642773 l 2,52,53
 959 -281 959 -281 1068.10692309 -198.156850727 c 0,54,55
 1177.25736137 -114.803464446 1177.25736137 -114.803464446 1177.16210683 48.5663630979 c 2,56,-1
 1176.82319708 629.826073594 l 1,57,-1
 1327.26757812 629.903419123 l 1,58,-1
 1327.2675897 399.313564529 l 2,59,60
 1327 324 1327 324 1350.3508771 273.213846269 c 0,61,62
 1374 222 1374 222 1419.78421065 195.043879774 c 0,63,64
 1466 168 1466 168 1533.89501278 167.933842771 c 0,65,66
 1592 168 1592 168 1632.05787556 192.658671252 c 0,67,68
 1672 218 1672 218 1691.63478729 265.809204154 c 0,69,70
 1711.42372957 315.054461193 1711.42372957 315.054461193 1711.61322399 383.633357456 c 2,71,-1
 1712.29845362 631.62109375 l 1,72,-1
 1869.53456139 631.62109375 l 1,73,-1
 1870.80977171 385.54141012 l 2,0,1
EndSplineSet
EndChar

StartChar: uniFEB3
Encoding: 65203 65203 190
Width: 1643
VWidth: 2553
GlyphClass: 2
Flags: W
AnchorPoint: "Anchor-10" 804.679 1113.53 basechar 0
AnchorPoint: "Anchor-7" 934.307 -327.179 basechar 0
LayerCount: 2
Fore
SplineSet
1029.34570312 386.607421875 m 2,0,1
 1029.70963552 316.388533701 1029.70963552 316.388533701 1050.79394531 268.333007812 c 0,2,3
 1072 220 1072 220 1113.765625 194.67578125 c 0,4,5
 1156 169 1156 169 1216.89257812 169 c 0,6,7
 1297 168 1297 168 1337.6640625 221.13671875 c 0,8,9
 1378.484375 276.65882693 1378.484375 276.65882693 1378.484375 372.9921875 c 2,10,-1
 1378.484375 675.362304688 l 1,11,-1
 1527.2421875 675.362304688 l 1,12,-1
 1527.2421875 365.0390625 l 2,13,14
 1527 187 1527 187 1452.29296875 101.08203125 c 0,15,16
 1377 15 1377 15 1224.95898438 15 c 0,17,18
 1004 15 1004 15 956.178710938 196.037109375 c 5,19,20
 919 15 919 15 681.8984375 15 c 0,21,22
 464 15 464 15 417.813476562 187.146484375 c 1,23,24
 357 15 357 15 88.82421875 15 c 2,25,-1
 -5.0234375 15 l 2,26,27
 -36 15 -36 15 -50.7097802816 31.7910490901 c 0,28,29
 -65.0234354791 49.0282221957 -65.0234354791 49.0282221957 -65.0234375 88 c 2,30,-1
 -65.0234380702 98.9958639707 l 2,31,32
 -65 124 -65 124 -58.547182337 139.891505003 c 0,33,34
 -52 155 -52 155 -39.0941279913 162.152466321 c 0,35,36
 -26 169 -26 169 -5.0234375 169 c 2,37,-1
 89.7529296875 169 l 2,38,39
 207 169 207 169 269.03125 224.053710938 c 0,40,41
 330.673472434 278.710475392 330.673472434 278.710475392 330.87890625 385.951171875 c 2,42,-1
 331.3515625 632.6875 l 1,43,-1
 489.522460938 632.6875 l 1,44,-1
 490.108398438 384.114257812 l 2,45,46
 490 280 490 280 539.4375 224.676757812 c 0,47,48
 588 170 588 170 682.430664062 169 c 0,49,50
 775 168 775 168 822.227539062 223.86328125 c 0,51,52
 869.856754815 278.834673172 869.856754815 278.834673172 870.149414062 384.700195312 c 2,53,-1
 870.834960938 632.6875 l 1,54,-1
 1028.0703125 632.6875 l 1,55,-1
 1029.34570312 386.607421875 l 2,0,1
EndSplineSet
EndChar

StartChar: uniFEB4
Encoding: 65204 65204 191
Width: 1791
VWidth: 2548
GlyphClass: 2
Flags: W
AnchorPoint: "Anchor-10" 880.65 1107.67 basechar 0
LayerCount: 2
Fore
SplineSet
1537.01757812 387.487304688 m 6,0,1
 1537.44257721 279.589533315 1537.44257721 279.589533315 1596.77539062 224.561523438 c 4,2,3
 1656 169 1656 169 1769.37304688 169 c 6,4,-1
 1796.27441406 169 l 6,5,6
 1798 169 1798 169 1800.69335938 159.169921875 c 4,7,8
 1803 152 1803 152 1804.88378906 135.39453125 c 4,9,10
 1806.8046875 123.23622808 1806.8046875 123.23622808 1806.8046875 99 c 6,11,-1
 1806.8046875 87.966796875 l 6,12,13
 1807 26 1807 26 1796.19042969 15 c 5,14,-1
 1776.80078125 15 l 6,15,16
 1552 15 1552 15 1462.34667969 182.258789062 c 5,17,18
 1432 15 1432 15 1208.8984375 15 c 4,19,20
 1004 15 1004 15 956.62890625 191.454101562 c 5,21,22
 908 15 908 15 681.8984375 15 c 4,23,24
 464 15 464 15 417.814453125 188.364257812 c 5,25,26
 357 15 357 15 88.82421875 15 c 6,27,-1
 -5.0234375 15 l 2,28,29
 -36 15 -36 15 -50.7097802816 31.7910490901 c 0,30,31
 -65.0234354791 49.0282221957 -65.0234354791 49.0282221957 -65.0234375 88 c 2,32,-1
 -65.0234380702 98.9958639707 l 2,33,34
 -65 124 -65 124 -58.547182337 139.891505003 c 0,35,36
 -52 155 -52 155 -39.0941279913 162.152466321 c 0,37,38
 -26 169 -26 169 -5.0234375 169 c 2,39,-1
 89.7529296875 169 l 6,40,41
 207 169 207 169 269.03125 224.053710938 c 4,42,43
 330.673472434 278.710475392 330.673472434 278.710475392 330.87890625 385.951171875 c 6,44,-1
 331.3515625 632.6875 l 5,45,-1
 489.522460938 632.6875 l 5,46,-1
 490.108398438 384.114257812 l 6,47,48
 490 313 490 313 512.124023438 267.032226562 c 4,49,50
 534 219 534 219 576.774414062 194.283203125 c 4,51,52
 620 169 620 169 682.430664062 169 c 4,53,54
 775 168 775 168 822.865234375 224.177734375 c 4,55,56
 870.675221169 279.62335144 870.675221169 279.62335144 870.87890625 385.951171875 c 6,57,-1
 871.3515625 632.6875 l 5,58,-1
 1029.52246094 632.6875 l 5,59,-1
 1030.10839844 384.114257812 l 6,60,61
 1030 280 1030 280 1075.97851562 224.838867188 c 4,62,63
 1121 170 1121 170 1209.421875 169 c 4,64,65
 1295 168 1295 168 1337.88183594 224.068359375 c 4,66,67
 1381.25799821 280.33466785 1381.25799821 280.33466785 1381.14941406 384.756835938 c 6,68,-1
 1380.89160156 632.6875 l 5,69,-1
 1536.05175781 632.6875 l 5,70,-1
 1537.01757812 387.487304688 l 6,0,1
EndSplineSet
EndChar

StartChar: uniFEBA
Encoding: 65210 65210 197
Width: 2602
VWidth: 2553
GlyphClass: 2
Flags: W
AnchorPoint: "Anchor-7" 691 -665.5 basechar 0
AnchorPoint: "Anchor-10" 2006.4 1269.57 basechar 0
LayerCount: 2
Fore
SplineSet
2239.39211635 427.014856458 m 0,0,1
 2225.40433616 486.220228027 2225.40433616 486.220228027 2194.43975427 526.376590278 c 0,2,3
 2163.47517239 566.532952529 2163.47517239 566.532952529 2116.45388988 586.770921864 c 0,4,5
 2069.43260737 607.008891199 2069.43260737 607.008891199 2007.29486943 607.01367184 c 0,6,7
 1798.33250225 606.999336836 1798.33250225 606.999336836 1609.51824786 190.723451283 c 2,8,-1
 1599.90412564 169.52734375 l 1,9,-1
 1623.17871094 169.52734375 l 1,10,-1
 1981.4845894 169.527423923 l 2,11,12
 2134.48010902 170.027645706 2134.48010902 170.027645706 2197.14658397 225.794482701 c 0,13,14
 2221.65237448 247.602162576 2221.65237448 247.602162576 2233.8665243 278.698962486 c 0,15,16
 2246.08067412 309.795762396 2246.08067412 309.795762396 2246.17469152 349.05826779 c 0,17,18
 2245.99394725 395.587293898 2245.99394725 395.587293898 2239.39211635 427.014856458 c 0,0,1
1616 15 m 2,19,20
 1390.21699947 15 1390.21699947 15 1342.21200213 90.1437771959 c 2,21,-1
 1314.57128906 133.41068064 l 1,22,-1
 1314.57128906 82.068359375 l 1,23,-1
 1314.57128906 53.86328125 l 2,24,25
 1314.57128906 -192.553361007 1314.57128906 -192.553361007 1174.56211545 -314.261539021 c 0,26,27
 1034.55294184 -435.969717036 1034.55294184 -435.969717036 748.819335938 -435.940429688 c 2,28,-1
 694.1015625 -435.940429688 l 2,29,30
 402.517692903 -435.940429688 402.517692903 -435.940429688 259.289737231 -302.070599265 c 0,31,32
 116.06178156 -168.200768843 116.06178156 -168.200768843 116.121092814 103.281667103 c 2,33,-1
 116.005299879 431.002754217 l 1,34,-1
 266.877929688 431.030449375 l 1,35,-1
 266.877929688 104.44921875 l 2,36,37
 266.877929688 -86.6426539378 266.877929688 -86.6426539378 375.59930942 -183.733333458 c 0,38,39
 484.320689151 -280.824012979 484.320689151 -280.824012979 696.272460938 -280.639648438 c 2,40,-1
 747.385742188 -280.639648438 l 2,41,42
 887.89386261 -280.639648438 887.89386261 -280.639648438 983.350011838 -244.252218339 c 0,43,44
 1078.80616107 -207.86478824 1078.80616107 -207.86478824 1127.95595735 -134.323178549 c 0,45,46
 1177.10575364 -60.7815688579 1177.10575364 -60.7815688579 1177.16210683 48.5663630979 c 2,47,-1
 1176.82319708 629.826073594 l 1,48,-1
 1327.26757812 629.903419123 l 1,49,-1
 1327.26757812 419.294921875 l 2,50,51
 1327.26757812 223.216416744 1327.26757812 223.216416744 1434.54299474 196.446307806 c 2,52,-1
 1447.17110573 193.295018185 l 1,53,-1
 1452.07116176 205.352765257 l 2,54,55
 1679.09555801 764 1679.09555801 764 2017.67480469 764 c 0,56,57
 2217.48332934 764 2217.48332934 764 2319.14307723 627.949685917 c 0,58,59
 2398.05163306 521.960076121 2398.05163306 521.960076121 2399.73753438 359.385740245 c 0,60,61
 2399.99159689 313.47692672 2399.99159689 313.47692672 2391.71526857 273.005257767 c 2,62,-1
 2390.14917292 265.346969899 l 1,63,-1
 2395.52912196 259.676151885 l 2,64,65
 2423.85046724 229.82360242 2423.85046724 229.82360242 2454.45772187 209.702711834 c 0,66,67
 2485.0649765 189.581821248 2485.0649765 189.581821248 2518.19118525 179.290910624 c 0,68,69
 2551.317394 169 2551.317394 169 2586.29296875 169 c 2,70,-1
 2608.56673315 169 l 1,71,72
 2619.04606913 158.129954097 2619.04606913 158.129954097 2619.15136719 99 c 2,73,-1
 2619.15136719 88 l 2,74,75
 2619.15136719 26.6072191393 2619.15136719 26.6072191393 2608.46744957 15 c 1,76,-1
 2580.16699219 15 l 2,77,78
 2434.35794487 15 2434.35794487 15 2330.39744921 122.431059951 c 2,79,-1
 2320.00575846 133.169661613 l 1,80,-1
 2309.22793894 122.818651582 l 2,81,82
 2196.96353538 15 2196.96353538 15 1961.43945312 15 c 2,83,-1
 1616 15 l 2,19,20
EndSplineSet
EndChar

StartChar: uniFEBB
Encoding: 65211 65211 198
Width: 1645
VWidth: 2553
GlyphClass: 2
Flags: W
AnchorPoint: "Anchor-10" 1002.11 1268.04 basechar 0
AnchorPoint: "Anchor-7" 654.109 -248.146 basechar 0
LayerCount: 2
Fore
SplineSet
1400.89475552 98.7932902974 m 0,0,1
 1290.93605745 15 1290.93605745 15 1091.26464844 15 c 2,2,-1
 751.32421875 15 l 2,3,4
 463.567510948 15 463.567510948 15 381.924959675 153.420278023 c 2,5,-1
 369.297487851 174.829434565 l 1,6,-1
 356.241036943 153.679159905 l 2,7,8
 270.631858231 15 270.631858231 15 58.154296875 15 c 2,9,-1
 -5.0234375 15 l 2,10,11
 -36.3961230631 15 -36.3961230631 15 -50.7097802816 31.7910490901 c 0,12,13
 -65.0234375 48.5820981801 -65.0234375 48.5820981801 -65.0234375 88 c 2,14,-1
 -65.0234380702 98.9958639707 l 2,15,16
 -65.0164117246 124.478077363 -65.0164117246 124.478077363 -58.547182337 139.891505003 c 0,17,18
 -52.0779529495 155.304932643 -52.0779529495 155.304932643 -39.0941279913 162.152466321 c 0,19,20
 -26.1103030331 169 -26.1103030331 169 -5.0234375 169 c 2,21,-1
 51.2737486931 169.000000055 l 2,22,23
 164.749580264 169.009741998 164.749580264 169.009741998 223.761997163 227.212251011 c 0,24,25
 282.774414062 285.414760024 282.774414062 285.414760024 282.774414062 397.534179688 c 2,26,-1
 282.774414062 632.1796875 l 1,27,-1
 429.812877257 632.1796875 l 1,28,-1
 430.829408601 393.902072533 l 2,29,30
 431.438336632 298.733579075 431.438336632 298.733579075 465.709651198 247.366789537 c 0,31,32
 499.980965765 196 499.980965765 196 568 196 c 2,33,-1
 578.092680213 196 l 1,34,-1
 581.894865117 205.349095349 l 2,35,36
 809.092680213 764 809.092680213 764 1147.5 764 c 0,37,38
 1346.51845268 764 1346.51845268 764 1449.06974235 627.814979735 c 0,39,40
 1529.01709674 522.913237115 1529.01709674 522.913237115 1529.56304603 359.340763563 c 0,41,42
 1530.25375656 278.392492138 1530.25375656 278.392492138 1498.29562672 213.6456869 c 0,43,44
 1466.33749687 148.898881661 1466.33749687 148.898881661 1400.89475552 98.7932902974 c 0,0,1
1369.20917531 427.048674253 m 0,45,46
 1355.29117999 486.218871501 1355.29117999 486.218871501 1324.34641704 526.368948344 c 0,47,48
 1293.40165409 566.519025187 1293.40165409 566.519025187 1246.35380505 586.763958692 c 0,49,50
 1199.30595602 607.008892197 1199.30595602 607.008892197 1137.12006898 607.01367184 c 0,51,52
 1065.46946445 607.008776813 1065.46946445 607.008776813 997.022518829 559.089772709 c 0,53,54
 928.57557321 511.170768604 928.57557321 511.170768604 864.936199617 419.215650202 c 0,55,56
 801.296826023 327.2605318 801.296826023 327.2605318 739.32738255 189.68791998 c 2,57,-1
 729.795622448 168.52734375 l 1,58,-1
 753.00390625 168.52734375 l 1,59,-1
 1111.30938939 168.527422635 l 2,60,61
 1262.69708643 169.018397697 1262.69708643 169.018397697 1326.94961271 225.774795912 c 0,62,63
 1351.5322105 247.563916677 1351.5322105 247.563916677 1363.76610525 278.704280199 c 0,64,65
 1376 309.844643721 1376 309.844643721 1376 349 c 0,66,67
 1376 395.601106322 1376 395.601106322 1369.20917531 427.048674253 c 0,45,46
EndSplineSet
EndChar

StartChar: uniFEBC
Encoding: 65212 65212 199
Width: 1734
VWidth: 2553
GlyphClass: 2
Flags: W
AnchorPoint: "Anchor-7" 654.109 -248.146 basechar 0
AnchorPoint: "Anchor-10" 1002.11 1268.04 basechar 0
LayerCount: 2
Fore
SplineSet
1738.30105989 15 m 1,0,-1
 1709.9921875 15 l 2,1,2
 1564.35082065 15 1564.35082065 15 1460.2142402 122.439737846 c 2,3,-1
 1449.81448588 133.169366886 l 1,4,-1
 1439.04502917 122.810861618 l 2,5,6
 1326.95700324 15 1326.95700324 15 1091.26464844 15 c 2,7,-1
 751.32421875 15 l 2,8,9
 463.567510948 15 463.567510948 15 381.924959675 153.420278023 c 2,10,-1
 369.297487851 174.829434565 l 1,11,-1
 356.241036943 153.679159905 l 2,12,13
 270.371711421 14.5785855951 270.371711421 14.5785855951 58.1772510634 14.9033027493 c 2,14,-1
 -5.0234375 15 l 2,15,16
 -36.3961230631 15 -36.3961230631 15 -50.7097802816 31.7910490901 c 0,17,18
 -65.0234375 48.5820981801 -65.0234375 48.5820981801 -65.0234375 88 c 2,19,-1
 -65.0234380702 98.9958639707 l 2,20,21
 -65.0164117246 124.478077363 -65.0164117246 124.478077363 -58.547182337 139.891505003 c 0,22,23
 -52.0779529495 155.304932643 -52.0779529495 155.304932643 -39.0941279913 162.152466321 c 0,24,25
 -26.1103030331 169 -26.1103030331 169 -5.0234375 169 c 2,26,-1
 51.2737486931 169.000000055 l 2,27,28
 164.749580264 169.009741998 164.749580264 169.009741998 223.761997163 227.212251011 c 0,29,30
 282.774414062 285.414760024 282.774414062 285.414760024 282.774414062 397.534179688 c 2,31,-1
 282.774414062 632.1796875 l 1,32,-1
 429.812877257 632.1796875 l 1,33,-1
 430.829408601 393.902072533 l 2,34,35
 431.438336632 298.733579075 431.438336632 298.733579075 465.709651198 247.366789537 c 0,36,37
 499.980965765 196 499.980965765 196 568 196 c 2,38,-1
 578.092680213 196 l 1,39,-1
 581.894865117 205.349095349 l 2,40,41
 809.092680213 764 809.092680213 764 1147.5 764 c 0,42,43
 1347.47588716 764 1347.47588716 764 1448.97743804 627.937387989 c 0,44,45
 1528.04636532 521.958772087 1528.04636532 521.958772087 1529.56313705 359.330507024 c 0,46,47
 1529.77483694 336.361068972 1529.77483694 336.361068972 1527.76811319 314.797873467 c 0,48,49
 1525.76138945 293.234677962 1525.76138945 293.234677962 1521.55257692 273.063894702 c 2,50,-1
 1519.94605402 265.364614898 l 1,51,-1
 1525.36535643 259.664528341 l 2,52,53
 1568.03129487 214.787988161 1568.03129487 214.787988161 1615.91823673 191.89399408 c 0,54,55
 1663.80517859 169 1663.80517859 169 1716.11816406 169 c 2,56,-1
 1738.4458806 169 l 2,57,58
 1740.59693791 166.778148406 1740.59693791 166.778148406 1742.86540983 159.169992293 c 0,59,60
 1745.13388176 151.561836181 1745.13388176 151.561836181 1747.05522213 135.394438101 c 0,61,62
 1748.9765625 119.227040021 1748.9765625 119.227040021 1748.9765625 99 c 2,63,-1
 1748.97656303 87.9960049717 l 2,64,65
 1748.84880248 27.7622961062 1748.84880248 27.7622961062 1738.30105989 15 c 1,0,-1
1369.20917531 427.048674253 m 0,66,67
 1355.29117999 486.218871501 1355.29117999 486.218871501 1324.34641704 526.368948344 c 0,68,69
 1293.40165409 566.519025187 1293.40165409 566.519025187 1246.35380505 586.763958692 c 0,70,71
 1199.30595602 607.008892197 1199.30595602 607.008892197 1137.12006898 607.01367184 c 0,72,73
 1065.46946445 607.008776813 1065.46946445 607.008776813 997.022518829 559.089772709 c 0,74,75
 928.57557321 511.170768604 928.57557321 511.170768604 864.936199617 419.215650202 c 0,76,77
 801.296826023 327.2605318 801.296826023 327.2605318 739.32738255 189.68791998 c 2,78,-1
 729.795622448 168.52734375 l 1,79,-1
 753.00390625 168.52734375 l 1,80,-1
 1111.30938939 168.527422635 l 2,81,82
 1262.69708643 169.018397697 1262.69708643 169.018397697 1326.94961271 225.774795912 c 0,83,84
 1351.5322105 247.563916677 1351.5322105 247.563916677 1363.76610525 278.704280199 c 0,85,86
 1376 309.844643721 1376 309.844643721 1376 349 c 0,87,88
 1376 395.601106322 1376 395.601106322 1369.20917531 427.048674253 c 0,66,67
EndSplineSet
EndChar

StartChar: uniFEC2
Encoding: 65218 65218 205
Width: 1427
VWidth: 2553
GlyphClass: 2
Flags: W
AnchorPoint: "Anchor-10" 438.72 1526.47 basechar 0
AnchorPoint: "Anchor-7" 579.72 -236 basechar 0
LayerCount: 2
Fore
SplineSet
785.264594859 15 m 2
 116.770507812 14.9952243464 l 1
 116.770507812 169.180325396 l 1
 252.980143245 169.000013143 l 1
 263.806615375 168.985681223 l 1
 267.230249471 179.25658351 l 2
 279.836865509 217.076431626 279.836865509 217.076431626 374.159720204 395.096346243 c 2
 375.905273438 398.390810121 l 1
 375.905273438 402.119140625 l 1
 375.905273438 1353.64355469 l 1
 516 1353.64355469 l 1
 516 632.859375 l 1
 516 596.967454954 l 1
 541.539342772 622.185938163 l 2
 685.157731923 764 685.157731923 764 841.5 764 c 0
 1041.47588716 764 1041.47588716 764 1142.97743804 627.937387989 c 0
 1222.04636532 521.958772087 1222.04636532 521.958772087 1223.56313705 359.330507024 c 0
 1223.77483694 336.361068972 1223.77483694 336.361068972 1221.76811319 314.797873467 c 0
 1219.76138945 293.234677962 1219.76138945 293.234677962 1215.55257692 273.063894702 c 2
 1213.94605402 265.364614898 l 1
 1219.36535643 259.664528341 l 2
 1262.03129487 214.787988161 1262.03129487 214.787988161 1309.91823673 191.89399408 c 0
 1357.80517859 169 1357.80517859 169 1410.11816406 169 c 2
 1432.4458806 169 l 1
 1442.9765625 158.122738699 1442.9765625 158.122738699 1442.9765625 99 c 2
 1442.97656303 87.9960049717 l 2
 1442.84880248 27.7622961062 1442.84880248 27.7622961062 1432.30105989 15 c 1
 1403.9921875 15 l 2
 1258.35082065 15 1258.35082065 15 1154.2142402 122.439737846 c 2
 1143.81448588 133.169366886 l 1
 1133.04502917 122.810861618 l 2
 1096.02741466 87.2058013719 1096.02741466 87.2058013719 1045.50083621 63.3231060674 c 0
 994.974257756 39.4404107629 994.974257756 39.4404107629 929.718331314 27.2202053815 c 0
 864.462404871 15 864.462404871 15 785.264594859 15 c 2
831.121160367 607.013671914 m 0
 620.306446774 607.013671914 620.306446774 607.013671914 433.000332517 190.68163065 c 2
 423.483103751 169.52734375 l 1
 446.6796875 169.52734375 l 1
 805.309057868 169.527421564 l 2
 957.687368345 170.018241552 957.687368345 170.018241552 1020.94961271 225.774795912 c 0
 1037.37938296 240.337546813 1037.37938296 240.337546813 1048.35431498 259.278425608 c 0
 1059.329247 278.219304403 1059.329247 278.219304403 1064.6646235 300.614942553 c 0
 1070 323.010580703 1070 323.010580703 1070 349 c 0
 1070 364.498882433 1070 364.498882433 1069.27638857 378.126990286 c 0
 1068.55277715 391.755098138 1068.55277715 391.755098138 1067.03992625 404.034915134 c 0
 1065.52707536 416.31473213 1065.52707536 416.31473213 1063.20917531 427.048674253 c 0
 1020.87786475 607.013671914 1020.87786475 607.013671914 831.121160367 607.013671914 c 0
EndSplineSet
EndChar

StartChar: uniFEC3
Encoding: 65219 65219 206
Width: 1166
VWidth: 2553
GlyphClass: 2
Flags: W
AnchorPoint: "Anchor-10" 268.72 1526.47 basechar 0
AnchorPoint: "Anchor-7" 409.72 -236 basechar 0
LayerCount: 2
Fore
SplineSet
612.724609375 15 m 2
 -5.0234375 15 l 2
 -24.6443047305 15 -24.6443047305 15 -34.8338711152 31.266780683 c 0
 -45.0234375 47.533561366 -45.0234375 47.533561366 -45.0234375 88 c 2
 -45.0234380702 98.9958639707 l 2
 -45.012716254 137.880317507 -45.012716254 137.880317507 -34.9230207938 153.440158754 c 0
 -24.8333253336 169 -24.8333253336 169 -5.0234375 169 c 2
 80.7841796875 169 l 1
 91.5221127137 169 l 1
 94.983487191 179.164747533 l 2
 104.818085461 208.045242594 104.818085461 208.045242594 201.955588717 392.118451627 c 2
 203.689453125 395.404082561 l 1
 203.689453125 399.119140625 l 1
 203.689453125 1350.64355469 l 1
 343.784179688 1350.64355469 l 1
 343.784179688 629.859375 l 1
 343.784179688 594.004170551 l 1
 369.315743784 619.178262806 l 2
 405.584885135 654.939593642 405.584885135 654.939593642 442.536748092 681.632590966 c 0
 479.488611049 708.32558829 479.488611049 708.32558829 517.051609376 725.92738254 c 0
 554.614607703 743.52917679 554.614607703 743.52917679 592.765867363 752.264588395 c 0
 630.917127022 761 630.917127022 761 669.959960938 761 c 0
 866.579434913 761 866.579434913 761 970.586920691 624.74038876 c 0
 1050.03090242 521.843226969 1050.03090242 521.843226969 1051.02350662 356.291636252 c 0
 1052.91155348 196.401571553 1052.91155348 196.401571553 922.407553092 97.8335615877 c 0
 812.96351909 15 812.96351909 15 612.724609375 15 c 2
658.581118188 604.013671914 m 0
 448.340651863 604.013671914 448.340651863 604.013671914 260.804364493 190.725568184 c 2
 251.185320845 169.52734375 l 1
 274.463867188 169.52734375 l 1
 632.768517 169.527419956 l 2
 683.534132613 169.68924083 683.534132613 169.68924083 723.64798458 175.238741673 c 0
 763.761836547 180.788242516 763.761836547 180.788242516 795.329410297 192.607094444 c 0
 826.896984048 204.425946373 826.896984048 204.425946373 848.258420727 222.64229007 c 0
 896.957429195 265.144831676 896.957429195 265.144831676 897.458880898 345.819999941 c 0
 898.020801252 392.643309046 898.020801252 392.643309046 890.648018367 424.138150197 c 0
 870.063558095 512.860454261 870.063558095 512.860454261 811.164325601 558.437063088 c 0
 752.265093108 604.013671914 752.265093108 604.013671914 658.581118188 604.013671914 c 0
EndSplineSet
EndChar

StartChar: uniFEC4
Encoding: 65220 65220 207
Width: 1254
VWidth: 2553
GlyphClass: 2
Flags: W
AnchorPoint: "Anchor-10" 268.72 1526.47 basechar 0
AnchorPoint: "Anchor-7" 409.72 -236 basechar 0
LayerCount: 2
Fore
SplineSet
613.079825983 15 m 2,0,-1
 -5.0234375 15 l 2,1,2
 -24.6443047305 15 -24.6443047305 15 -34.8338711152 31.266780683 c 128,-1,3
 -45.0234375 47.533561366 -45.0234375 47.533561366 -45.0234375 88 c 2,4,-1
 -45.0234380719 98.9958577364 l 2,5,6
 -45.0127184083 137.813993006 -45.0127184083 137.813993006 -34.9165830743 153.383942515 c 128,-1,7
 -24.8204477402 168.953892024 -24.8204477402 168.953892024 -4.98844152172 169.000040824 c 2,8,-1
 80.8191756658 169.200236136 l 1,9,-1
 91.507455054 169.225172657 l 1,10,-1
 94.9735522839 179.335865418 l 2,11,12
 104.811962238 208.034754601 104.811962238 208.034754601 201.958709728 392.324564376 c 2,13,-1
 203.689453125 395.607827889 l 1,14,-1
 203.689453125 399.319335938 l 1,15,-1
 203.689453125 1350.84375 l 1,16,-1
 343.784179688 1350.84375 l 1,17,-1
 343.784179688 630.059570312 l 1,18,-1
 343.784179688 594.238846438 l 1,19,-1
 369.308421168 619.371242975 l 2,20,21
 441.670236573 690.622168894 441.670236573 690.622168894 516.544165586 725.863166331 c 128,-1,22
 591.4180946 761.104163768 591.4180946 761.104163768 669.269722781 761.200202279 c 0,23,24
 869.467659041 761.00725266 869.467659041 761.00725266 970.765095599 625.13292369 c 0,25,26
 1050.04028606 518.963736219 1050.04028606 518.963736219 1051.34808827 356.463384137 c 0,27,28
 1051.97815263 310.491289122 1051.97815263 310.491289122 1043.35508303 270.350642264 c 2,29,-1
 1041.69287486 262.613013511 l 1,30,-1
 1047.14152876 256.87315242 l 2,31,32
 1130.36646969 169.200195312 1130.36646969 169.200195312 1237.90234375 169.200195312 c 2,33,-1
 1260.009289 169.200195312 l 1,34,35
 1270.76074219 158.063273437 1270.76074219 158.063273437 1270.76074219 96.2001953125 c 2,36,-1
 1270.76080085 85.1582446484 l 2,37,38
 1270.92683924 25.7893123133 1270.92683924 25.7893123133 1260.30352903 15 c 1,39,-1
 1231.75683931 14.9999872887 l 2,40,41
 1084.31225409 14.8080350704 1084.31225409 14.8080350704 981.962287953 119.677082552 c 2,42,-1
 971.635780497 130.257750447 l 1,43,-1
 960.90693334 120.085281326 l 2,44,45
 849.045463068 14.0247386063 849.045463068 14.0247386063 613.079825983 15 c 2,0,-1
658.906296021 604.213876776 m 0,46,47
 448.331756896 603.989716485 448.331756896 603.989716485 260.805519592 190.928308445 c 2,48,-1
 251.180557218 169.727539062 l 1,49,-1
 274.463867188 169.727539062 l 1,50,-1
 633.072359055 169.727564155 l 2,51,52
 787.605756033 170.010228666 787.605756033 170.010228666 848.677763911 222.925578191 c 0,53,54
 898.020043558 266.223899916 898.020043558 266.223899916 897.784286214 346.186177312 c 0,55,56
 898.007916302 392.607128927 898.007916302 392.607128927 890.985454949 424.282054987 c 0,57,58
 870.20946577 512.986585393 870.20946577 512.986585393 811.331543405 558.544062371 c 128,-1,59
 752.45362104 604.101539349 752.45362104 604.101539349 658.906296021 604.213876776 c 0,46,47
EndSplineSet
EndChar

StartChar: uniFECA
Encoding: 65226 65226 213
Width: 1237
VWidth: 2553
GlyphClass: 2
Flags: W
AnchorPoint: "Anchor-7" 310.84 -842 basechar 0
AnchorPoint: "Anchor-10" 678.282 1144.27 basechar 0
LayerCount: 2
Fore
SplineSet
115.107748931 -183.874273199 m 0,0,1
 119.838592892 128.23767806 119.838592892 128.23767806 499.874163326 258.81400226 c 2,2,-1
 527.312810654 268.24164006 l 1,3,-1
 503.756614532 285.178739752 l 2,4,5
 268.151668242 454.580643283 268.151668242 454.580643283 270.471284702 572.758419571 c 0,6,7
 272.802420707 683.459435021 272.802420707 683.459435021 399.932224319 744.37028238 c 0,8,9
 485.396506044 785.005727442 485.396506044 785.005727442 675.122870746 785.323253883 c 0,10,11
 928.131839679 785.007316006 928.131839679 785.007316006 1018.09628248 702.043993528 c 0,12,13
 1042.242399 680.022386831 1042.242399 680.022386831 1058.15354015 657.868084117 c 0,14,15
 1074.06468131 635.713781403 1074.06468131 635.713781403 1081.67463559 614.208788403 c 0,16,17
 1089.28458987 592.703795403 1089.28458987 592.703795403 1089.40535179 570.95151711 c 0,18,19
 1089.96972814 396.341443394 1089.96972814 396.341443394 806.402747632 257.471312527 c 2,20,-1
 782.282778537 245.659135881 l 1,21,-1
 804.990105129 231.317666455 l 2,22,23
 903.659743682 169 903.659743682 169 1149.4453125 169 c 2,24,-1
 1241.4458806 169 l 1,25,26
 1251.9765625 158.122738699 1251.9765625 158.122738699 1251.9765625 99 c 2,27,-1
 1251.97656303 87.9960049717 l 2,28,29
 1251.99291274 26.6083162217 1251.99291274 26.6083162217 1241.30105989 15 c 1,30,-1
 1138.21679688 15 l 2,31,32
 859.882543044 15 859.882543044 15 657.829574019 162.125948319 c 2,33,-1
 651.716045393 166.577546833 l 1,34,-1
 644.501592681 164.309588799 l 2,35,36
 265.222484757 45.0782161181 265.222484757 45.0782161181 260.690431238 -177.478863127 c 0,37,38
 260.608019316 -181.646899032 260.608019316 -181.646899032 260.605297363 -185.770415625 c 0,39,40
 260.492628683 -358.579648556 260.492628683 -358.579648556 398.453266509 -444.481334334 c 0,41,42
 536.413904334 -530.383020113 536.413904334 -530.383020113 804.487346135 -530.172846952 c 2,43,-1
 1113.33007812 -529.930710123 l 1,44,-1
 1113.33007812 -680.434695155 l 1,45,-1
 792.47054516 -679.582047831 l 2,46,47
 407.06149675 -679.008996055 407.06149675 -679.008996055 251.463772214 -529.033477191 c 0,48,49
 112.091488536 -394.712201083 112.091488536 -394.712201083 115.107748931 -183.874273199 c 0,0,1
931.819447719 541.552033874 m 0,50,51
 931.242530766 569.962798973 931.242530766 569.962798973 913.147855985 590.399261097 c 0,52,53
 895.053181203 610.835723221 895.053181203 610.835723221 860.426584334 623.033798029 c 0,54,55
 825.799987464 635.231872838 825.799987464 635.231872838 779.460051168 640.947163842 c 0,56,57
 733.120114871 646.662454847 733.120114871 646.662454847 671.813680065 646.885740046 c 0,58,59
 561.414372393 646.94473747 561.414372393 646.94473747 502.217615823 623.803720464 c 0,60,61
 443.020859254 600.662703459 443.020859254 600.662703459 443.055681754 548.265225843 c 0,62,63
 442.988903213 504.786537236 442.988903213 504.786537236 524.979745083 439.384849708 c 0,64,65
 641.683152899 345.438749351 641.683152899 345.438749351 656.655817978 337.416082539 c 2,66,-1
 662.997738114 334.017949213 l 1,67,-1
 669.617415074 336.837016088 l 2,68,69
 788.860507062 387.618081812 788.860507062 387.618081812 855.774525741 428.172032527 c 0,70,-1
 856.466994636 428.618158382 l 2,71,72
 933.324315188 481.175002584 933.324315188 481.175002584 931.819447719 541.552033874 c 0,50,51
EndSplineSet
EndChar

StartChar: uniFECB
Encoding: 65227 65227 214
Width: 982
VWidth: 2553
GlyphClass: 2
Flags: W
AnchorPoint: "Anchor-10" 486.602 1253.91 basechar 0
AnchorPoint: "Anchor-7" 421.228 -244.038 basechar 0
LayerCount: 2
Fore
SplineSet
-5.0234375 15 m 2,0,1
 -36.3961230631 15 -36.3961230631 15 -50.7097802816 31.7910490901 c 0,2,3
 -65.0234375 48.5820981801 -65.0234375 48.5820981801 -65.0234375 88 c 2,4,-1
 -65.0234380702 98.9958639707 l 2,5,6
 -65.0164117246 124.478077363 -65.0164117246 124.478077363 -58.547182337 139.891505003 c 0,7,8
 -52.0779529495 155.304932643 -52.0779529495 155.304932643 -39.0941279913 162.152466321 c 0,9,10
 -26.1103030331 169 -26.1103030331 169 -5.0234375 169 c 2,11,-1
 258.684570312 169 l 1,12,-1
 298.844396476 169 l 1,13,-1
 268.517962051 195.327153522 l 2,14,15
 234.105553702 225.201445533 234.105553702 225.201445533 208.472342453 257.431394492 c 0,16,17
 182.839131205 289.661343452 182.839131205 289.661343452 165.909041912 324.354728973 c 0,18,19
 148.978952619 359.048114495 148.978952619 359.048114495 140.623407621 396.165056984 c 0,20,21
 132.267862623 433.281999474 132.267862623 433.281999474 132.352420427 473.147373653 c 0,22,23
 132.975696579 629.859492011 132.975696579 629.859492011 247.663089985 747.127801381 c 0,24,25
 353.310945652 855.005891296 353.310945652 855.005891296 524.294054613 855.165044343 c 0,26,27
 561.439072523 855.133877155 561.439072523 855.133877155 595.674110026 849.593556643 c 0,28,29
 629.90914753 844.053236131 629.90914753 844.053236131 661.262425254 833.030278973 c 0,30,31
 692.615702978 822.007321814 692.615702978 822.007321814 721.247176481 805.441469599 c 0,32,33
 749.878649984 788.875617385 749.878649984 788.875617385 775.753794317 766.869364652 c 0,34,35
 801.628938651 744.863111919 801.628938651 744.863111919 824.970454948 717.280222398 c 1,36,-1
 764.76527924 607.021415154 l 1,37,38
 713.982589308 652.000371351 713.982589308 652.000371351 654.875621282 674.435796893 c 0,39,40
 595.768653255 696.871222435 595.768653255 696.871222435 528.65075434 696.749966686 c 0,41,42
 487.11125073 696.837514748 487.11125073 696.837514748 451.246546802 686.481806076 c 0,43,44
 415.381842874 676.126097403 415.381842874 676.126097403 385.478789206 655.293760596 c 0,45,46
 355.575735538 634.461423789 355.575735538 634.461423789 332.292438788 603.431908723 c 0,47,48
 327.608342701 597.181441779 327.608342701 597.181441779 323.431924058 590.706064896 c 0,49,50
 319.255505414 584.230688014 319.255505414 584.230688014 315.596478166 577.547209098 c 0,51,52
 311.937450918 570.863730183 311.937450918 570.863730183 308.788616653 563.965880771 c 0,53,54
 305.639782387 557.06803136 305.639782387 557.06803136 303.008499033 549.968012386 c 0,55,56
 300.37721568 542.867993412 300.37721568 542.867993412 298.258797916 535.564450516 c 0,57,58
 296.140380151 528.26090762 296.140380151 528.26090762 294.539672815 520.761127633 c 0,59,60
 292.938965479 513.261347645 292.938965479 513.261347645 291.85379634 505.568890309 c 0,61,62
 290.7686272 497.876432972 290.7686272 497.876432972 290.201328005 489.993671015 c 0,63,64
 289.63402881 482.110909058 289.63402881 482.110909058 289.584783351 474.046009194 c 0,65,66
 290.027970693 359.757899957 290.027970693 359.757899957 399.41521657 272.449993848 c 0,67,68
 487.613201932 201.062294046 487.613201932 201.062294046 544.256786157 200.397175701 c 0,69,70
 559.735554825 200.166327959 559.735554825 200.166327959 590.209470044 205.81785516 c 0,71,72
 620.683385263 211.469382362 620.683385263 211.469382362 671.280163605 223.570627793 c 2,73,-1
 867 270.380995046 l 1,74,-1
 867 116.197143981 l 1,75,76
 694.818727999 65.4520009142 694.818727999 65.4520009142 544.501443802 40.2260004571 c 0,77,78
 394.184159605 15 394.184159605 15 264.7578125 15 c 2,79,-1
 -5.0234375 15 l 2,0,1
EndSplineSet
EndChar

StartChar: uniFECC
Encoding: 65228 65228 215
Width: 1134
VWidth: 2553
GlyphClass: 2
Flags: W
AnchorPoint: "Anchor-10" 555.677 1208.6 basechar 0
AnchorPoint: "Anchor-7" 522.382 -239.212 basechar 0
LayerCount: 2
Fore
SplineSet
1138.30078125 15 m 1,0,-1
 1058.58203125 15 l 2,1,2
 761 15 761 15 606.656512046 139.698795761 c 1,3,4
 464 15 464 15 35.9580078125 15 c 2,5,-1
 -5.0234375 15 l 2,6,7
 -36 15 -36 15 -50.7097802816 31.7910490901 c 0,8,9
 -65.0234356567 49.0282222934 -65.0234356567 49.0282222934 -65.0234375 88 c 2,10,-1
 -65.0234380201 98.9960498597 l 2,11,12
 -65 139 -65 139 -50.6378045257 155.480126961 c 0,13,14
 -39 169 -39 169 -5.0234375 169 c 2,15,-1
 35.330078125 169 l 2,16,17
 370.705889082 169 370.705889082 169 462.826057889 215.747796885 c 2,18,-1
 488.414126345 228.732855883 l 1,19,-1
 463.147252588 242.332344661 l 2,20,21
 174 398 174 398 177.470579589 548.726544562 c 0,22,23
 180 648 180 648 310.949417456 711.378470534 c 0,24,25
 402 755 402 755 592.116063446 755.323263928 c 0,26,27
 779 755 779 755 888.290010706 709.644935678 c 0,28,29
 950 684 950 684 979.841930718 645.006471783 c 0,30,31
 1010 606 1010 606 1010.34750085 550.843047804 c 0,32,33
 1011.99533993 401.422559021 1011.99533993 401.422559021 740.194970536 235.809430708 c 2,34,-1
 712.188739434 218.744702079 l 1,35,-1
 743.414103788 208.718208938 l 2,36,37
 867 169 867 169 1065.32910156 169 c 2,38,-1
 1138.2421875 169 l 2,39,40
 1141 169 1141 169 1145.44140625 149.264648438 c 0,41,42
 1148.9765625 130.126880231 1148.9765625 130.126880231 1148.9765625 99 c 2,43,-1
 1148.9765625 87.99609375 l 2,44,45
 1149 27 1149 27 1138.30078125 15 c 1,0,-1
845.817855624 516.624644211 m 0,46,47
 845.046407871 552.49965052 845.046407871 552.49965052 813.841038701 575.102062 c 128,-1,48
 782.63566953 597.704473479 782.63566953 597.704473479 729.751489763 607.144938168 c 128,-1,49
 676.867309996 616.585402858 676.867309996 616.585402858 598.812994368 616.885740397 c 0,50,51
 349.990516255 617.007336732 349.990516255 617.007336732 350.055683881 514.266571451 c 0,52,53
 350.016652707 490.256236321 350.016652707 490.256236321 373.216668736 465.333326643 c 128,-1,54
 396.416684766 440.410416966 396.416684766 440.410416966 442.980674296 408.64537386 c 0,55,56
 578.868072646 316.714731956 578.868072646 316.714731956 603.029676361 306.767240122 c 2,57,-1
 607.697903504 304.845300175 l 1,58,-1
 612.578238547 306.137015191 l 2,59,60
 618.719470629 307.762461319 618.719470629 307.762461319 628.301115536 312.998754213 c 128,-1,61
 637.882760442 318.235047107 637.882760442 318.235047107 649.414527602 325.827922249 c 128,-1,62
 660.946294762 333.42079739 660.946294762 333.42079739 678.753550291 346.426012892 c 128,-1,63
 696.560805819 359.431228393 696.560805819 359.431228393 714.368319045 372.906495052 c 128,-1,64
 732.175832271 386.38176171 732.175832271 386.38176171 759.093909411 407.070862321 c 0,65,66
 803.07526962 440.325061504 803.07526962 440.325061504 824.850861755 466.37674651 c 128,-1,67
 846.62645389 492.428431516 846.62645389 492.428431516 845.817855624 516.624644211 c 0,46,47
EndSplineSet
EndChar

StartChar: uniFEDA
Encoding: 65242 65242 229
Width: 1969
VWidth: 2553
GlyphClass: 2
Flags: W
AnchorPoint: "Anchor-10" 927.382 1479.15 basechar 0
AnchorPoint: "Anchor-7" 849.692 -230.794 basechar 0
LayerCount: 2
Fore
SplineSet
701.639167861 728.761264118 m 2,0,1
 767.260672729 720.491210938 767.260672729 720.491210938 832.82421875 720.491210938 c 0,2,3
 855.223489513 720.491210938 855.223489513 720.491210938 876.641288043 722.994863839 c 128,-1,4
 898.059086574 725.49851674 898.059086574 725.49851674 918.548970873 730.531391971 c 128,-1,5
 939.038855173 735.564267203 939.038855173 735.564267203 958.462316865 743.113607814 c 0,6,7
 1003.36961669 760.567583911 1003.36961669 760.567583911 1027.7145935 785.128033109 c 128,-1,8
 1052.05957031 809.688482307 1052.05957031 809.688482307 1052.05957031 841.939453125 c 0,9,10
 1052.05957031 875.50018468 1052.05957031 875.50018468 1024.64019109 895.556386886 c 128,-1,11
 997.220811875 915.612589092 997.220811875 915.612589092 948.519830492 923.317668874 c 0,12,13
 926.737245921 926.763972227 926.737245921 926.763972227 908.387358385 932.1356539 c 128,-1,14
 890.037470849 937.507335574 890.037470849 937.507335574 875.533662757 944.609445516 c 128,-1,15
 861.029854666 951.711555459 861.029854666 951.711555459 849.999007571 960.320401282 c 128,-1,16
 838.968160476 968.929247105 838.968160476 968.929247105 831.139637388 979.168535635 c 0,17,18
 805.697682119 1012.44360633 805.697682119 1012.44360633 798.88622258 1045.89160599 c 128,-1,19
 792.074763041 1079.33960565 792.074763041 1079.33960565 803.286196616 1113.9679549 c 0,20,21
 847.379908865 1252.56110486 847.379908865 1252.56110486 1101.55678879 1271.45139225 c 2,22,-1
 1114.71484375 1272.42907103 l 1,23,-1
 1114.71484375 1201.98744869 l 1,24,-1
 1103.45870621 1201.07171596 l 2,25,26
 873.592773438 1182.37419231 873.592773438 1182.37419231 873.592773438 1073.37695312 c 0,27,28
 873.592773438 1013.8442331 873.592773438 1013.8442331 937.938570993 993.141601241 c 0,29,30
 966.963473434 983.804278619 966.963473434 983.804278619 1019.59755515 976.06200208 c 0,31,32
 1066.21987477 969.204788689 1066.21987477 969.204788689 1096.46088993 939.91159748 c 0,33,34
 1110.99641192 925.831244786 1110.99641192 925.831244786 1118.30289346 906.377996139 c 128,-1,35
 1125.609375 886.924747493 1125.609375 886.924747493 1125.609375 860.932617188 c 0,36,37
 1125.609375 808.163671888 1125.609375 808.163671888 1104.61491695 774.808714568 c 0,38,39
 1077.96181203 732.463672367 1077.96181203 732.463672367 1039.83964705 703.550847781 c 128,-1,40
 1001.71748206 674.638023195 1001.71748206 674.638023195 951.079087075 658.764054576 c 128,-1,41
 900.440692086 642.890085956 900.440692086 642.890085956 837.486609115 641.008747107 c 128,-1,42
 774.532526144 639.127408258 774.532526144 639.127408258 698.215585255 650.84533753 c 2,43,-1
 687.857421875 652.464870662 l 1,44,-1
 687.857421875 730.497975713 l 1,45,-1
 701.639167861 728.761264118 l 2,0,1
1659.99260926 155.4704609 m 2,46,47
 1579.31700671 15 1579.31700671 15 1346.62988281 15 c 2,48,-1
 534.767578125 15 l 2,49,50
 464.079417877 15 464.079417877 15 405.631355034 26.6867667046 c 128,-1,51
 347.183292191 38.3735334091 347.183292191 38.3735334091 300.503362917 61.962135148 c 128,-1,52
 253.823433642 85.5507368869 253.823433642 85.5507368869 219.094776032 121.03945391 c 128,-1,53
 184.366118421 156.528170934 184.366118421 156.528170934 161.254939386 204.245092863 c 128,-1,54
 138.143760351 251.962014791 138.143760351 251.962014791 126.685815855 311.784865832 c 128,-1,55
 115.227871359 371.607716872 115.227871359 371.607716872 115.227539062 443.977607937 c 2,56,-1
 115.226631375 641.66015625 l 1,57,-1
 263.984375 641.66015625 l 1,58,-1
 263.984375027 444.540116055 l 2,59,60
 263.989783541 354.355166 263.989783541 354.355166 294.93950997 292.888250843 c 128,-1,61
 325.889236398 231.421335687 325.889236398 231.421335687 386.926490542 200.210667843 c 128,-1,62
 447.963744686 169 447.963744686 169 537.549804688 169 c 2,63,-1
 1351.84667969 169 l 2,64,65
 1431.1357776 169 1431.1357776 169 1484.93426468 201.317382319 c 128,-1,66
 1538.73275177 233.634764638 1538.73275177 233.634764638 1565.57438369 296.265211659 c 128,-1,67
 1592.41601562 358.89565868 1592.41601562 358.89565868 1592.41601562 450.396484375 c 2,68,-1
 1592.41601562 1352.18847656 l 1,69,-1
 1733.17382812 1352.18847656 l 1,70,-1
 1733.17383173 447.402014935 l 2,71,72
 1733.12914903 383.038584865 1733.12914903 383.038584865 1746.57763149 333.122379804 c 128,-1,73
 1760.02611394 283.206174743 1760.02611394 283.206174743 1786.695457 248.392805953 c 128,-1,74
 1813.36480006 213.579437164 1813.36480006 213.579437164 1853.79083418 194.532198744 c 128,-1,75
 1894.2168683 175.484960325 1894.2168683 175.484960325 1947.47888793 173.12601814 c 2,76,-1
 1973.65754763 171.966581358 l 1,77,78
 1984.734375 160.743343864 1984.734375 160.743343864 1984.734375 97.93359375 c 2,79,-1
 1984.73444344 86.8882827749 l 2,80,81
 1984.79829013 65.7522117572 1984.79829013 65.7522117572 1982.73393513 48.6041830371 c 128,-1,82
 1980.66958013 31.4561543171 1980.66958013 31.4561543171 1978.36937404 23.6794072439 c 128,-1,83
 1976.06916795 15.9026601708 1976.06916795 15.9026601708 1974.14353111 13.93359375 c 2,84,-1
 1942.76042421 13.9335927264 l 2,85,86
 1771.46549487 13.9968736439 1771.46549487 13.9968736439 1685.83952765 155.755419384 c 2,87,-1
 1672.67420071 177.551349541 l 1,88,-1
 1659.99260926 155.4704609 l 2,46,47
EndSplineSet
EndChar

StartChar: uniFEDB
Encoding: 65243 65243 230
Width: 898
VWidth: 2553
GlyphClass: 2
Flags: W
AnchorPoint: "Anchor-10" 296.18 1446.67 basechar 0
AnchorPoint: "Anchor-7" 329.179 -218.565 basechar 0
LayerCount: 2
Fore
SplineSet
-5.01870526206 14.9999992535 m 2,0,1
 -36.391758445 14.9999992535 -36.391758445 14.9999992535 -50.7075979725 31.7959914009 c 128,-1,2
 -65.0234375 48.5919835482 -65.0234375 48.5919835482 -65.0234375 88 c 2,3,-1
 -65.0234380702 98.9958639707 l 2,4,5
 -65.0164117246 124.478077363 -65.0164117246 124.478077363 -58.547182337 139.891505003 c 128,-1,6
 -52.0779529495 155.304932643 -52.0779529495 155.304932643 -39.0941279913 162.152466321 c 128,-1,7
 -26.1103030331 169 -26.1103030331 169 -5.0234375 169 c 2,8,-1
 302.91796875 169 l 2,9,10
 564.919619776 169 564.919619776 169 565.707790396 315.687793069 c 0,11,12
 566.032156877 375.932086605 566.032156877 375.932086605 450.924823948 507.20672336 c 2,13,-1
 130.301369863 872.863013699 l 2,14,15
 86.0424127235 923.576402088 86.0424127235 923.576402088 86.6211071803 1000.24115328 c 0,16,17
 86.9405042857 1028.42483535 86.9405042857 1028.42483535 93.592544823 1051.23442513 c 128,-1,18
 100.24458536 1074.04401491 100.24458536 1074.04401491 113.556675657 1092.08501092 c 128,-1,19
 126.868765953 1110.12600693 126.868765953 1110.12600693 146.854468856 1123.37646218 c 128,-1,20
 166.840171759 1136.62691743 166.840171759 1136.62691743 193.966794671 1145.55915916 c 2,21,-1
 801.5 1345.60740939 l 1,22,-1
 801.5 1192.82640469 l 1,23,-1
 242.554215239 1010.24095762 l 1,24,-1
 220.911331755 1003.1710849 l 1,25,-1
 235.949110132 986.075391663 l 1,26,-1
 555.686185549 622.582428506 l 2,27,28
 705.054694177 452.291272103 705.054694177 452.291272103 706.339385835 319.875263713 c 0,29,30
 707.614256378 166.572665702 707.614256378 166.572665702 608.110527099 90.7053125376 c 128,-1,31
 508.606797821 14.8379593727 508.606797821 14.8379593727 301.43149005 14.903319566 c 2,32,-1
 -5.01870526206 14.9999992535 l 2,0,1
EndSplineSet
EndChar

StartChar: uniFEDC
Encoding: 65244 65244 231
Width: 1066
VWidth: 2553
GlyphClass: 2
Flags: W
AnchorPoint: "Anchor-7" 340 -260 basechar 0
AnchorPoint: "Anchor-10" 351.1 1442.44 basechar 0
LayerCount: 2
Fore
SplineSet
809.144948926 333.729895368 m 2,0,1
 952.266895791 170.84497774 952.266895791 170.84497774 1046.25881377 169.002879921 c 2,2,-1
 1070.34054056 168.530914912 l 2,3,4
 1072.32410349 166.66907282 1072.32410349 166.66907282 1074.6337755 159.210666574 c 128,-1,5
 1076.94344752 151.752260328 1076.94344752 151.752260328 1079.00590345 135.339362246 c 128,-1,6
 1081.06835938 118.926464163 1081.06835938 118.926464163 1081.06835938 98.51953125 c 2,7,-1
 1081.06836396 87.5312473817 l 2,8,9
 1081.05204757 66.6416164599 1081.05204757 66.6416164599 1079.01180776 49.621242399 c 128,-1,10
 1076.97156794 32.6008683381 1076.97156794 32.6008683381 1074.67040024 24.6538488379 c 128,-1,11
 1072.36923253 16.7068293378 1072.36923253 16.7068293378 1070.35975098 14.51953125 c 2,12,-1
 1056.485446 14.5194898296 l 2,13,14
 859.633519573 14.9821022467 859.633519573 14.9821022467 716.6181802 210.845584586 c 2,15,-1
 699.48553155 234.309223109 l 1,16,-1
 690.277264866 206.75422706 l 2,17,18
 626.130727405 14.8008826243 626.130727405 14.8008826243 301.43149005 14.903319566 c 2,19,-1
 -5.0234375 15 l 2,20,21
 -36.3961230631 15 -36.3961230631 15 -50.7097802816 31.7910490901 c 128,-1,22
 -65.0234375 48.5820981801 -65.0234375 48.5820981801 -65.0234375 88 c 2,23,-1
 -65.0234380702 98.9958639707 l 2,24,25
 -65.0164117246 124.478077363 -65.0164117246 124.478077363 -58.547182337 139.891505003 c 128,-1,26
 -52.0779529495 155.304932643 -52.0779529495 155.304932643 -39.0941279913 162.152466321 c 128,-1,27
 -26.1103030331 169 -26.1103030331 169 -5.0234375 169 c 2,28,-1
 302.91796875 169 l 2,29,30
 564.919619776 169 564.919619776 169 565.707790396 315.687793069 c 0,31,32
 566.032156877 375.932086605 566.032156877 375.932086605 450.924823948 507.20672336 c 2,33,-1
 130.301369863 872.863013699 l 2,34,35
 86.0424127235 923.576402088 86.0424127235 923.576402088 86.6211071803 1000.24115328 c 0,36,37
 86.9405042857 1028.42483535 86.9405042857 1028.42483535 93.592544823 1051.23442513 c 128,-1,38
 100.24458536 1074.04401491 100.24458536 1074.04401491 113.556675657 1092.08501092 c 128,-1,39
 126.868765953 1110.12600693 126.868765953 1110.12600693 146.854468856 1123.37646218 c 128,-1,40
 166.840171759 1136.62691743 166.840171759 1136.62691743 193.966794671 1145.55915916 c 2,41,-1
 801.5 1345.60740939 l 1,42,-1
 801.5 1192.82640469 l 1,43,-1
 242.554215239 1010.24095762 l 1,44,-1
 220.924010428 1003.17522652 l 1,45,-1
 235.94377705 986.081457868 l 1,46,-1
 809.144948926 333.729895368 l 2,0,1
EndSplineSet
EndChar

StartChar: uniFEDE
Encoding: 65246 65246 233
Width: 1497
VWidth: 2553
GlyphClass: 2
Flags: W
AnchorPoint: "Anchor-7" 691 -665.5 basechar 0
AnchorPoint: "Anchor-10" 604.754 1191.62 basechar 0
LayerCount: 2
Fore
SplineSet
1102.3652299 88.4276131638 m 2,0,-1
 1101.38855515 1351.63671875 l 1,1,-1
 1240.29882812 1351.63671875 l 1,2,-1
 1240.29882812 433.765625 l 2,3,4
 1240.29882812 369.258231371 1240.29882812 369.258231371 1255.15853526 319.819947401 c 128,-1,5
 1270.01824239 270.381663431 1270.01824239 270.381663431 1299.27642743 236.869050868 c 128,-1,6
 1328.53461247 203.356438304 1328.53461247 203.356438304 1372.53065314 186.178219152 c 128,-1,7
 1416.52669381 169 1416.52669381 169 1474.24902344 169 c 2,8,-1
 1501.45422619 169 l 1,9,10
 1511.99286442 158.121620718 1511.99286442 158.121620718 1511.9765625 99 c 2,11,-1
 1511.9765625 88 l 2,12,13
 1511.9765625 26.6072191393 1511.9765625 26.6072191393 1501.29264488 15 c 1,14,-1
 1480.84960938 15 l 2,15,16
 1324.42080885 15 1324.42080885 15 1266.6099105 90.7369971043 c 2,17,-1
 1240.36351949 125.121912345 l 1,18,-1
 1239.68835067 81.8698651768 l 1,19,-1
 1239.25671004 54.2184979865 l 2,20,21
 1235.43211906 -190.788953912 1235.43211906 -190.788953912 1106.92633315 -311.351221386 c 128,-1,22
 978.420547246 -431.91348886 978.420547246 -431.91348886 720.430664062 -431.830078125 c 2,23,-1
 674.186523438 -431.830078125 l 2,24,25
 392.685944626 -431.830078125 392.685944626 -431.830078125 254.373858603 -299.05623377 c 128,-1,26
 116.06177258 -166.282389416 116.06177258 -166.282389416 116.121092814 103.281667103 c 2,27,-1
 116.005299868 431.002785009 l 1,28,-1
 264.877929688 431.030418583 l 1,29,-1
 264.877929688 104.44921875 l 2,30,31
 264.877929688 -84.2044230648 264.877929688 -84.2044230648 368.529946032 -180.362646898 c 128,-1,32
 472.181962377 -276.52087073 472.181962377 -276.52087073 674.355892602 -276.528320302 c 2,33,-1
 727.342767372 -276.530260714 l 2,34,35
 912.643503944 -276.77161285 912.643503944 -276.77161285 1007.57420168 -184.49470302 c 128,-1,36
 1102.50489941 -92.2177931896 1102.50489941 -92.2177931896 1102.3652299 88.4276131638 c 2,0,-1
EndSplineSet
EndChar

StartChar: uniFEDF
Encoding: 65247 65247 234
Width: 600
VWidth: 2553
GlyphClass: 2
Flags: W
AnchorPoint: "Anchor-10" 361.682 1513.64 basechar 0
AnchorPoint: "Anchor-7" 181.01 -242.415 basechar 0
LayerCount: 2
Fore
SplineSet
-5.0234375 15 m 2,0,1
 -36.3961230631 15 -36.3961230631 15 -50.7097802816 31.7910490901 c 128,-1,2
 -65.0234375 48.5820981801 -65.0234375 48.5820981801 -65.0234375 88 c 2,3,-1
 -65.0234380702 98.9958639707 l 2,4,5
 -65.0164117246 124.478077363 -65.0164117246 124.478077363 -58.547182337 139.891505003 c 128,-1,6
 -52.0779529495 155.304932643 -52.0779529495 155.304932643 -39.0941279913 162.152466321 c 128,-1,7
 -26.1103030331 169 -26.1103030331 169 -5.0234375 169 c 2,8,-1
 96.9697265625 169 l 2,9,10
 198.931061749 169 198.931061749 169 251.444046499 228.873646114 c 128,-1,11
 303.95703125 288.747292229 303.95703125 288.747292229 303.95703125 402.866210938 c 2,12,-1
 303.95703125 1353.15820312 l 1,13,-1
 444.71484375 1353.15820312 l 1,14,-1
 444.71484766 394.92764616 l 2,15,16
 444.853884795 202.362643041 444.853884795 202.362643041 358.614851143 108.681321521 c 128,-1,17
 272.375817492 15 272.375817492 15 96.173828125 15 c 2,18,-1
 -5.0234375 15 l 2,0,1
EndSplineSet
EndChar

StartChar: uniFEE0
Encoding: 65248 65248 235
Width: 699
VWidth: 2553
GlyphClass: 2
Flags: W
AnchorPoint: "Anchor-10" 357.225 1533.2 basechar 0
AnchorPoint: "Anchor-7" 243.065 -238.554 basechar 0
LayerCount: 2
Fore
SplineSet
704.002892804 15 m 1,0,-1
 659.068359375 15 l 2,1,2
 498.853071474 15 498.853071474 15 382.573653318 149.277415494 c 2,3,-1
 370.599443752 163.105020917 l 1,4,-1
 359.384505109 148.654778091 l 2,5,6
 255.654058938 15 255.654058938 15 89.7177734375 15 c 2,7,-1
 -5.0234375 15 l 2,8,9
 -36.3961230631 15 -36.3961230631 15 -50.7097802816 31.7910490901 c 128,-1,10
 -65.0234375 48.5820981801 -65.0234375 48.5820981801 -65.0234375 88 c 2,11,-1
 -65.0234380702 98.9958639707 l 2,12,13
 -65.0164117246 124.478077363 -65.0164117246 124.478077363 -58.547182337 139.891505003 c 128,-1,14
 -52.0779529495 155.304932643 -52.0779529495 155.304932643 -39.0941279913 162.152466321 c 128,-1,15
 -26.1103030331 169 -26.1103030331 169 -5.0234375 169 c 2,16,-1
 87.873046875 169 l 2,17,18
 194.96162623 169 194.96162623 169 249.446633428 238.238335166 c 128,-1,19
 303.931640625 307.476670332 303.931640625 307.476670332 303.931640625 439.43359375 c 2,20,-1
 303.931640625 1352.72753906 l 1,21,-1
 444.02734375 1352.72753906 l 1,22,-1
 444.027343837 438.260402207 l 2,23,24
 444.017948845 350.900062325 444.017948845 350.900062325 469.052654287 290.992719273 c 128,-1,25
 494.087359729 231.085376222 494.087359729 231.085376222 544.428380674 200.042688111 c 128,-1,26
 594.769401618 169 594.769401618 169 668.973632812 169 c 2,27,-1
 703.987872791 169 l 2,28,29
 706.138930094 166.778148406 706.138930094 166.778148406 708.407402022 159.169992293 c 128,-1,30
 710.67587395 151.561836181 710.67587395 151.561836181 712.597214319 135.394438101 c 128,-1,31
 714.518554688 119.227040021 714.518554688 119.227040021 714.518554688 99 c 2,32,-1
 714.518779169 87.9179366863 l 2,33,34
 714.634817908 66.7080323048 714.634817908 66.7080323048 712.588346529 49.5565714648 c 128,-1,35
 710.54187515 32.4051106248 710.54187515 32.4051106248 708.240281086 24.6744073469 c 128,-1,36
 705.938687022 16.943704069 705.938687022 16.943704069 704.002892804 15 c 1,0,-1
EndSplineSet
EndChar

StartChar: uniFEE2
Encoding: 65250 65250 237
Width: 1370
VWidth: 2553
GlyphClass: 2
Flags: W
AnchorPoint: "Anchor-7" 722.389 -323.648 basechar 0
AnchorPoint: "Anchor-10" 675.565 1150.03 basechar 0
LayerCount: 2
Fore
SplineSet
842.857225453 584.490234375 m 2,0,-1
 685.830078125 584.490234375 l 1,1,-1
 670.830078125 584.490234375 l 1,2,-1
 670.830078125 569.490234375 l 1,3,-1
 670.830082323 370.104988369 l 2,4,5
 670.873904686 311.532370619 670.873904686 311.532370619 683.369112657 266.466976462 c 128,-1,6
 695.864320628 221.401582306 695.864320628 221.401582306 720.495190943 190.565677646 c 128,-1,7
 745.126061258 159.729772985 745.126061258 159.729772985 782.438798657 143.824864175 c 128,-1,8
 819.751536057 127.919955365 819.751536057 127.919955365 868.750216844 127.890628322 c 0,9,10
 957.953979603 127.949993255 957.953979603 127.949993255 1003.0221643 190.253403108 c 128,-1,11
 1048.09034899 252.556812961 1048.09034899 252.556812961 1048.08984375 370 c 2,12,-1
 1048.0898413 411.830839715 l 2,13,14
 1048.04133259 496.694723847 1048.04133259 496.694723847 995.206235065 540.464206605 c 128,-1,15
 942.371137543 584.233689364 942.371137543 584.233689364 842.857225453 584.490234375 c 2,0,-1
1121.47091922 96.2934526477 m 2,16,17
 1040.74680134 -5.97873628292 1040.74680134 -5.97873628292 868.760064747 -5.47559904563 c 0,18,19
 694.564597273 -5.24530811125 694.564597273 -5.24530811125 609.254010315 86.9191927575 c 128,-1,20
 523.943423357 179.083693626 523.943423357 179.083693626 523.889648438 368.30859375 c 2,21,-1
 523.889648438 553.943359375 l 1,22,-1
 523.889648438 570.486778091 l 1,23,-1
 507.425255129 568.871706646 l 2,24,25
 259.999605102 544.600535839 259.999605102 544.600535839 260.010742188 161.032226562 c 2,26,-1
 260.010742188 -481.416992188 l 1,27,-1
 115.94921875 -481.416992188 l 1,28,-1
 115.949213783 153.577636724 l 1,29,-1
 115.95408164 159.61429072 l 2,30,31
 115.484247727 447.891299428 115.484247727 447.891299428 231.701043689 588.823909061 c 128,-1,32
 347.917839651 729.756518694 347.917839651 729.756518694 583.256605291 729.525390644 c 2,33,-1
 858.191179161 729.539062519 l 2,34,35
 972.345560525 729.544766229 972.345560525 729.544766229 1046.96219205 694.783102665 c 128,-1,36
 1121.57882358 660.021439101 1121.57882358 660.021439101 1158.21133562 589.967212849 c 128,-1,37
 1194.84384767 519.912986596 1194.84384767 519.912986596 1194.76953125 413 c 2,38,-1
 1194.76966101 369.068251285 l 2,39,40
 1194.36912782 272.774584294 1194.36912782 272.774584294 1229.8547906 220.887292147 c 128,-1,41
 1265.34045337 169 1265.34045337 169 1336.3671875 169 c 2,42,-1
 1374.45422619 169 l 1,43,44
 1384.99286442 158.121620718 1384.99286442 158.121620718 1384.9765625 99 c 2,45,-1
 1384.9765625 88 l 2,46,47
 1384.9765625 26.6072191393 1384.9765625 26.6072191393 1374.29264488 15 c 1,48,-1
 1340.15429688 15 l 2,49,50
 1298.90166727 15 1298.90166727 15 1263.53935238 24.1248609962 c 128,-1,51
 1228.1770375 33.2497219924 1228.1770375 33.2497219924 1198.55362261 51.4156693712 c 128,-1,52
 1168.93020772 69.5816167499 1168.93020772 69.5816167499 1144.42930705 96.9956939306 c 2,53,-1
 1132.53220124 110.307375056 l 1,54,-1
 1121.47091922 96.2934526477 l 2,16,17
EndSplineSet
EndChar

